<?xml version="1.0" standalone="no"?>
<!DOCTYPE svg PUBLIC "-//W3C//DTD SVG 1.1//EN" "http://www.w3.org/Graphics/SVG/1.1/DTD/svg11.dtd" >
<svg xmlns="http://www.w3.org/2000/svg" xmlns:xlink="http://www.w3.org/1999/xlink" version="1.1">
<metadata>
Created by FontForge 20201107 at Sun Jul 26 19:49:34 2020
 By 
Copyright (c) 2011 by Digi Fonts. All rights reserved
</metadata>
<defs>
<font id="ShokohBold" horiz-adv-x="0" >
  <font-face 
    font-family="Shokoh"
    font-weight="700"
    font-stretch="normal"
    units-per-em="2048"
    panose-1="2 0 0 0 0 0 0 0 0 0"
    ascent="1638"
    descent="-410"
    x-height="740"
    cap-height="1082"
    bbox="-245 -749 3255 1525.19"
    underline-thickness="50"
    underline-position="-600"
    unicode-range="U+001D-FEFC"
  />
<missing-glyph horiz-adv-x="902" 
d="M49 -18v1436h840v-1436h-840zM133 66h672v1268h-672v-1268zM269 1130q37 33 65 50q56 30 119 30q97 0 156.5 -51t59.5 -137q0 -52 -23.5 -103.5t-86.5 -131.5q-62 -78 -95 -125.5t-33 -87.5q0 -36 27 -148h-66q-39 109 -39 162q0 79 79 218t79 206q0 49 -26.5 75.5
t-75.5 26.5q-33 0 -59 -14q-25 -13 -81 -61v91zM336 338l56 57q16 15 33 15q15 0 32 -15l58 -60q12 -18 12 -31q0 -19 -15 -34l-54 -60q-20 -20 -33 -20q-21 0 -34 17l-60 70q-10 13 -10 27q0 17 15 34z" />
    <glyph glyph-name="uniFDF2" unicode="&#xfedf;&#xfee0;&#xfeea;" horiz-adv-x="1607" arabic-form="isolated" 
d="M612 98q-5 -18 -57.5 -59t-117.5 -53.5t-134 1.5t-125.5 53t-92 102.5t-32.5 147.5q2 76 32.5 140t79 109t110.5 70t125 25q101 0 163.5 -24.5t98 -64.5t47.5 -89.5t15 -97.5t3 -90t9 -69q11 -33 34.5 -52t53 -26t61 0.5t56.5 28.5t40.5 56t12.5 86q-2 34 -5.5 80.5
t-8 97t-9 103t-8 97t-6 79t-1.5 50.5q0 51 23 80t53 20t51.5 -47.5t24.5 -105.5q1 -30 2.5 -57.5t4 -61t6.5 -77.5t11 -108q8 -59 18.5 -106t21.5 -83q18 -54 42.5 -79.5t48.5 -29.5t48.5 10.5t43.5 49t28 87.5t0 122q-6 44 -15 92t-21 96t-24 94.5t-22 86.5t-17 73.5
t-7 56.5q1 67 26 101.5t59 34t60.5 -33.5t29.5 -89q4 -48 16.5 -106t27.5 -121t29 -130t22 -132q10 -94 -1.5 -175.5t-42.5 -144.5t-78 -104.5t-104 -53t-121 11.5t-113 72q-17 -21 -58.5 -50t-88.5 -45t-97.5 -16t-97.5 23t-86 71t-47 73zM572 339q-2 44 -29 78.5t-67 47
t-88 3.5t-89 -34.5t-68 -65.5t-27 -88q0 -24 18 -48.5t46 -44t61 -29.5t60 -5.5t45.5 24t21.5 60.5q3 31 18.5 51.5t36 32t42 15t19.5 3.5zM950 1340q7 -38 6 -62.5t-11 -39.5t-26 -16t-29 6.5t-22.5 19.5t-12.5 26q-5 45 -13 88.5t-24 83.5q-9 18 -4 36.5t18 29.5t31.5 13
t40.5 -17q9 -31 15.5 -51.5t12 -40t9.5 -37.5t9 -39zM1087 1212q37 -30 53.5 -62.5t17.5 -63t-11 -55.5t-32.5 -38.5t-47 -12.5t-53.5 23q-21 -40 -61 -55t-80.5 -4t-71 49.5t-32.5 106.5q0 18 12 30.5t26.5 14.5t26.5 -8t12 -37q0 -10 4.5 -23.5t12.5 -25t20.5 -18.5
t27.5 -4q14 3 17.5 13t1.5 22.5t-7.5 26.5t-8.5 26q-11 32 -3 51t24 21q20 4 30.5 -6t16.5 -26.5t10 -36t11 -34.5t19.5 -21.5t35.5 3.5q9 4 15.5 11t6.5 16.5t-9.5 22t-32.5 29.5q-17 11 -20.5 25.5t7.5 30.5t29.5 18t32.5 -9z" />
    <glyph glyph-name="uniFEF5" unicode="&#xfedf;&#xfe82;" horiz-adv-x="992" arabic-form="isolated" 
d="M420 -106q-31 -5 -54.5 13.5t-34.5 44t-7 54t33 42.5q108 53 180.5 103t118.5 107.5t70 126.5t34 161t10 212t-3 276q1 27 26 38.5t50.5 13t50.5 -8.5t29 -37q7 -66 13 -146t6 -167.5t-9 -177.5t-30.5 -176.5t-58.5 -165.5t-95.5 -143t-139.5 -108.5t-189 -61.5zM478 958
q-46 2 -91 10.5t-86.5 13.5t-79.5 2t-72 -20q-19 -10 -39 -1t-34 26.5t-20 40.5t1 49q13 46 44 64.5t70.5 20.5t85 -5.5t92 -15.5t92.5 -10.5t88 8.5q23 3 31.5 -16t8.5 -38.5t-4.5 -41t-15 -41t-28 -33.5t-43.5 -13zM442 812q49 -92 88 -195.5t71 -216.5
q23 -77 19.5 -131.5t-33.5 -68t-66 30t-71 141.5q-34 98 -73.5 191t-80.5 183q-30 65 -25 108.5t36.5 53.5t68.5 -15.5t66 -80.5z" />
    <glyph glyph-name="uniFEF6" unicode="&#xfee0;&#xfe82;" horiz-adv-x="881" arabic-form="final" 
d="M205 -106q-30 -5 -53.5 13.5t-35 43.5t-7.5 54t33 43q108 53 180.5 103t118.5 107.5t70 126.5t34.5 161t10.5 212t-3 276q1 27 25.5 38.5t50 13t50.5 -8.5t29 -37q10 -93 15.5 -183t3 -179.5t-15.5 -178.5t-40 -180q-10 -33 9 -61t53 -49.5t75.5 -34t72.5 -12.5
q36 0 61.5 -26.5t25.5 -63.5q0 -36 -25 -63t-62 -27q-41 0 -86 14t-86.5 37.5t-78 52.5t-45.5 41q-17 -27 -55.5 -68.5t-87 -74.5t-107.5 -56.5t-130 -33.5zM276 958q-46 2 -91 10.5t-86.5 13.5t-79.5 2t-72 -20q-19 -10 -39 -1t-34 26.5t-20 40.5t1 49q13 46 44 64.5
t70.5 20.5t85 -5.5t92 -15.5t92.5 -10.5t88 8.5q23 3 31.5 -16t8.5 -38.5t-4.5 -41t-15 -41t-28 -33.5t-43.5 -13zM226 812q49 -92 88 -195.5t71 -216.5q23 -77 19.5 -131.5t-33.5 -68t-66 30t-71 141.5q-34 98 -73.5 191t-80.5 183q-30 65 -25 108.5t36.5 53.5t68.5 -15.5
t66 -80.5z" />
    <glyph glyph-name="uniFEF7" unicode="&#xfedf;&#xfe84;" horiz-adv-x="906" arabic-form="isolated" 
d="M334 -106q-30 -5 -53.5 13.5t-34.5 44t-7 54t32 42.5q108 53 181 103t118.5 107.5t70 126.5t34 161t9.5 212t-3 276q2 27 27 38.5t50 13t50.5 -8.5t28.5 -37q7 -66 13 -146t6 -167.5t-8.5 -177.5t-30 -176.5t-59 -165.5t-95.5 -143t-139.5 -108.5t-189.5 -61.5zM370 1227
q-10 4 -34 8.5t-47.5 5t-40 -4.5t-19.5 -16q-4 -12 -0.5 -16.5t14.5 -8t30.5 -4.5t41.5 -2.5t43 -5.5t36 -16q34 -29 30 -69t-34 -74q-24 -28 -61 -48.5t-80.5 -25.5t-90.5 10t-90 59q-11 11 -14.5 27t-0.5 30.5t13 27t35 12.5q18 -16 35.5 -25t36 -14.5t36.5 -6.5t31 3
q-8 3 -30 7.5t-44.5 14.5t-41 28.5t-25.5 49.5q-6 25 -3 51.5t14 51t30.5 45.5t46.5 34q31 15 67 21.5t71.5 5.5t68.5 -10t59 -26q16 -13 14 -36.5t-14 -43.5t-33.5 -34t-49.5 -5zM342 812q49 -92 88 -195.5t71 -216.5q23 -77 19.5 -131.5t-33.5 -68t-66 30t-71 141.5
q-34 98 -73.5 191t-80.5 183q-30 65 -25 108.5t36.5 53.5t68.5 -15.5t66 -80.5z" />
    <glyph glyph-name="uniFEF8" unicode="&#xfee0;&#xfe84;" horiz-adv-x="880" arabic-form="final" 
d="M205 -106q-30 -5 -53.5 13.5t-35 43.5t-7.5 54t32 43q108 53 181 103t118.5 107.5t70 126.5t34.5 161t10 212t-3 276q2 27 26.5 38.5t49.5 13t50.5 -8.5t28.5 -37q10 -93 15.5 -183t3 -179.5t-15 -178.5t-39.5 -180q-10 -33 8.5 -61t53 -49.5t76 -34t71.5 -12.5
q37 0 62 -26.5t25 -63.5q0 -36 -25 -63t-62 -27q-40 0 -85 14t-87 37.5t-78 52.5t-46 41q-16 -27 -54.5 -68.5t-87 -74.5t-107.5 -56.5t-130 -33.5zM240 1227q-10 4 -34 8.5t-47.5 5t-39.5 -4.5t-19 -16q-4 -12 -1 -16.5t14.5 -8t30.5 -4.5t41 -2.5t43.5 -5.5t36.5 -16
q33 -30 29 -69.5t-34 -73.5q-24 -28 -61 -48.5t-80.5 -25.5t-90.5 10t-90 59q-12 10 -15.5 26.5t-0.5 31t13 27t36 12.5q18 -16 35.5 -25t36 -14.5t36.5 -6.5t31 3q-9 3 -31 7.5t-44 14.5t-40.5 28.5t-25.5 49.5q-6 25 -3 51.5t14 51t30.5 45.5t46.5 34q31 15 66.5 21.5
t71.5 5.5t69.5 -10t59.5 -26q16 -13 13.5 -36.5t-14.5 -43.5t-33.5 -34t-49.5 -5zM226 812q49 -92 88 -195.5t71 -216.5q23 -77 19.5 -131.5t-33.5 -68t-66 30t-71 141.5q-34 98 -73.5 191t-80.5 183q-30 65 -25 108.5t36.5 53.5t68.5 -15.5t66 -80.5z" />
    <glyph glyph-name="uniFEF9" unicode="&#xfedf;&#xfe88;" horiz-adv-x="771" arabic-form="isolated" 
d="M199 -106q-30 -5 -53.5 13.5t-34.5 44t-7 54t32 42.5q108 53 181 103t118.5 107.5t70 126.5t34 161t9.5 212t-3 276q2 27 27 38.5t50 13t50.5 -8.5t28.5 -37q7 -66 13 -146t6 -167.5t-8.5 -177.5t-30 -176.5t-58.5 -165.5t-95.5 -143t-140 -108.5t-189.5 -61.5zM226 812
q49 -92 88 -195.5t71 -216.5q23 -77 19.5 -131.5t-33.5 -68t-66 30t-71 141.5q-34 98 -73.5 191t-80.5 183q-30 65 -25 108.5t36.5 53.5t68.5 -15.5t66 -80.5zM482 -300q-11 2 -35 6.5t-48 5t-40 -4.5t-19 -16q-4 -12 -1 -16t14.5 -7.5t31 -5t41 -3t42.5 -5.5t36 -16
q36 -27 31 -67.5t-35 -74.5q-23 -28 -60 -48.5t-80.5 -25.5t-90.5 10t-90 59q-11 11 -14.5 26.5t-1.5 30.5t12.5 27t36.5 12q17 -16 34.5 -25t36.5 -14t37 -6.5t31 2.5q-9 4 -31 8.5t-44 14.5t-41 28.5t-26 50.5q-6 24 -3 50.5t14 50.5t31 45t46 34q31 15 67 22t71.5 6
t69 -10t58.5 -27q18 -11 15 -35t-14.5 -43.5t-33 -33.5t-48.5 -5z" />
    <glyph glyph-name="uniFEFA" unicode="&#xfee0;&#xfe88;" horiz-adv-x="880" arabic-form="final" 
d="M205 -106q-30 -5 -53.5 13.5t-35 43.5t-7.5 54t33 43q107 53 180 103t119 107.5t70 126.5t34 161t10 212t-3 276q2 27 26.5 38.5t49.5 13t50.5 -8.5t28.5 -37q10 -93 15.5 -183t3 -179.5t-15 -178.5t-39.5 -180q-10 -33 8.5 -61t53 -49.5t76 -34t71.5 -12.5
q37 0 62 -26.5t25 -63.5q0 -36 -25 -63t-62 -27q-40 0 -85 14t-87 37.5t-78 52.5t-46 41q-16 -27 -54.5 -68.5t-87 -74.5t-107.5 -56.5t-130 -33.5zM487 -300q-11 2 -34.5 6.5t-48 5t-41 -4.5t-19.5 -16q-4 -11 -1 -15.5t15 -8t31.5 -5t41.5 -3t43 -5.5t36 -16
q35 -27 30 -67.5t-35 -74.5q-24 -28 -61 -48.5t-80 -25.5t-90 10t-90 59q-12 10 -15.5 26.5t-0.5 31t13 26.5t37 12q16 -16 33.5 -25t36.5 -14t37 -6.5t31 2.5q-8 4 -31 8.5t-45 14.5t-41 28.5t-26 50.5q-6 24 -2.5 50.5t14.5 50.5t31 45t46 34q31 15 67 22t71.5 6t69 -10
t58.5 -27q18 -11 15 -35t-14.5 -43.5t-33 -33.5t-48.5 -5zM226 812q49 -92 88 -195.5t71 -216.5q23 -77 19.5 -131.5t-33.5 -68t-66 30t-71 141.5q-34 98 -73.5 191t-80.5 183q-30 65 -25 108.5t36.5 53.5t68.5 -15.5t66 -80.5z" />
    <glyph glyph-name="uniFEFB" unicode="&#xfedf;&#xfe8e;" horiz-adv-x="771" arabic-form="isolated" 
d="M199 -106q-30 -5 -53.5 13.5t-34.5 44t-7 54t32 42.5q108 53 181 103t118.5 107.5t70 126.5t34 161t9.5 212t-3 276q2 27 27 38.5t50 13t50.5 -8.5t28.5 -37q7 -66 13 -146t6 -167.5t-8.5 -177.5t-30 -176.5t-58.5 -165.5t-95.5 -143t-140 -108.5t-189.5 -61.5zM226 812
q49 -92 88 -195.5t71 -216.5q23 -77 19.5 -131.5t-33.5 -68t-66 30t-71 141.5q-34 98 -73.5 191t-80.5 183q-30 65 -25 108.5t36.5 53.5t68.5 -15.5t66 -80.5z" />
    <glyph glyph-name="uniFEFC" unicode="&#xfee0;&#xfe8e;" horiz-adv-x="880" arabic-form="final" 
d="M205 -106q-30 -5 -53.5 13.5t-35 43.5t-7.5 54t33 43q107 53 180 103t119 107.5t70 126.5t34 161t10 212t-3 276q2 27 26.5 38.5t49.5 13t50.5 -8.5t28.5 -37q10 -93 15.5 -183t3 -179.5t-15 -178.5t-39.5 -180q-10 -33 8.5 -61t53 -49.5t76 -34t71.5 -12.5
q37 0 62 -26.5t25 -63.5q0 -36 -25 -63t-62 -27q-40 0 -85 14t-87 37.5t-78 52.5t-46 41q-16 -27 -54.5 -68.5t-87 -74.5t-107.5 -56.5t-130 -33.5zM226 812q49 -92 88 -195.5t71 -216.5q23 -77 19.5 -131.5t-33.5 -68t-66 30t-71 141.5q-34 98 -73.5 191t-80.5 183
q-30 65 -25 108.5t36.5 53.5t68.5 -15.5t66 -80.5z" />
    <glyph glyph-name="uni0621" unicode="&#x621;" horiz-adv-x="710" arabic-form="isolated" 
d="M525 417q-11 3 -31.5 7.5t-45 8t-50 4t-46.5 -3.5t-34 -12.5t-17 -21.5q-7 -21 0 -30.5t26 -15.5t49.5 -8t62.5 -4t62.5 -7.5t51.5 -22.5q23 -20 33.5 -45t7.5 -52.5t-15.5 -54.5t-33.5 -51q-35 -40 -89 -70t-117.5 -37.5t-132 14.5t-131.5 87q-15 15 -20 36.5t-1 41
t17.5 36.5t45.5 15q23 -23 50 -36.5t56 -21.5t57.5 -10t48.5 3q33 8 9 16.5t-56.5 14.5t-64 20.5t-58.5 41t-37 71.5q-9 35 -4.5 73t20.5 73t44.5 65.5t68.5 48.5q45 23 98 33t105.5 8.5t101 -14.5t85.5 -39q16 -10 17.5 -29.5t-4 -38.5t-16 -38t-27 -34t-39 -22.5
t-47.5 1.5z" />
    <glyph glyph-name="uni0622" unicode="&#x622;" horiz-adv-x="617" arabic-form="isolated" 
d="M586 965q-45 2 -93.5 2.5t-175.5 6t-165.5 -7t-72.5 -30.5q-18 -10 -38.5 -1.5t-34.5 26t-20 41.5t5 69q12 46 43 64.5t70.5 20t169 -6t225.5 -1t139 18.5q22 0 30.5 -17.5t8.5 -37.5t-4.5 -50.5t-14.5 -50t-28 -33.5t-44 -13zM426 -103q-31 -6 -50.5 15.5t-32 47.5
t-20 53t-10.5 44q-7 35 -14 90.5t-14 121t-13 137.5t-11 139t-8 126t-3 98q0 65 20.5 99t51.5 33t53 -34.5t24 -89.5q2 -39 6.5 -96t11 -124t14.5 -138t16 -137t15.5 -121.5t12.5 -91.5q4 -16 7.5 -41t2.5 -51t-13.5 -50t-45.5 -30z" />
    <glyph glyph-name="uni0623" unicode="&#x623;" horiz-adv-x="517" arabic-form="isolated" 
d="M380 -103q-30 -6 -50 15.5t-32.5 47.5t-19.5 53t-10 44q-8 35 -15 90.5t-14 121t-13 137.5t-11 139t-8 126t-3 98q0 65 20.5 99.5t51 33t53 -35t25.5 -89.5q1 -39 6 -96t11 -124t14 -138t16 -137t15.5 -121.5t13.5 -91.5q3 -16 7 -41t3 -51t-14 -50t-46 -30zM368 1222
q-11 4 -34.5 8.5t-47 5t-39 -4.5t-19.5 -16q-3 -12 0 -16.5t14 -8t30.5 -4.5t41 -2.5t43 -5t36.5 -15.5q33 -30 29 -69t-33 -74q-24 -28 -61 -48.5t-81 -25.5t-91 10t-90 59q-11 11 -13.5 27t-0.5 30t12.5 27t36.5 13q16 -16 33.5 -25t36.5 -14.5t36.5 -6.5t31.5 3
q-8 2 -30 6.5t-44 14.5t-40.5 28.5t-25.5 49.5q-6 25 -3.5 51.5t13.5 50.5t30 45.5t47 34.5q31 14 66.5 21t71 5.5t68.5 -10t59 -25.5q16 -13 14 -36.5t-14 -43.5t-33.5 -34t-49.5 -5z" />
    <glyph glyph-name="uni0624" unicode="&#x624;" horiz-adv-x="756" arabic-form="isolated" 
d="M92 -105q66 34 131 69t83 51q-65 -2 -135 37t-101.5 102t-25.5 141t41.5 151.5t97.5 137.5t145 100q98 46 172.5 36t121.5 -60.5t65.5 -130t9 -171t-45.5 -188.5t-101 -183q-74 -98 -152.5 -154t-150.5 -80.5t-129.5 -22t-90 27t-17.5 64t82 73.5zM269 421
q-26 -33 -39.5 -67.5t-13.5 -65.5t13 -56t42.5 -40t78.5 -17.5t114 12.5q40 57 56.5 119.5t12 112.5t-26 81.5t-54.5 37t-80 -20t-103 -96.5zM568 1065q-10 4 -33 8.5t-47.5 5t-40.5 -4.5t-20 -16t-0.5 -15.5t14.5 -8t31 -4.5t41.5 -2.5t43.5 -5.5t36 -16q35 -30 30 -69.5
t-35 -73.5q-24 -28 -61 -48t-80 -25t-90 10t-90 59q-11 11 -14.5 26.5t-0.5 30t13.5 27.5t37.5 10q15 -15 32.5 -24t36.5 -14t37.5 -6.5t29.5 0.5q-9 6 -31 10.5t-44 14.5t-40.5 28.5t-25.5 49.5q-6 25 -3 51t14.5 50.5t30.5 45.5t46 34q30 15 66 21.5t71.5 5.5t69 -10
t58.5 -26q18 -11 15 -35t-15 -44t-33 -34.5t-50 -5.5z" />
    <glyph glyph-name="uni0625" unicode="&#x625;" horiz-adv-x="519" arabic-form="isolated" 
d="M278 -103q-30 -6 -50 15.5t-32 47.5t-19 53t-10 44q-5 26 -11.5 71.5t-12.5 103t-12 124t-12 135.5t-11 136.5t-9 127t-6 107.5t-2 78q-1 64 20 97.5t51 32.5t52.5 -34.5t25.5 -89.5q1 -39 7 -108.5t13.5 -155t17 -179t19 -178t17.5 -153t13 -103.5q3 -16 7.5 -41t3 -51
t-14.5 -50t-45 -30zM370 -299q-11 2 -34.5 6.5t-48 5t-40 -4.5t-17.5 -16q-4 -11 -1 -15.5t14 -8t31 -5t41 -3t42.5 -5t36.5 -15.5q33 -29 28.5 -68.5t-34.5 -73.5q-23 -28 -59.5 -48.5t-80 -25.5t-90.5 10t-90 59q-11 11 -14.5 27t-0.5 30.5t13 26.5t36 12q16 -16 33.5 -25
t36.5 -14t37 -6.5t31 2.5q-9 4 -30.5 8.5t-44 14t-41 28t-26.5 50.5q-6 24 -2.5 50.5t14 50.5t30 45t46.5 34q31 15 66.5 22t71 6t69 -11t58.5 -27q18 -11 15 -34.5t-14.5 -43t-33 -33.5t-48.5 -5z" />
    <glyph glyph-name="uni0626" unicode="&#x626;" horiz-adv-x="1282" arabic-form="isolated" 
d="M713 124q54 -13 107 -30.5t97 -46.5t71.5 -75t29.5 -113q1 -55 -14.5 -99t-46 -76t-71 -52t-88.5 -28q-56 -10 -118 -4.5t-125.5 27t-124 57.5t-111.5 87.5t-90.5 117.5t-59.5 147q-5 19 -8.5 42t0 45.5t16.5 42t39 29.5q18 6 38 4.5t37 -11t29.5 -25t15.5 -36.5
q8 -87 46.5 -151t92 -107t115 -64.5t116 -22.5t92.5 17t49 52q6 18 -1 28t-28 19t-56 16.5t-75 18t-83 27t-81 44.5t-68 71t-46 106q-22 90 1.5 170.5t78.5 144t132.5 108.5t164.5 67.5t177.5 21t169.5 -31.5q36 -11 58.5 -31.5t31.5 -45t6 -49t-17 -43.5q-38 -49 -72 -63
t-66 -4q-129 33 -221 38.5t-152 -8t-92 -40.5t-43 -60t-4 -70t28 -70.5t53 -58t70 -32.5zM367 624q-10 4 -33.5 8t-47 4.5t-39 -4.5t-19.5 -15q-3 -12 0 -16.5t14 -8t31 -5t41.5 -3t42.5 -5.5t36 -16q33 -27 29 -67t-33 -76q-24 -27 -61 -47.5t-81 -25.5t-91 10t-90 59
q-11 11 -13.5 27t-0.5 30t12.5 27.5t36.5 10.5q16 -15 33.5 -23.5t36.5 -14t37 -7t31 1.5q-8 5 -30 9t-44 14t-40.5 28.5t-25.5 50.5q-6 25 -3.5 51t13.5 50.5t30 45.5t46 34q32 15 67.5 21.5t71 5.5t68.5 -10t59 -26q16 -13 13.5 -36.5t-14 -43.5t-33 -34t-50.5 -4z" />
    <glyph glyph-name="uni0627" unicode="&#x627;" horiz-adv-x="349" arabic-form="isolated" 
d="M237 -103q-29 -6 -49 15.5t-32 47.5t-19 53t-10 44q-5 26 -11 71.5t-12.5 103t-13 124t-12.5 135.5t-11 136.5t-9 127t-6 107.5t-2 78q0 64 20.5 97.5t51.5 32.5t53 -34.5t24 -89.5q1 -39 7 -108.5t14 -155t17.5 -179t18.5 -178t17.5 -152.5t14.5 -104q3 -16 7 -41
t2.5 -51t-14 -50t-46.5 -30z" />
    <glyph glyph-name="uni0628" unicode="&#x628;" horiz-adv-x="1076" arabic-form="isolated" 
d="M74 167q-18 49 -21 93t5 77.5t27.5 54.5t45 12.5t45.5 -41t35 -92.5q16 -69 59.5 -121t102.5 -85.5t127 -46.5t132.5 -1.5t119 47t87.5 98.5q35 65 63.5 100t54.5 48t44 -4.5t21.5 -46t-1 -64.5t-18.5 -75q-26 -74 -75 -125.5t-112 -82.5t-135.5 -43t-146.5 -6.5
t-145.5 28.5t-133.5 61.5t-109.5 92.5t-71.5 122zM532 -204q22 0 41 -8.5t33 -23.5t22.5 -34.5t8.5 -42.5t-8.5 -43t-22.5 -35t-33 -23.5t-41 -8.5t-41 8.5t-33.5 23.5t-23 35t-8.5 43q0 45 30.5 77t75.5 32z" />
    <glyph glyph-name="uni0629" unicode="&#x629;" horiz-adv-x="616" arabic-form="isolated" 
d="M162 503q17 -6 -0.5 -1.5t-35 11t-33.5 17t-18 30.5q-1 11 3.5 31.5t13 41t23.5 39t37 15.5q75 -15 144.5 -40t122.5 -52q54 -27 87 -68.5t46.5 -90t11 -100.5t-17.5 -101.5t-41.5 -94.5t-61.5 -79t-78 -54t-89 -19q-49 1 -91.5 27.5t-73 68.5t-46 96t-9.5 113t37 118
t69 92zM275 174q52 2 79.5 28.5t35 62t-4 68t-37.5 46.5q-37 19 -62.5 11t-43.5 -30.5t-26 -57t-3.5 -63.5t20 -47.5t42.5 -17.5zM156 988q44 0 74.5 -32t30.5 -78q0 -23 -8 -42.5t-22 -34t-33.5 -23t-41.5 -8.5q-45 0 -75.5 31.5t-30.5 76.5q0 46 30 78t76 32zM345 934
q22 0 41 -8.5t33 -23t22.5 -34t8.5 -42.5t-8 -43t-22.5 -35t-33.5 -23.5t-41 -8.5t-41 8.5t-33.5 23.5t-23 35t-8.5 43q0 45 31 76.5t75 31.5z" />
    <glyph glyph-name="uni062A" unicode="&#x62a;" horiz-adv-x="1076" arabic-form="isolated" 
d="M74 167q-18 49 -21 93t5 77.5t27.5 54.5t45 12.5t45.5 -41t35 -92.5q16 -69 59.5 -121t102.5 -85.5t127 -46.5t132.5 -1.5t119 47t87.5 98.5q35 65 63.5 100t54.5 48t44 -4.5t21.5 -46t-1 -64.5t-18.5 -75q-26 -74 -75 -125.5t-112 -82.5t-135.5 -43t-146.5 -6.5
t-145.5 28.5t-133.5 61.5t-109.5 92.5t-71.5 122zM450 498q45 0 75 -32t30 -78q0 -44 -30 -76t-75 -32q-46 0 -76 32t-30 76q0 46 30 78t76 32zM638 445q45 0 76 -32t31 -79q0 -44 -31 -76t-76 -32t-74.5 32t-29.5 76q0 47 29.5 79t74.5 32z" />
    <glyph glyph-name="uni062B" unicode="&#x62b;" horiz-adv-x="1076" arabic-form="isolated" 
d="M74 167q-18 49 -21 93t5 77.5t27.5 54.5t45 12.5t45.5 -41t35 -92.5q16 -69 59.5 -121t102.5 -85.5t127 -46.5t132.5 -1.5t119 47t87.5 98.5q35 65 63.5 100t54.5 48t44 -4.5t21.5 -46t-1 -64.5t-18.5 -75q-26 -74 -75 -125.5t-112 -82.5t-135.5 -43t-146.5 -6.5
t-145.5 28.5t-133.5 61.5t-109.5 92.5t-71.5 122zM450 498q45 0 75 -32t30 -78q0 -44 -30 -76t-75 -32q-46 0 -76 32t-30 76q0 46 30 78t76 32zM638 445q45 0 76 -32t31 -79q0 -44 -31 -76t-76 -32t-74.5 32t-29.5 76q0 47 29.5 79t74.5 32zM592 656q46 0 76.5 -31.5
t30.5 -76.5q0 -23 -8.5 -43t-22.5 -35t-33.5 -24t-42.5 -9q-22 0 -41.5 9t-33 24t-22 35t-8.5 43t8.5 42.5t22.5 34t33 23t41 8.5z" />
    <glyph glyph-name="uni062C" unicode="&#x62c;" horiz-adv-x="1023" arabic-form="isolated" 
d="M50 399q2 63 34.5 101t78.5 55.5t97.5 17.5t95.5 -12q60 -14 125.5 -37t132 -49t131.5 -52t126 -47q15 -6 30.5 -10.5t31 -13.5t27 -24.5t12.5 -39.5q1 -35 -6.5 -55.5t-24 -30.5t-35 -10.5t-36.5 -0.5q-64 -2 -144.5 -19.5t-160 -47.5t-148.5 -71.5t-109 -89.5
q-56 -65 -71.5 -137.5t9 -137t91 -116t178.5 -75.5q48 -11 96 -8.5t91.5 15.5t79 36.5t58.5 56.5q26 37 52.5 46t42.5 -11t16.5 -51t-11.5 -66t-37.5 -72t-68 -67.5t-102.5 -51t-141 -21.5q-122 -2 -216.5 31t-160 91t-100 136t-36 163.5t29.5 173.5t97 167.5t166.5 144.5
t187.5 90q-12 5 -71 29.5t-111.5 40t-93 20t-55.5 -2.5q-2 -23 -25 -46.5t-55 -24.5q-18 -2 -35.5 4.5t-31 17.5t-22.5 27t-9 34zM546 -80q22 0 41.5 -8.5t34 -23.5t23 -35t8.5 -43q0 -45 -31 -77t-76 -32t-75.5 32t-30.5 77q0 23 8.5 43t22.5 35t33.5 23.5t41.5 8.5z" />
    <glyph glyph-name="uni062D" unicode="&#x62d;" horiz-adv-x="1023" arabic-form="isolated" 
d="M50 399q2 63 34.5 101t78.5 55.5t97.5 17.5t95.5 -12q60 -14 125.5 -37t132 -49t131.5 -52t126 -47q15 -6 30.5 -10.5t31 -13.5t27 -24.5t12.5 -39.5q1 -35 -6.5 -55.5t-24 -30.5t-35 -10.5t-36.5 -0.5q-64 -2 -144.5 -19.5t-160 -47.5t-148.5 -71.5t-109 -89.5
q-56 -65 -71.5 -137.5t9 -137t91 -116t178.5 -75.5q48 -11 96 -8.5t91.5 15.5t79 36.5t58.5 56.5q26 37 52.5 46t42.5 -11t16.5 -51t-11.5 -66t-37.5 -72t-68 -67.5t-102.5 -51t-141 -21.5q-122 -2 -216.5 31t-160 91t-100 136t-36 163.5t29.5 173.5t97 167.5t166.5 144.5
t187.5 90q-12 5 -71 29.5t-111.5 40t-93 20t-55.5 -2.5q-2 -23 -25 -46.5t-55 -24.5q-18 -2 -35.5 4.5t-31 17.5t-22.5 27t-9 34z" />
    <glyph glyph-name="uni062E" unicode="&#x62e;" horiz-adv-x="1023" arabic-form="isolated" 
d="M50 399q2 63 34.5 101t78.5 55.5t97.5 17.5t95.5 -12q60 -14 125.5 -37t132 -49t131.5 -52t126 -47q15 -6 30.5 -10.5t31 -13.5t27 -24.5t12.5 -39.5q1 -35 -6.5 -55.5t-24 -30.5t-35 -10.5t-36.5 -0.5q-64 -2 -144.5 -19.5t-160 -47.5t-148.5 -71.5t-109 -89.5
q-56 -65 -71.5 -137.5t9 -137t91 -116t178.5 -75.5q48 -11 96 -8.5t91.5 15.5t79 36.5t58.5 56.5q26 37 52.5 46t42.5 -11t16.5 -51t-11.5 -66t-37.5 -72t-68 -67.5t-102.5 -51t-141 -21.5q-122 -2 -216.5 31t-160 91t-100 136t-36 163.5t29.5 173.5t97 167.5t166.5 144.5
t187.5 90q-12 5 -71 29.5t-111.5 40t-93 20t-55.5 -2.5q-2 -23 -25 -46.5t-55 -24.5q-18 -2 -35.5 4.5t-31 17.5t-22.5 27t-9 34zM284 841q22 0 41 -8.5t33.5 -23t23 -34t8.5 -42.5t-8.5 -42.5t-22.5 -34.5t-33.5 -23.5t-41.5 -8.5t-41.5 8.5t-33.5 23.5t-22.5 34.5
t-8.5 42.5q0 45 30.5 76.5t75.5 31.5z" />
    <glyph glyph-name="uni062F" unicode="&#x62f;" horiz-adv-x="986" arabic-form="isolated" 
d="M50 129q0 36 25 63t62 27q47 0 109.5 1.5t128.5 9t129.5 23t111.5 43.5t77 70.5t28 104.5q0 31 -24.5 47.5t-69 22.5t-103 3t-118.5 -7.5t-115.5 -6.5t-92.5 6q-16 3 -37 15.5t-38.5 29.5t-26 41.5t5.5 48.5t51 41.5t104 29.5q87 15 177.5 15.5t172 -14t151 -44t113 -76
t54.5 -110t-23 -142.5q-31 -71 -83.5 -128.5t-117 -100.5t-137 -72t-143 -45.5t-136 -19t-117 9t-85 40t-33.5 74.5z" />
    <glyph glyph-name="uni0630" unicode="&#x630;" horiz-adv-x="986" arabic-form="isolated" 
d="M50 129q0 36 25 63t62 27q47 0 109.5 1.5t128.5 9t129.5 23t111.5 43.5t77 70.5t28 104.5q0 31 -24.5 47.5t-69 22.5t-103 3t-118.5 -7.5t-115.5 -6.5t-92.5 6q-16 3 -37 15.5t-38.5 29.5t-26 41.5t5.5 48.5t51 41.5t104 29.5q87 15 177.5 15.5t172 -14t151 -44t113 -76
t54.5 -110t-23 -142.5q-31 -71 -83.5 -128.5t-117 -100.5t-137 -72t-143 -45.5t-136 -19t-117 9t-85 40t-33.5 74.5zM307 1032q22 0 41.5 -8.5t34 -23.5t23 -35t8.5 -43q0 -45 -31.5 -76.5t-75.5 -31.5q-45 0 -75.5 31.5t-30.5 76.5q0 23 8.5 43t22.5 35t33.5 23.5t41.5 8.5
z" />
    <glyph glyph-name="uni0631" unicode="&#x631;" horiz-adv-x="729" arabic-form="isolated" 
d="M651 285q-20 -43 -49.5 -95.5t-63.5 -107.5t-71.5 -108.5t-74 -98.5t-70 -79.5t-60.5 -48.5q-28 -16 -64 -17.5t-70.5 6t-65 23.5t-62.5 58q78 31 125 66.5t88 79t76.5 92t66.5 97t61 94t59 80.5q19 24 43.5 44.5t50.5 34t50.5 18t41.5 -11t14 -47t-25 -79.5z" />
    <glyph glyph-name="uni0632" unicode="&#x632;" horiz-adv-x="743" arabic-form="isolated" 
d="M651 285q-20 -43 -49.5 -95.5t-63.5 -107.5t-71.5 -108.5t-74 -98.5t-70 -79.5t-60.5 -48.5q-28 -16 -64 -17.5t-70.5 6t-65 23.5t-62.5 58q78 31 125 66.5t88 79t76.5 92t66.5 97t61 94t59 80.5q19 24 43.5 44.5t50.5 34t50.5 18t41.5 -11t14 -47t-25 -79.5zM586 685
q21 0 40.5 -8.5t34 -23.5t23.5 -34.5t9 -42.5t-9 -42.5t-23.5 -34.5t-34 -23.5t-40.5 -8.5q-45 0 -75 32t-30 77q0 22 7.5 42t22 35t34 23.5t41.5 8.5z" />
    <glyph glyph-name="uni0633" unicode="&#x633;" horiz-adv-x="1602" arabic-form="isolated" 
d="M1192 119q-17 -32 -51.5 -64t-69.5 -42.5t-66.5 -2t-57 25t-44 37t-13.5 12.5q-15 -26 -54.5 -75.5t-93 -88.5t-123 -62.5t-156.5 -21.5q-68 1 -131 25t-116 70t-92.5 114.5t-58.5 157.5q-15 68 -4 117.5t37.5 81.5t61.5 45t69 9t60.5 -25t32 -57t-13.5 -82t-66 -94
q10 -47 33 -87.5t53.5 -66t67 -37t75.5 -10.5q59 1 107 17.5t86.5 44t69.5 62t55.5 73t43 77.5t38.5 64.5t60 18t39 -45.5t-9 -52t-11 -26t1 -18q25 -38 54 -40t58.5 22.5t54 73t30 96t55 49.5t55.5 -20q9 -31 7 -66t2.5 -64t19.5 -48t58 -25q26 -4 36.5 3t14 23t2 41.5
t-6 54.5t-6 57.5t5.5 52.5q8 21 26.5 24t36 0t44.5 -8t34 -30t11 -64.5t6.5 -81.5t-1 -83.5t-21 -76t-52.5 -55.5t-93 -20q-64 2 -119.5 33.5t-70.5 57.5z" />
    <glyph glyph-name="uni0634" unicode="&#x634;" horiz-adv-x="1602" arabic-form="isolated" 
d="M1192 119q-17 -32 -51.5 -64t-69.5 -42.5t-66.5 -2t-57 25t-44 37t-13.5 12.5q-15 -26 -54.5 -75.5t-93 -88.5t-123 -62.5t-156.5 -21.5q-68 1 -131 25t-116 70t-92.5 114.5t-58.5 157.5q-15 68 -4 117.5t37.5 81.5t61.5 45t69 9t60.5 -25t32 -57t-13.5 -82t-66 -94
q10 -47 33 -87.5t53.5 -66t67 -37t75.5 -10.5q59 1 107 17.5t86.5 44t69.5 62t55.5 73t43 77.5t30 69t60 18t63.5 -45q4 -13 -6.5 -28t-18.5 -29t-11 -26t1 -18q25 -38 54 -40t58.5 22.5t54 73t26.5 95.5t55 49.5t59 -19.5q9 -31 7 -66t2.5 -64t19.5 -48t58 -25
q26 -4 36.5 3t14 23t2 41.5t-6 54.5t-6 57.5t5.5 52.5q8 21 26.5 24t36 0t44 -9.5t34 -30t11.5 -63t6.5 -81.5t-1 -83.5t-21 -76t-52.5 -55.5t-93 -20q-64 2 -119.5 33.5t-70.5 57.5zM1079 763q22 0 42 -8.5t34.5 -23.5t22.5 -35t8 -43q0 -45 -31 -77t-76 -32
q-44 0 -74.5 32t-30.5 77q0 22 8 42.5t22.5 35.5t34 23.5t40.5 8.5zM1268 709q45 0 76 -32t31 -78q0 -45 -31 -77t-76 -32q-21 0 -40.5 8.5t-34 23.5t-23 34.5t-8.5 42.5q0 46 31.5 78t74.5 32zM1221 921q45 0 76 -32t31 -77q0 -23 -8 -42.5t-22.5 -34.5t-34.5 -23.5
t-42 -8.5q-21 0 -40 8.5t-33.5 23.5t-23 34.5t-8.5 42.5t8.5 42.5t23 34.5t33.5 23.5t40 8.5z" />
    <glyph glyph-name="uni0635" unicode="&#x635;" horiz-adv-x="1671" arabic-form="isolated" 
d="M65 204q-15 68 -4 117.5t37.5 81.5t61.5 45t69 9t60.5 -25t32 -57t-13.5 -82t-66 -94q15 -67 48 -112.5t74.5 -66.5t89.5 -21t96 15t92 41.5t76 59.5t48.5 67t13.5 58q-36 42 -46.5 82.5t-1 70t34.5 46.5t52.5 18t53.5 -14.5t36 -49.5q13 -44 21 -88t16 -77.5t9 -20.5
t12 90.5t37.5 148.5t69 130.5t97.5 97t121 46.5t138 -20q43 -19 79 -50t61 -72t38 -88t8 -97q-4 -50 -33 -98.5t-73.5 -92.5t-101.5 -81.5t-117.5 -66t-123 -46t-119 -20t-104.5 13t-60 31.5q-44 -78 -121 -138t-161.5 -81t-170 -4.5t-159 67t-128 133.5t-79.5 194z
M1112 190q109 21 186 58.5t113.5 77t41.5 77t-11 69t-47.5 54t-70 28t-77.5 -9t-71 -57.5t-50.5 -120.5t-13.5 -176.5z" />
    <glyph glyph-name="uni0636" unicode="&#x636;" horiz-adv-x="1671" arabic-form="isolated" 
d="M1144 993q22 0 42 -9t34.5 -24t22.5 -34.5t8 -42.5t-8 -43t-22.5 -35t-34.5 -23.5t-42 -8.5q-21 0 -40.5 8.5t-34 23.5t-23 35t-8.5 43t8.5 42.5t23 34.5t33.5 24t41 9zM65 204q-15 68 -4 117.5t37.5 81.5t61.5 45t69 9t60.5 -25t32 -57t-13.5 -82t-66 -94
q15 -67 48 -112.5t74.5 -66.5t89.5 -21t96 15t92 41.5t76 59.5t48.5 67t13.5 58q-36 42 -46.5 82.5t-1 70t34.5 46.5t52.5 18t53.5 -14.5t36 -49.5q13 -44 21 -88t16 -77.5t9 -20.5t12 90.5t37.5 148.5t69 130.5t97.5 97t121 46.5t138 -20q43 -19 79 -50t61 -72t38 -88
t8 -97q-4 -50 -33 -98.5t-73.5 -92.5t-101.5 -81.5t-117.5 -66t-123 -46t-119 -20t-104.5 13t-60 31.5q-44 -78 -121 -138t-161.5 -81t-170 -4.5t-159 67t-128 133.5t-79.5 194zM1112 190q109 21 186 58.5t113.5 77t41.5 77t-11 69t-47.5 54t-70 28t-77.5 -9t-71 -57.5
t-50.5 -120.5t-13.5 -176.5z" />
    <glyph glyph-name="uni0637" unicode="&#x637;" horiz-adv-x="900" arabic-form="isolated" 
d="M137 162q20 0 36.5 0.5t18.5 0.5q-9 82 1 172t44.5 162.5t94.5 122.5t90 40t10 4.5t-24 45.5q-11 134 -18.5 263.5t-10.5 258.5q0 11 0.5 27t6.5 31t19.5 27t37.5 11q5 0 15 4t24 8t30 -2t18 -34q9 -151 25.5 -303t23.5 -280q44 0 98.5 -28.5t93 -74.5t59 -104.5
t16.5 -119.5q-5 -66 -45 -122.5t-100 -101.5t-133 -80t-148.5 -59t-146.5 -36t-126 -13q-39 0 -68 22.5t-29 66.5q0 37 25 64t62 27zM343 190q108 21 185 58.5t114 77t41.5 77t-11 69t-47.5 54t-70 28t-77.5 -9t-71 -57.5t-50.5 -120.5t-13 -176.5z" />
    <glyph glyph-name="uni0638" unicode="&#x638;" horiz-adv-x="900" arabic-form="isolated" 
d="M137 162q20 0 36.5 0.5t18.5 0.5q-9 82 1 172t44.5 162.5t94.5 122.5t90 40t10 4.5t-24 45.5q-11 134 -18.5 263.5t-10.5 258.5q0 11 0.5 27t6.5 31t19.5 27t37.5 11q5 0 15 4t24 8t30 -2t18 -34q9 -151 25.5 -303t23.5 -280q44 0 98.5 -28.5t93 -74.5t59 -104.5
t16.5 -119.5q-5 -66 -45 -122.5t-100 -101.5t-133 -80t-148.5 -59t-146.5 -36t-126 -13q-39 0 -68 22.5t-29 66.5q0 37 25 64t62 27zM343 190q108 21 185 58.5t114 77t41.5 77t-11 69t-47.5 54t-70 28t-77.5 -9t-71 -57.5t-50.5 -120.5t-13 -176.5zM704 1034q45 0 75.5 -32
t30.5 -77q0 -46 -30.5 -78.5t-75.5 -32.5t-75.5 32.5t-30.5 78.5q0 45 30.5 77t75.5 32z" />
    <glyph glyph-name="uni0639" unicode="&#x639;" horiz-adv-x="1080" arabic-form="isolated" 
d="M589 -697q-110 5 -193.5 46t-139.5 105.5t-82.5 146.5t-22.5 169.5t39 175t84 141.5q-22 6 -67.5 31t-80 61.5t-55.5 86t-21 112.5q0 65 21 113t56.5 80.5t81 51.5t94.5 26.5t99 4.5t94 -14.5t80.5 -30.5t59.5 -45q9 -18 8.5 -43.5t-7 -48.5t-26 -38t-46.5 7
q-33 26 -74.5 36.5t-85 8.5t-84 -15t-70.5 -33t-45 -43t-10.5 -46t32.5 -49t91 -51q40 -15 76.5 -17t71 4.5t70 19t71 26.5t73.5 26t92 19q32 -70 29 -107.5t-29 -60.5t-66 -35t-85 -25t-92 -31.5t-88 -50.5t-73.5 -83.5t-48.5 -130.5q-12 -58 1 -106t44 -85.5t76.5 -63.5
t99 -40.5t109.5 -16t107 9.5t93.5 35.5t67.5 60.5q28 39 55 47.5t42 -13.5t13.5 -55t-18 -70.5t-48 -75.5t-83 -68t-123 -47t-167.5 -12z" />
    <glyph glyph-name="uni063A" unicode="&#x63a;" horiz-adv-x="1080" arabic-form="isolated" 
d="M589 -697q-110 5 -193.5 46t-139.5 105.5t-82.5 146.5t-22.5 169.5t39 175t84 141.5q-22 6 -67.5 31t-80 61.5t-55.5 86t-21 112.5q0 65 21 113t56.5 80.5t81 51.5t94.5 26.5t99 4.5t94 -14.5t80.5 -30.5t59.5 -45q9 -18 8.5 -43.5t-7 -48.5t-26 -38t-46.5 7
q-33 26 -74.5 36.5t-85 8.5t-84 -15t-70.5 -33t-45 -43t-10.5 -46t32.5 -49t91 -51q40 -15 76.5 -17t71 4.5t70 19t71 26.5t73.5 26t92 19q32 -70 29 -107.5t-29 -60.5t-66 -35t-85 -25t-92 -31.5t-88 -50.5t-73.5 -83.5t-48.5 -130.5q-12 -58 1 -106t44 -85.5t76.5 -63.5
t99 -40.5t109.5 -16t107 9.5t93.5 35.5t67.5 60.5q28 39 55 47.5t42 -13.5t13.5 -55t-18 -70.5t-48 -75.5t-83 -68t-123 -47t-167.5 -12zM305 928q22 0 41 -9t32.5 -24t22 -34.5t8.5 -42.5t-8.5 -42.5t-22 -34.5t-32.5 -23.5t-41 -8.5q-23 0 -42.5 8.5t-33.5 23.5
t-22.5 34.5t-8.5 42.5q0 45 30.5 77.5t76.5 32.5z" />
    <glyph glyph-name="uni0641" unicode="&#x641;" horiz-adv-x="1314" arabic-form="isolated" 
d="M939 21q-53 -23 -130 -32.5t-163 -6t-175.5 20.5t-168.5 46t-142.5 71t-95.5 99q-14 26 -14 52t13 45t36.5 28.5t53.5 7.5q33 -2 83 -25t110 -52t130 -58t143 -45.5t147.5 -14.5t99.5 14q-68 18 -134 73.5t-90.5 123t-9 136.5t62.5 125t120 93t163 39q64 2 115.5 -24.5
t88 -72t57.5 -104.5t23 -123t-14.5 -129t-56 -121.5t-102.5 -100.5t-150 -65zM996 593q-75 -6 -120 -33.5t-63 -62.5t-10.5 -72t38 -65.5t87 -41.5t132.5 4q14 14 22.5 41.5t9 60t-7.5 64.5t-21.5 56.5t-30.5 37.5t-36 11zM887 1035q22 0 41.5 -9t33.5 -24t22.5 -34.5
t8.5 -42.5t-8.5 -42.5t-23 -34t-33.5 -23t-41 -8.5t-41.5 8.5t-33 23t-22 34t-8.5 42.5t8.5 42.5t22 34.5t33 24t41.5 9z" />
    <glyph glyph-name="uni0642" unicode="&#x642;" horiz-adv-x="1255" arabic-form="isolated" 
d="M54 68q-4 26 17 40t44 18.5t47.5 2t32.5 -21.5q23 -52 66.5 -97.5t101.5 -80t126.5 -56.5t141.5 -26q41 -3 86.5 2.5t89 18.5t83.5 34.5t70.5 50.5t49.5 66t17 4q20 37 -7.5 14.5t-61 -36t-70.5 -18t-73 -1.5q-68 6 -122.5 36t-94 74.5t-63 99.5t-28.5 111t10.5 110.5
t54 97t100 68t146.5 26.5q83 0 151 -38t117 -99.5t78 -140t34 -161.5q7 -102 -19.5 -182t-77 -138.5t-120.5 -96.5t-149.5 -56t-164.5 -18.5t-167.5 16.5t-158.5 49t-136 80t-100.5 110.5t-50.5 137.5zM822 440q-51 -1 -83 -21t-47 -49t-14.5 -64t16.5 -66t47.5 -52.5
t77.5 -25.5q54 -4 85.5 15.5t45.5 49.5t11.5 68t-20 70.5t-48 53.5t-71.5 21zM586 938q23 0 42.5 -9t34 -24t22 -35.5t7.5 -42.5q0 -45 -30 -77t-76 -32q-44 0 -75 32t-31 77q0 23 8.5 43t23 35t33.5 24t41 9zM775 884q22 0 41.5 -8.5t34 -23.5t22.5 -34.5t8 -42.5
q0 -46 -31 -78.5t-75 -32.5q-43 0 -74.5 32.5t-31.5 78.5q0 23 8.5 42.5t23 34.5t34 23.5t40.5 8.5z" />
    <glyph glyph-name="uni0643" unicode="&#x643;" horiz-adv-x="1085" arabic-form="isolated" 
d="M65 204q-15 68 -4 117.5t37.5 81.5t61.5 45t69 9t60.5 -25t32 -57t-13.5 -82t-66 -94q21 -90 73.5 -140.5t119 -59.5t140 21.5t137 94.5t107.5 160t49 217q3 57 -2 117t-13 121.5t-16 124.5t-9 125q-2 42 19 69t50 32.5t55 -15.5t30 -69q42 -203 47.5 -369.5t-17.5 -298
t-71 -229t-112 -162.5t-139.5 -99t-153.5 -37t-153 22t-138.5 76.5t-111 128t-68.5 175.5zM691 559q-10 4 -33.5 8t-47.5 4.5t-40 -4.5t-19 -16q-4 -11 -1 -15.5t14.5 -8t31.5 -5t41 -2.5t42 -5t36 -16q34 -30 29.5 -69.5t-34.5 -72.5q-23 -28 -59.5 -48.5t-80 -25.5
t-90.5 9.5t-90 58.5q-11 11 -14.5 26t-1.5 30t13 27.5t38 12.5q16 -16 33 -24.5t36 -13.5t37 -6.5t32 2.5q-10 3 -32 7.5t-44 14.5t-41 28.5t-26 49.5q-6 24 -3 50.5t14 50.5t31 45t46 34q32 15 67.5 22t70.5 6t68.5 -10t59.5 -26q17 -13 14 -36.5t-14.5 -43t-33 -33.5
t-49.5 -5z" />
    <glyph glyph-name="uni0644" unicode="&#x644;" horiz-adv-x="1085" arabic-form="isolated" 
d="M65 204q-15 68 -4 117.5t37.5 81.5t61.5 45t69 9t60.5 -25t32 -57t-13.5 -82t-66 -94q21 -90 73.5 -140.5t119 -59.5t140 21.5t137 94.5t107.5 160t49 217q3 57 -2 117t-13 121.5t-16 124.5t-9 125q-2 42 19 69t50 32.5t55 -15.5t30 -69q42 -203 47.5 -369.5t-17.5 -298
t-71 -229t-112 -162.5t-139.5 -99t-153.5 -37t-153 22t-138.5 76.5t-111 128t-68.5 175.5z" />
    <glyph glyph-name="uni0645" unicode="&#x645;" horiz-adv-x="853" arabic-form="isolated" 
d="M643 523q-48 -12 -73.5 -33.5t-33.5 -46.5t0 -50.5t31 -45t62.5 -29.5t86.5 -1q5 6 10.5 28.5t5 49.5t-7.5 53t-18.5 44.5t-26.5 27t-36 3.5zM402 301q-13 22 -19 46q-12 45 -3.5 90t34 86t63.5 73t85 51.5t99 21.5q69 1 117 -30.5t74.5 -81t35 -108.5t0 -114
t-33.5 -100.5t-66 -64.5q-42 -19 -97.5 -17t-100.5 11t-98 5q-58 -6 -100 -32.5t-68 -75t-37 -99.5t-9.5 -106.5t16.5 -110t40.5 -100t61 -78.5t77.5 -47q46 -15 61.5 -38t-1 -44t-48.5 -29t-72.5 -3.5t-86 23.5t-89 59.5t-81 103.5t-60.5 157q-28 107 -13 199t60.5 164
t116.5 122q65 45 142 67z" />
    <glyph glyph-name="uni0646" unicode="&#x646;" horiz-adv-x="1076" arabic-form="isolated" 
d="M74 167q-18 49 -21 93t5 77.5t27.5 54.5t45 12.5t45.5 -41t35 -92.5q16 -69 59.5 -121t102.5 -85.5t127 -46.5t132.5 -1.5t119 47t87.5 98.5q35 65 63.5 100t54.5 48t44 -4.5t21.5 -46t-1 -64.5t-18.5 -75q-26 -74 -75 -125.5t-112 -82.5t-135.5 -43t-146.5 -6.5
t-145.5 28.5t-133.5 61.5t-109.5 92.5t-71.5 122zM552 498q22 0 41 -8.5t33 -23.5t22 -35t8 -43q0 -22 -8 -41.5t-22 -34.5t-33 -23.5t-41 -8.5q-46 0 -76.5 32t-30.5 76q0 46 30.5 78t76.5 32z" />
    <glyph glyph-name="uni0647" unicode="&#x647;" horiz-adv-x="616" arabic-form="isolated" 
d="M162 503q17 -6 -0.5 -1.5t-35 11t-33.5 17t-18 30.5q-1 11 3.5 32t13.5 41t23.5 38.5t37.5 15.5q74 -15 143.5 -40t122.5 -52q54 -27 87 -68.5t46.5 -90t11.5 -100.5t-17.5 -101.5t-42 -94.5t-61.5 -79t-78 -54t-89 -19q-49 1 -91.5 27.5t-73 68.5t-46 96t-9 113t37 118
t68.5 92zM275 174q52 2 79.5 28.5t35 62t-4 68t-37.5 46.5q-37 19 -63 11t-44 -30.5t-25.5 -57t-3 -63.5t20 -47.5t42.5 -17.5z" />
    <glyph glyph-name="uni0648" unicode="&#x648;" horiz-adv-x="755" arabic-form="isolated" 
d="M91 -105q66 34 131 69t83 51q-65 -2 -135 37t-101.5 102t-25.5 141t41.5 151.5t97.5 137.5t145 100q98 46 172.5 36t121.5 -60.5t65.5 -130t9 -171t-45.5 -188.5t-101 -183q-74 -98 -152.5 -154t-150.5 -80.5t-129.5 -22t-90 27t-17.5 64t82 73.5zM268 421
q-26 -33 -39.5 -67.5t-13.5 -65.5t13 -56t42.5 -40t78.5 -17.5t114 12.5q40 57 56.5 119.5t12 112.5t-26 81.5t-54.5 37t-80 -20t-103 -96.5z" />
    <glyph glyph-name="uni064A" unicode="&#x64a;" horiz-adv-x="1176" arabic-form="isolated" 
d="M607 124q54 -13 107 -30.5t96.5 -46.5t71.5 -75t29 -113q1 -55 -15 -99t-46 -76t-71 -52t-89 -28q-55 -10 -118 -4.5t-125 27t-123 57.5t-112 87.5t-91 117.5t-60 147q-6 20 -8.5 42.5t1 45t16.5 42t39 29.5q18 6 37.5 4.5t37 -11t30 -25t15.5 -36.5q8 -87 46.5 -151
t92 -107t115 -64.5t116 -22.5t92.5 17t49 52q6 18 -1 28t-28 19t-55.5 16.5t-74.5 18t-83 27t-81 44.5t-68 71t-46 106q-22 90 1 170.5t78 144t132.5 108.5t164.5 67.5t178 21t169 -31.5q36 -11 58 -31.5t32 -45t6 -49t-17 -43.5q-38 -49 -71.5 -63t-66.5 -4
q-129 33 -221 38.5t-152.5 -8t-92 -40.5t-42.5 -60t-4 -70t28.5 -70.5t53.5 -58t70 -32.5zM417 -477q22 0 41.5 -8.5t34 -23.5t22.5 -35t8 -43t-8.5 -42.5t-23 -34t-33.5 -23t-41 -8.5t-41 8.5t-33.5 23t-23 34t-8.5 42.5t8.5 43t23 35t33.5 23.5t41 8.5zM607 -531
q22 0 41 -8.5t33 -23.5t22 -35t8 -43t-8.5 -42.5t-22 -34t-32.5 -23t-41 -8.5q-44 0 -75.5 31.5t-31.5 76.5q0 46 31.5 78t75.5 32z" />
    <glyph glyph-name="uni064B" unicode="&#xfe70;" arabic-form="isolated" 
d="M222 172q-38 -37 -80 -66t-87.5 -47t-95.5 -23t-103 6q-21 5 -28.5 20.5t-3.5 31t17.5 25.5t34.5 5q41 -8 79.5 -2.5t74.5 20.5t68.5 38t61.5 50q15 15 32 13.5t28 -12.5t13.5 -27.5t-11.5 -31.5zM163 307q-38 -37 -80 -65.5t-88 -46t-95.5 -22t-102.5 6.5
q-21 4 -28.5 19.5t-3.5 30.5t18 25.5t35 6.5q41 -9 79.5 -4t74 20t68.5 38.5t63 51.5q15 15 31 13t27.5 -13t13.5 -28.5t-12 -32.5z" />
    <glyph glyph-name="uni064D" unicode="&#xfe74;" arabic-form="isolated" 
d="M-222 72q38 37 80 65.5t88 46t96 22t104 -6.5q20 -5 27 -20t3 -30.5t-17.5 -26t-34.5 -6.5q-41 9 -79.5 4t-74.5 -20t-68.5 -38.5t-61.5 -52.5q-15 -14 -32 -11.5t-28 14t-13.5 28.5t11.5 32zM-163 -66q38 36 80 65t88 47t95.5 23t102.5 -6q21 -5 28.5 -20.5t3.5 -31.5
t-18 -26t-35 -5q-41 8 -79.5 3t-74 -20t-68 -38t-61.5 -50q-15 -16 -32 -14.5t-28.5 13t-13.5 28.5t12 32z" />
    <glyph glyph-name="uni064E" unicode="&#xfe76;" arabic-form="isolated" 
d="M192 172q-39 -37 -81 -66t-87.5 -47t-96 -23t-105.5 6q-20 5 -26 20.5t-2 31t17 25.5t33 5q40 -8 79 -2.5t75.5 20.5t69.5 38t62 50q14 15 31 13.5t28.5 -12.5t14 -27.5t-11.5 -31.5z" />
    <glyph glyph-name="uni064F" unicode="&#xfe78;" arabic-form="isolated" 
d="M-12 118q-23 14 -38 36.5t-15 56.5q-1 38 17.5 69t46.5 47t59.5 11.5t56.5 -37.5q28 -37 33.5 -69.5t-5.5 -60t-35.5 -50t-56.5 -39t-67.5 -28t-68.5 -16.5q-30 -5 -49.5 -4.5t-31.5 3.5t-18.5 8.5t-9.5 10.5q-14 22 -2 31.5t40 13t66.5 6t77.5 11.5zM65 182
q19 18 17.5 36.5t-14.5 29.5t-31.5 10t-34.5 -22q-7 -16 -3.5 -31.5t14 -25.5t24.5 -10.5t28 13.5z" />
    <glyph glyph-name="uni0650" unicode="&#xfe7a;" arabic-form="isolated" 
d="M-193 72q38 37 80 65.5t88 46t96 22t104 -6.5q20 -5 27 -20t3 -30.5t-18 -26t-35 -6.5q-41 9 -79.5 4t-74 -20t-68 -38.5t-61.5 -52.5q-15 -14 -32 -11.5t-28.5 14t-13.5 28.5t12 32z" />
    <glyph glyph-name="uni0651" unicode="&#xfe7c;" arabic-form="isolated" 
d="M85 304q37 -30 53.5 -62.5t17.5 -63t-11 -55.5t-32.5 -38.5t-47 -12.5t-53.5 23q-21 -40 -61 -55t-80.5 -4t-71 49.5t-32.5 106.5q0 18 12 30.5t26.5 14.5t26.5 -8t12 -37q0 -10 4.5 -23.5t12.5 -25t20.5 -18.5t27.5 -4q14 3 17.5 13t1.5 22.5t-7.5 26.5t-8.5 26
q-11 32 -3 51t24 21q20 4 30.5 -6t16.5 -26.5t10 -36t11 -34.5t19.5 -21.5t35.5 3.5q9 4 15.5 11t6.5 16.5t-9.5 22t-32.5 29.5q-17 11 -20.5 25.5t7.5 30.5t29.5 18t32.5 -9z" />
    <glyph glyph-name="uni0652" unicode="&#xfe7e;" arabic-form="isolated" 
d="M-44 253q32 16 59 10.5t46 -24.5t29 -47t8.5 -57t-15 -54.5t-42.5 -38.5q-33 -14 -59.5 -7.5t-45 25t-28 46t-8 55.5t15 53t40.5 39zM43 150q3 21 -10.5 33t-31 13t-33 -9.5t-16.5 -34.5q-1 -20 12.5 -33t30 -15.5t31.5 8.5t17 38z" />
    <glyph glyph-name="uni067E" unicode="&#x67e;" horiz-adv-x="1076" arabic-form="isolated" 
d="M74 167q-18 49 -21 93t5 77.5t27.5 54.5t45 12.5t45.5 -41t35 -92.5q16 -69 59.5 -121t102.5 -85.5t127 -46.5t132.5 -1.5t119 47t87.5 98.5q35 65 63.5 100t54.5 48t44 -4.5t21.5 -46t-1 -64.5t-18.5 -75q-26 -74 -75 -125.5t-112 -82.5t-135.5 -43t-146.5 -6.5
t-145.5 28.5t-133.5 61.5t-109.5 92.5t-71.5 122zM574 -436q-45 0 -75 32t-30 78q0 44 30 76t75 32q46 0 76 -32t30 -76q0 -46 -30 -78t-76 -32zM386 -383q-45 0 -76 32t-31 79q0 44 31 76t76 32t74.5 -32t29.5 -76q0 -47 -29.5 -79t-74.5 -32zM432 -594q-46 0 -76.5 31.5
t-30.5 76.5q0 23 8.5 43t22.5 35t33.5 24t42.5 9q22 0 41.5 -9t33 -24t22 -35t8.5 -43t-8.5 -42.5t-22.5 -34t-33 -23t-41 -8.5z" />
    <glyph glyph-name="uni0686" unicode="&#x686;" horiz-adv-x="1023" arabic-form="isolated" 
d="M50 399q2 63 34.5 101t78.5 55.5t97.5 17.5t95.5 -12q60 -14 125.5 -37t132 -49t131.5 -52t126 -47q15 -6 30.5 -10.5t31 -13.5t27 -24.5t12.5 -39.5q1 -35 -6.5 -55.5t-24 -30.5t-35 -10.5t-36.5 -0.5q-64 -2 -144.5 -19.5t-160 -47.5t-148.5 -71.5t-109 -89.5
q-56 -65 -71.5 -137.5t9 -137t91 -116t178.5 -75.5q48 -11 96 -8.5t91.5 15.5t79 36.5t58.5 56.5q26 37 52.5 46t42.5 -11t16.5 -51t-11.5 -66t-37.5 -72t-68 -67.5t-102.5 -51t-141 -21.5q-122 -2 -216.5 31t-160 91t-100 136t-36 163.5t29.5 173.5t97 167.5t166.5 144.5
t187.5 90q-12 5 -71 29.5t-111.5 40t-93 20t-55.5 -2.5q-2 -23 -25 -46.5t-55 -24.5q-18 -2 -35.5 4.5t-31 17.5t-22.5 27t-9 34zM534 -268q-46 0 -76 32t-30 78q0 44 30 76t76 32q45 0 75 -32t30 -76q0 -46 -30 -78t-75 -32zM722 -215q-45 0 -74.5 32t-29.5 79
q0 44 29.5 76t74.5 32t76 -32t31 -76q0 -47 -31 -79t-76 -32zM676 -426q-22 0 -41 8.5t-33 23t-22.5 34t-8.5 42.5t8.5 43t22 35t33 24t41.5 9q23 0 42.5 -9t33.5 -24t22.5 -35t8.5 -43q0 -45 -30.5 -76.5t-76.5 -31.5z" />
    <glyph glyph-name="uni0698" unicode="&#x698;" horiz-adv-x="729" arabic-form="isolated" 
d="M651 285q-20 -43 -49.5 -95.5t-63.5 -107.5t-71.5 -108.5t-74 -98.5t-70 -79.5t-60.5 -48.5q-28 -16 -64 -17.5t-70.5 6t-65 23.5t-62.5 58q78 31 125 66.5t88 79t76.5 92t66.5 97t61 94t59 80.5q19 24 43.5 44.5t50.5 34t50.5 18t41.5 -11t14 -47t-25 -79.5zM676 707
q44 0 75.5 -32t31.5 -78q0 -45 -31.5 -77t-75.5 -32q-22 0 -41.5 8.5t-33.5 23.5t-22 34.5t-8 42.5q0 46 30.5 78t74.5 32zM487 653q45 0 75 -32t30 -78q0 -45 -30 -77t-75 -32q-46 0 -76.5 32t-30.5 77q0 46 30.5 78t76.5 32zM533 866q22 0 41 -8.5t33.5 -23.5t23 -34.5
t8.5 -42.5t-8.5 -43t-22.5 -35t-33.5 -24t-41.5 -9t-41.5 9t-33.5 24t-22.5 35t-8.5 43q0 45 30.5 77t75.5 32z" />
    <glyph glyph-name="uni06A9" unicode="&#x6a9;" horiz-adv-x="1660" arabic-form="isolated" 
d="M624 736q-48 -24 -83 -14t-47.5 41t-1 70.5t48.5 74.5q31 29 93.5 74.5t143 95t173.5 95.5t183 76.5t172.5 37.5t141.5 -23q16 -8 31 -28t20 -43t-6.5 -45.5t-49.5 -23.5q-114 -1 -209 -25t-173.5 -61t-143 -81t-117.5 -87t-96 -79t-80 -55zM705.5 176.5q71.5 7.5 152 20
t158.5 30.5t148.5 42t122.5 55.5t79.5 67.5t23.5 80q-2 25 -26 46.5t-66 38t-96.5 25.5t-110.5 11q-57 2 -117 -4t-122 -14.5t-125 -16t-126 -8.5q-41 -2 -68 19t-32.5 50.5t15.5 55t68 31.5q233 51 415 52.5t320 -37.5q83 -21 139 -53t99.5 -70t20 -171.5t-150.5 -221.5
t-215 -121q-127 -48 -307 -75q-130 -20 -284 -32t-245.5 22t-168 109t-124.5 190q-26 65 -24 116t23 86.5t53.5 55t66.5 21t64 -15t41.5 -51t0.5 -83t-49 -104.5q36 -86 97 -126q51 -34 164.5 -31t185 10.5z" />
    <glyph glyph-name="uni06AF" unicode="&#x6af;" horiz-adv-x="1660" arabic-form="isolated" 
d="M594 736q-48 -24 -83 -14t-47.5 41t-1 70.5t48.5 74.5q31 29 93.5 74.5t143 95t173.5 95.5t183 76.5t172.5 37.5t141.5 -23q16 -8 31 -28t20 -43t-6.5 -45.5t-49.5 -23.5q-114 -1 -209 -25t-173.5 -61t-143 -81t-117.5 -87t-96 -79t-80 -55zM705.5 176.5q71.5 7.5 152 20
t158.5 30.5t148.5 42t122.5 55.5t79.5 67.5t23.5 80q-2 25 -26 46.5t-66 38t-96.5 25.5t-110.5 11q-57 2 -117 -4t-122 -14.5t-125 -16t-126 -8.5q-41 -2 -68 19t-32.5 50.5t15.5 55t68 31.5q233 51 415 52.5t320 -37.5q83 -21 139 -53t99.5 -70t20 -171.5t-150.5 -221.5
t-215 -121q-127 -48 -307 -75q-130 -20 -284 -32t-245.5 22t-168 109t-124.5 190q-26 65 -24 116t23 86.5t53.5 55t66.5 21t64 -15t41.5 -51t0.5 -83t-49 -104.5q36 -86 97 -126q51 -34 164.5 -31t185 10.5zM521 971q-23 -13 -38.5 -5.5t-19.5 27.5t3 44.5t26 45.5
q15 18 88 65t117.5 73t86.5 43q20 7 37 8.5t28 -3.5q26 -14 20 -53q-9 -29 -34 -42q-194 -114 -243 -152q-53 -40 -71 -51z" />
    <glyph glyph-name="uni06CC" unicode="&#x6cc;" horiz-adv-x="1105" arabic-form="isolated" 
d="M607 124q54 -13 107 -30.5t96.5 -46.5t71.5 -75t29 -113q1 -55 -15 -99t-46 -76t-71 -52t-89 -28q-55 -10 -118 -4.5t-125 27t-123 57.5t-112 87.5t-91 117.5t-60 147q-6 20 -8.5 42.5t1 45t16.5 42t39 29.5q18 6 37.5 4.5t37 -11t30 -25t15.5 -36.5q8 -87 46.5 -151
t92 -107t115 -64.5t116 -22.5t92.5 17t49 52q6 18 -1 28t-28 19t-55.5 16.5t-74.5 18t-83 27t-81 44.5t-68 71t-46 106q-22 90 1 170.5t78 144t132.5 108.5t164.5 67.5t178 21t169 -31.5q36 -11 58 -31.5t32 -45t6 -49t-17 -43.5q-38 -49 -71.5 -63t-66.5 -4
q-129 33 -221 38.5t-152.5 -8t-92 -40.5t-42.5 -60t-4 -70t28.5 -70.5t53.5 -58t70 -32.5z" />
    <glyph glyph-name="uniFB57" unicode="&#x67e;" horiz-adv-x="1223" arabic-form="final" 
d="M83 168q-18 49 -21 93t5 77.5t27.5 54.5t45.5 12.5t46 -41t35 -92.5q17 -69 60.5 -121.5t102.5 -86.5t127.5 -46.5t133 -1.5t119 47t88.5 99q36 68 65 103.5t57 47t44.5 -9.5t18.5 -49q9 -15 24 -32.5t37 -30.5t52.5 -21t72.5 -8q37 0 62 -26.5t25 -63.5q0 -36 -25 -63
t-62 -27q-30 0 -62.5 8t-64.5 22t-62.5 32t-38.5 25q-21 -46 -72.5 -92.5t-114.5 -74.5t-135 -37t-144 -2t-141.5 31t-129 62.5t-105.5 92t-70 119.5zM574 -436q-45 0 -75 32t-30 78q0 44 30 76t75 32q46 0 76 -32t30 -76q0 -46 -30 -78t-76 -32zM386 -383q-45 0 -76 32
t-31 79q0 44 31 76t76 32t74.5 -32t29.5 -76q0 -47 -29.5 -79t-74.5 -32zM432 -594q-46 0 -76.5 31.5t-30.5 76.5q0 23 8.5 43t22.5 35t33.5 24t42.5 9q22 0 41.5 -9t33 -24t22 -35t8.5 -43t-8.5 -42.5t-22.5 -34t-33 -23t-41 -8.5z" />
    <glyph glyph-name="uniFB58" unicode="&#x67e;" horiz-adv-x="310" arabic-form="initial" 
d="M0 162q9 0 26 3t35 9.5t34 14.5t24.5 16.5t9.5 15t-7 16.5q-39 48 -50 87.5t-1.5 69.5t34.5 47t53.5 17.5t54.5 -15t36 -49.5q7 -24 16.5 -43t18.5 -39.5t15 -45t6 -57.5q-1 -60 -31 -103t-75 -70.5t-97.5 -40.5t-101.5 -13q-38 0 -63 27t-25 63q0 37 25.5 63.5
t62.5 26.5zM104 -274q-42 0 -69 29t-27 71q0 39 27 68t69 29q40 0 67.5 -29t27.5 -68q0 -42 -27.5 -71t-67.5 -29zM274 -226q-41 0 -67.5 29t-26.5 71q0 40 26.5 69t67.5 29q40 0 68 -29t28 -69q0 -42 -28 -71t-68 -29zM232 -417q-20 0 -37 8t-29.5 21t-20.5 30.5t-8 38.5
t8 39t20 31.5t29.5 21.5t37.5 8q21 0 38.5 -8t30.5 -21.5t20.5 -31.5t7.5 -39q0 -41 -27.5 -69.5t-69.5 -28.5z" />
    <glyph glyph-name="uniFB59" unicode="&#x67e;" horiz-adv-x="584" arabic-form="medial" 
d="M584 -18q-42 0 -87 14.5t-87.5 38.5t-79 54t-40.5 35q-4 -14 -37.5 -47t-75.5 -54t-88.5 -31t-88.5 -10q-37 0 -61.5 26.5t-24.5 63.5t24.5 63.5t61.5 26.5q57 -1 86 13t40 36t8.5 54t-12 69t-23 75t-22.5 70q-11 39 -7 66t19.5 42.5t38 16.5t43.5 -8t39 -26.5t28 -41.5
q16 -40 35 -83t41.5 -84t49.5 -77.5t60 -63.5t72.5 -42.5t87.5 -15.5q37 0 62.5 -26.5t25.5 -63.5q0 -36 -25.5 -63t-62.5 -27zM233 -342q-44 0 -73 31t-29 75q0 42 29 73t73 31q43 0 72 -31t29 -73q0 -44 -29 -75t-72 -31zM414 -291q-43 0 -71.5 31t-28.5 76q0 42 28.5 73
t71.5 31t73 -31t30 -73q0 -45 -30 -76t-73 -31zM370 -494q-22 0 -40 8.5t-31.5 22.5t-21.5 32.5t-8 40.5t8 41.5t21 34t31.5 23t40.5 8.5t40.5 -8.5t32 -23t22 -34t8.5 -41.5q0 -43 -29.5 -73.5t-73.5 -30.5z" />
    <glyph glyph-name="uniFB7B" unicode="&#x686;" horiz-adv-x="991" arabic-form="final" 
d="M60 401q3 63 35 101t78 55.5t97.5 18t97.5 -11.5q60 -15 125.5 -38t132 -49t131.5 -52.5t127 -47.5q15 -6 31 -10.5t31 -13t26.5 -24t12.5 -40.5q2 -35 -5.5 -55.5t-24 -30.5t-35.5 -10.5t-36 -0.5q-16 -1 -18 0q21 -14 51 -22t74 -8q37 0 62.5 -26.5t25.5 -63.5
t-24.5 -63.5t-60.5 -26.5q-108 -1 -194 48.5t-136 121.5q-119 -26 -211 -80t-144 -120t-64.5 -136.5t13.5 -134t92.5 -113.5t176.5 -73q48 -11 96.5 -9t92 15.5t79 37t58.5 56.5q27 37 53 46t42 -10.5t17 -50.5t-11 -66.5t-38 -72.5t-68.5 -68t-102.5 -51t-141 -22
q-123 -2 -218 31t-161 91.5t-100.5 136.5t-36 164t29.5 174.5t97.5 168t167 145t188.5 91.5q-12 4 -71.5 28.5t-112.5 40.5t-93.5 20.5t-54.5 -3.5q-3 -22 -26 -45t-56 -26q-18 -3 -35 4t-30.5 18t-22.5 27t-9 35zM534 -268q-46 0 -76 32t-30 78q0 44 30 76t76 32
q45 0 75 -32t30 -76q0 -46 -30 -78t-75 -32zM722 -215q-45 0 -74.5 32t-29.5 79q0 44 29.5 76t74.5 32t76 -32t31 -76q0 -47 -31 -79t-76 -32zM676 -426q-22 0 -41 8.5t-33 23t-22.5 34t-8.5 42.5t8.5 43t22 35t33 24t41.5 9q23 0 42.5 -9t33.5 -24t22.5 -35t8.5 -43
q0 -45 -30.5 -76.5t-76.5 -31.5z" />
    <glyph glyph-name="uniFB7C" unicode="&#x686;" horiz-adv-x="989" arabic-form="initial" 
d="M38 401q3 63 35.5 101t78.5 55.5t97 18t96 -11.5q60 -15 125.5 -38t132.5 -49t132 -52.5t127 -47.5q14 -6 30 -10.5t31.5 -13t26.5 -23.5t14 -41q1 -35 -6.5 -55.5t-24.5 -30.5t-35.5 -10.5t-37.5 -0.5q-59 -2 -126.5 -17.5t-141 -38.5t-149.5 -50t-152 -50t-149.5 -38.5
t-140.5 -15.5q-36 0 -61.5 26.5t-25.5 63.5t25 63.5t61 26.5q92 5 164.5 18.5t139 33.5t136 46t111.5 40q-15 6 -74.5 30.5t-112 40.5t-93.5 20.5t-55 -3.5q-2 -22 -25.5 -45t-56.5 -26q-18 -3 -35 4t-30 18t-22 27t-9 35zM534 -268q-46 0 -76 32t-30 78q0 44 30 76t76 32
q45 0 75 -32t30 -76q0 -46 -30 -78t-75 -32zM722 -215q-45 0 -74.5 32t-29.5 79q0 44 29.5 76t74.5 32t76 -32t31 -76q0 -47 -31 -79t-76 -32zM676 -426q-22 0 -41 8.5t-33 23t-22.5 34t-8.5 42.5t8.5 43t22 35t33 24t41.5 9q23 0 42.5 -9t33.5 -24t22.5 -35t8.5 -43
q0 -45 -30.5 -76.5t-76.5 -31.5z" />
    <glyph glyph-name="uniFB7D" unicode="&#x686;" horiz-adv-x="970" arabic-form="medial" 
d="M37 401q3 63 36 101t79 55.5t97 18t96 -11.5q60 -15 125.5 -38t132.5 -49t132 -52.5t127 -47.5q14 -6 30 -10.5t31.5 -13t26.5 -23.5t14 -41q1 -35 -6.5 -55.5t-24.5 -30.5t-35.5 -10.5t-36.5 -0.5q-17 -1 -17 0q21 -14 51 -22t75 -8q37 0 62 -26.5t25 -63.5t-25 -63.5
t-61 -26.5q-107 -1 -193.5 48.5t-135.5 120.5q-60 -17 -142 -46.5t-167.5 -56.5t-170 -46.5t-161.5 -19.5q-37 0 -61.5 26.5t-24.5 63.5t24.5 63.5t60.5 26.5q92 5 164.5 18.5t139.5 33.5t137 46t111 40q-15 6 -74.5 30.5t-112.5 40.5t-93.5 20.5t-54.5 -3.5q-2 -22 -26 -45
t-56 -26q-18 -2 -35.5 4.5t-31 17.5t-22.5 27t-9 35zM385 -337q-46 0 -76 32t-30 78q0 44 30 76t76 32q45 0 75 -32t30 -76q0 -46 -30 -78t-75 -32zM573 -267q-45 0 -74.5 32t-29.5 79q0 44 29.5 76t74.5 32t76 -32t31 -76q0 -47 -31 -79t-76 -32zM527 -478q-22 0 -41 8.5
t-33 23t-22.5 34t-8.5 42.5t8.5 43t22 35t33 24t41.5 9q23 0 42.5 -9t33.5 -24t22.5 -35t8.5 -43q0 -45 -30.5 -76.5t-76.5 -31.5z" />
    <glyph glyph-name="uniFB8B" unicode="&#x698;" horiz-adv-x="807" arabic-form="final" 
d="M807 162q37 0 62 -26.5t25 -63.5q0 -36 -25 -63t-62 -27q-35 0 -72.5 10.5t-74 28t-69.5 40.5t-44 33q-24 -40 -64 -98.5t-79.5 -108.5t-75.5 -87t-65 -54q-28 -16 -64 -17.5t-71 6t-65.5 23.5t-62.5 58q94 38 146.5 78t92 87.5t70.5 99.5t60.5 104t63 102.5t77.5 91.5
q32 30 48.5 12.5t25.5 -44t20 -58.5t34.5 -60t63 -47.5t105.5 -19.5zM487 707q44 0 74.5 -32t30.5 -78q0 -23 -8 -42.5t-22 -34.5t-33.5 -23.5t-41.5 -8.5q-44 0 -75.5 32t-31.5 77q0 46 31.5 78t75.5 32zM676 653q46 0 76.5 -32t30.5 -78q0 -45 -30.5 -77t-76.5 -32
q-45 0 -75 32t-30 77q0 46 30 78t75 32zM630 866q45 0 75.5 -32t30.5 -77q0 -23 -8.5 -43t-22.5 -35t-33.5 -24t-41.5 -9t-41.5 9t-33.5 24t-22.5 35t-8.5 43t8.5 42.5t23 34.5t33.5 23.5t41 8.5z" />
    <glyph glyph-name="uniFB8F" unicode="&#x6a9;" horiz-adv-x="1912" arabic-form="final" 
d="M636 736q-48 -24 -83 -14t-47.5 41t-1 70.5t48.5 74.5q31 29 93.5 74.5t143 95t173.5 95.5t183 76.5t172.5 37.5t141.5 -23q16 -8 31 -28t20 -43t-6.5 -45.5t-49.5 -23.5q-114 -1 -209 -25t-173.5 -61t-143 -81t-117.5 -87t-96 -79t-80 -55zM388 -1q-92 34 -168.5 109
t-124.5 190q-26 65 -24 116t23 86.5t53.5 55t66.5 21t64 -15t41.5 -51t0.5 -83t-49 -104.5q36 -86 97 -126q43 -28 160.5 -28t189 7.5t152 20t158.5 30.5t148.5 42t122.5 55.5t79.5 67.5t23.5 80q-2 25 -26 46.5t-66 38t-96.5 25.5t-110.5 11q-57 2 -117 -4t-122 -14.5
t-125 -16t-126 -8.5q-41 -2 -68 19t-32.5 50.5t15.5 55t68 31.5q233 51 415 52.5t320 -37.5q83 -21 139 -53t88 -71t40 -84t-2 -84q21 -47 50 -96t66.5 -87t83.5 -61t105 -23q37 0 61.5 -26.5t24.5 -63.5q0 -36 -24.5 -63t-61.5 -27q-84 0 -147.5 26.5t-111.5 70t-84.5 98.5
t-53.5 89q-36 -43 -114 -96t-166 -86q-127 -48 -307 -75t-331.5 -27t-197.5 17z" />
    <glyph glyph-name="uniFB90" unicode="&#x6a9;" horiz-adv-x="803" arabic-form="initial" 
d="M-155 985q39 14 95 20t123.5 14.5t144.5 23.5t158 46t164 82.5t163 132.5q27 26 50.5 20t36.5 -26t18 -44.5t-1 -41.5q-14 -49 -53.5 -91.5t-95.5 -79t-123 -67.5t-138.5 -56.5t-143 -45.5t-134.5 -34.5t-114.5 -22.5t-82.5 -9q-52 -2 -88.5 17.5t-50 50t4 62.5t67.5 49z
M-63 667q-32 33 -34 63.5t16.5 50t47.5 27t57.5 0t51 -30t26.5 -63.5q1 -17 22 -52t49 -84.5t56.5 -108.5t43 -124.5t6.5 -134.5t-51 -136q-62 -92 -220 -92q-37 0 -62.5 27t-25.5 63q0 37 25.5 63.5t62.5 26.5q11 0 32.5 4t42.5 12t35.5 18t17.5 20q5 15 -0.5 48t-20 75
t-35.5 90t-45 93t-49.5 83t-48.5 62z" />
    <glyph glyph-name="uniFB91" unicode="&#x6a9;" horiz-adv-x="1404" arabic-form="medial" 
d="M139 736q-48 -24 -83 -14t-47.5 41t-1 70.5t48.5 74.5q31 29 93.5 74.5t143 95t173.5 95.5t183 76.5t172.5 37.5t141.5 -23q16 -8 31 -28t20 -43t-6.5 -45.5t-49.5 -23.5q-114 -1 -209 -25t-173.5 -61t-143 -81t-117.5 -87t-96 -79t-80 -55zM0 -18q-37 0 -62.5 26.5
t-25.5 63.5t25.5 63.5t62.5 26.5q32 0 90.5 3.5t130 11t152 20t158.5 30.5t148.5 42t122.5 55.5t79.5 67.5t23.5 80q-2 25 -26 46.5t-66 38t-96.5 25.5t-110.5 11q-57 2 -117 -4t-122 -14.5t-125 -16t-126 -8.5q-41 -2 -68 19t-32.5 50.5t15.5 55t68 31.5q233 51 415 52.5
t320 -37.5q83 -21 139 -53t88 -71t40 -84t-2 -84q21 -47 50 -96t66.5 -87t83.5 -61t105 -23q37 0 61.5 -26.5t24.5 -63.5q0 -36 -24.5 -63t-61.5 -27q-84 0 -147.5 26.5t-111.5 70t-84.5 98.5t-53.5 89q-36 -43 -114 -96t-166 -86q-127 -48 -307 -75t-420 -27z" />
    <glyph glyph-name="uniFB93" unicode="&#x6af;" horiz-adv-x="1912" arabic-form="final" 
d="M616 736q-48 -24 -83 -14t-47.5 41t-1 70.5t48.5 74.5q31 29 93.5 74.5t143 95t173.5 95.5t183 76.5t172.5 37.5t141.5 -23q16 -8 31 -28t20 -43t-6.5 -45.5t-49.5 -23.5q-114 -1 -209 -25t-173.5 -61t-143 -81t-117.5 -87t-96 -79t-80 -55zM388 -1q-92 34 -168.5 109
t-124.5 190q-26 65 -24 116t23 86.5t53.5 55t66.5 21t64 -15t41.5 -51t0.5 -83t-49 -104.5q36 -86 97 -126q43 -28 160.5 -28t189 7.5t152 20t158.5 30.5t148.5 42t122.5 55.5t79.5 67.5t23.5 80q-2 25 -26 46.5t-66 38t-96.5 25.5t-110.5 11q-57 2 -117 -4t-122 -14.5
t-125 -16t-126 -8.5q-41 -2 -68 19t-32.5 50.5t15.5 55t68 31.5q233 51 415 52.5t320 -37.5q83 -21 139 -53t88 -71t40 -84t-2 -84q21 -47 50 -96t66.5 -87t83.5 -61t105 -23q37 0 61.5 -26.5t24.5 -63.5q0 -36 -24.5 -63t-61.5 -27q-84 0 -147.5 26.5t-111.5 70t-84.5 98.5
t-53.5 89q-36 -43 -114 -96t-166 -86q-127 -48 -307 -75t-331.5 -27t-197.5 17zM556 990q-23 -13 -38.5 -5.5t-19.5 27.5t3 44.5t26 45.5q15 18 88 65t117.5 73t86.5 43q20 7 37 8.5t28 -3.5q26 -14 20 -53q-9 -29 -34 -42q-194 -114 -243 -152q-53 -40 -71 -51z" />
    <glyph glyph-name="uniFB94" unicode="&#x6af;" horiz-adv-x="803" arabic-form="initial" 
d="M-155 985q39 14 95 20t123.5 14.5t144.5 23.5t158 46t164 82.5t163 132.5q27 26 50.5 20t36.5 -26t18 -44.5t-1 -41.5q-14 -49 -53.5 -91.5t-95.5 -79t-123 -67.5t-138.5 -56.5t-143 -45.5t-134.5 -34.5t-114.5 -22.5t-82.5 -9q-52 -2 -88.5 17.5t-50 50t4 62.5t67.5 49z
M-63 667q-32 33 -34 63.5t16.5 50t47.5 27t57.5 0t51 -30t26.5 -63.5q1 -17 22 -52t49 -84.5t56.5 -108.5t43 -124.5t6.5 -134.5t-51 -136q-62 -92 -220 -92q-37 0 -62.5 27t-25.5 63q0 37 25.5 63.5t62.5 26.5q11 0 32.5 4t42.5 12t35.5 18t17.5 20q5 15 -0.5 48t-20 75
t-35.5 90t-45 93t-49.5 83t-48.5 62zM49 1055q-19 5 -25 19t-2.5 28.5t16 24t31.5 4.5q36 -7 110 10.5t107 32.5t61 41q13 13 28 12t26 -11.5t14 -25.5t-10 -29q-38 -36 -80 -57t-134.5 -40t-141.5 -9z" />
    <glyph glyph-name="uniFB95" unicode="&#x6af;" horiz-adv-x="1404" arabic-form="medial" 
d="M119 736q-48 -24 -83 -14t-47.5 41t-1 70.5t48.5 74.5q31 29 93.5 74.5t143 95t173.5 95.5t183 76.5t172.5 37.5t141.5 -23q16 -8 31 -28t20 -43t-6.5 -45.5t-49.5 -23.5q-114 -1 -209 -25t-173.5 -61t-143 -81t-117.5 -87t-96 -79t-80 -55zM0 -18q-37 0 -62.5 26.5
t-25.5 63.5t25.5 63.5t62.5 26.5q32 0 90.5 3.5t130 11t152 20t158.5 30.5t148.5 42t122.5 55.5t79.5 67.5t23.5 80q-2 25 -26 46.5t-66 38t-96.5 25.5t-110.5 11q-57 2 -117 -4t-122 -14.5t-125 -16t-126 -8.5q-41 -2 -68 19t-32.5 50.5t15.5 55t68 31.5q233 51 415 52.5
t320 -37.5q83 -21 139 -53t88 -71t40 -84t-2 -84q21 -47 50 -96t66.5 -87t83.5 -61t105 -23q37 0 61.5 -26.5t24.5 -63.5q0 -36 -24.5 -63t-61.5 -27q-84 0 -147.5 26.5t-111.5 70t-84.5 98.5t-53.5 89q-36 -43 -114 -96t-166 -86q-127 -48 -307 -75t-420 -27zM72 990
q-23 -13 -38.5 -5.5t-19.5 27.5t3 44.5t26 45.5q15 18 88 65t117.5 73t86.5 43q20 7 37 8.5t28 -3.5q26 -14 20 -53q-9 -29 -34 -42q-194 -114 -243 -152q-53 -40 -71 -51z" />
    <glyph glyph-name="uniFBFD" unicode="&#x6cc;" horiz-adv-x="1081" arabic-form="final" 
d="M984 -21l2 2l2 -5q19 -81 7 -142t-46 -104.5t-85.5 -70.5t-112.5 -39t-128.5 -10t-134.5 16q-116 25 -199.5 72.5t-136.5 109t-75 133.5t-14.5 144.5t43 141t96.5 123t147 92.5t194 49q35 4 73 4.5t77 -2.5q22 -3 25 -20t-1 -33t-11 -33t-16 -32t-21 -27.5t-26 -12.5
q-102 -3 -184.5 -36t-136.5 -81t-76 -106t-6 -112.5t75.5 -102.5t173.5 -77q22 -5 56.5 -9.5t73.5 -5.5t78 4.5t68.5 17t46 31t17.5 49.5q1 18 -15 34t-44 30.5t-64.5 25t-71 17.5t-63 11.5t-40.5 6.5q-46 10 -74 26.5t-41.5 37.5t-13 42.5t11.5 39t29.5 27t39.5 5.5
q79 -16 133 -26t96 -15t77 -7t75 -2t92 1t126 1q39 0 62 -25t25.5 -56t-14.5 -60.5t-55 -37.5q-11 -2 -31 -2.5t-40.5 -1.5t-34.5 -2t-10 2z" />
    <glyph glyph-name="uniFBFE" unicode="&#x6cc;" horiz-adv-x="372" arabic-form="initial" 
d="M0 162q9 0 26 3t35 9.5t34 14.5t24.5 16.5t9.5 15t-7 16.5q-39 48 -50 87.5t-1.5 69.5t34.5 47t53.5 17.5t54.5 -15t36 -49.5q7 -24 16.5 -43t18.5 -39.5t15 -45t6 -57.5q-1 -60 -31 -103t-75 -70.5t-97.5 -40.5t-101.5 -13q-38 0 -63 27t-25 63q0 37 25.5 63.5
t62.5 26.5zM85 -61q45 0 76 -32.5t31 -78.5q0 -45 -31 -77t-76 -32t-76 32t-31 77q0 46 31 78.5t76 32.5zM275 -115q45 0 76 -32t31 -77q0 -46 -31 -78.5t-76 -32.5q-44 0 -75 32.5t-31 78.5q0 23 8.5 42.5t22.5 34.5t33.5 23.5t41.5 8.5z" />
    <glyph glyph-name="uniFBFF" unicode="&#x6cc;" horiz-adv-x="584" arabic-form="medial" 
d="M584 -18q-42 0 -87 14.5t-87.5 38.5t-79 54t-40.5 35q-4 -14 -37.5 -47t-75.5 -54t-88.5 -31t-88.5 -10q-37 0 -61.5 26.5t-24.5 63.5t24.5 63.5t61.5 26.5q57 -1 86 13t40 36t8.5 54t-12 69t-23 75t-22.5 70q-11 39 -7 66t19.5 42.5t38 16.5t43.5 -8t39 -26.5t28 -41.5
q16 -40 35 -83t41.5 -84t49.5 -77.5t60 -63.5t72.5 -42.5t87.5 -15.5q37 0 62.5 -26.5t25.5 -63.5q0 -36 -25.5 -63t-62.5 -27zM166 -61q45 0 75.5 -32.5t30.5 -78.5q0 -45 -30.5 -77t-75.5 -32q-46 0 -76.5 32t-30.5 77q0 46 30.5 78.5t76.5 32.5zM355 -115q45 0 76 -32
t31 -77q0 -46 -31 -78.5t-76 -32.5q-44 0 -74.5 32.5t-30.5 78.5q0 23 8.5 42.5t22 34.5t33 23.5t41.5 8.5z" />
    <glyph glyph-name="uniFE82" unicode="&#x622;" horiz-adv-x="451" arabic-form="final" 
d="M103 776q0 65 21 99.5t52 33.5t52.5 -34.5t24.5 -89.5q4 -81 10 -142t13 -117.5t17 -117.5t21 -142q4 -26 11 -45t20.5 -31.5t38.5 -20t67 -7.5q36 0 62 -26.5t26 -63.5q0 -36 -25.5 -63t-62.5 -27q-95 0 -161.5 31.5t-100.5 85.5q-16 27 -28.5 78t-21.5 114t-15.5 134
t-11 137t-7 122.5t-2.5 91.5zM483 965q-45 2 -93.5 2.5t-175.5 6t-165.5 -7t-72.5 -30.5q-18 -10 -38.5 -1.5t-34.5 26t-20 41.5t5 69q12 46 43 64.5t70.5 20t169 -6t225.5 -1t139 18.5q22 0 30.5 -17.5t8.5 -37.5t-4.5 -50.5t-14.5 -50t-28 -33.5t-44 -13z" />
    <glyph glyph-name="uniFE84" unicode="&#x623;" horiz-adv-x="467" arabic-form="final" 
d="M303 1227q-11 4 -34.5 8.5t-47.5 5t-40 -4.5t-19 -16q-4 -12 -0.5 -16.5t14.5 -8t30.5 -4.5t41.5 -2.5t43.5 -5.5t36.5 -16q34 -30 29.5 -69t-33.5 -74q-24 -28 -61 -48.5t-81.5 -25.5t-91 10t-89.5 59q-11 11 -14.5 27t-0.5 30.5t13 27t37 12.5q16 -16 33.5 -25
t36.5 -14.5t37 -6.5t31 3q-9 3 -31 7.5t-44.5 14.5t-41 28.5t-25.5 49.5q-6 25 -3 51.5t13.5 51t30 45.5t46.5 34q32 15 67.5 21.5t71.5 5.5t69.5 -10t59.5 -26q16 -13 13.5 -36.5t-14.5 -43.5t-33.5 -34t-49.5 -5zM119 776q0 65 21.5 99.5t52 33.5t52.5 -34.5t24 -89.5
q3 -81 9 -142t14 -117.5t18 -117.5t21 -142q4 -26 11 -45t20.5 -31.5t38.5 -20t66 -7.5q37 0 62 -26.5t25 -63.5q0 -36 -25 -63t-62 -27q-95 0 -161 31.5t-100 85.5q-16 27 -28.5 78t-22 114t-16 134t-11 137t-7 122.5t-2.5 91.5z" />
    <glyph glyph-name="uniFE86" unicode="&#x624;" horiz-adv-x="782" arabic-form="final" 
d="M97 -106q68 35 133 70t83 51q-65 -2 -135.5 37t-102 102.5t-25.5 141.5t42 152t98 138.5t146 100.5q85 40 152.5 37.5t115 -38t73.5 -96.5t31 -135t-11 -157t-42 -141q16 0 56.5 2.5t70.5 2.5q36 0 61.5 -26.5t25.5 -63.5q0 -36 -25.5 -63t-61.5 -27h-36.5h-56.5t-68 1
t-63 2q-68 -92 -147.5 -149t-152 -82.5t-132 -23.5t-92.5 26t-18.5 64t81.5 74zM277 423q-39 -50 -52 -99t5 -84.5t75 -55.5t156 -9q39 57 56.5 120.5t14 115t-24 85t-52 41t-77.5 -17t-101 -96.5zM574 1070q-11 4 -34.5 8.5t-47.5 5t-40 -4.5t-19 -16q-4 -12 -0.5 -16.5
t14.5 -8t31 -4.5t41.5 -2.5t42.5 -5.5t36 -16q35 -30 30 -69t-35 -75q-24 -28 -61 -48t-80.5 -25t-90.5 10t-90 59q-11 11 -14.5 27t-0.5 30.5t13.5 27.5t37.5 10q15 -15 32.5 -24t37 -14t37.5 -6.5t31 1.5q-10 5 -32 9t-44 14t-40.5 28.5t-26.5 50.5q-6 25 -3 51.5t14 51
t31 45.5t47 34q31 15 66.5 21.5t71 5.5t69 -10t59.5 -26q17 -13 14 -36.5t-14.5 -43.5t-33 -34t-49.5 -5z" />
    <glyph glyph-name="uniFE88" unicode="&#x625;" horiz-adv-x="391" arabic-form="final" 
d="M325 -300q-11 2 -35 6.5t-48.5 5t-40.5 -4.5t-19 -16q-4 -12 -1 -16t14.5 -7.5t31.5 -5t41.5 -3t43 -5.5t36.5 -16q35 -27 29 -67.5t-34 -74.5q-24 -28 -61 -48.5t-80.5 -25.5t-91 10t-88.5 59q-12 10 -15.5 26.5t-0.5 31t13 26.5t35 12q18 -16 35.5 -25t36.5 -14
t37 -6.5t31 2.5q-10 4 -32 8.5t-44 14.5t-41 28.5t-26 50.5q-6 24 -2.5 50.5t14.5 50.5t30.5 45t46.5 34q31 15 67 22t71.5 6t69 -10t58.5 -27q18 -11 15 -35t-14.5 -43.5t-33 -33.5t-48.5 -5zM43 943q0 65 20.5 99t51.5 33t53.5 -35t24.5 -90q4 -81 10 -168t14 -175
t18 -174.5t21 -167.5q3 -25 10 -44t20.5 -31.5t38.5 -20t66 -7.5q37 0 62.5 -26.5t25.5 -63.5q0 -36 -25 -63t-63 -27q-95 0 -161 31.5t-100 86.5q-12 20 -22 61.5t-18 96t-15 119t-12 132t-8.5 134t-6 124.5t-4 104t-1.5 72z" />
    <glyph glyph-name="uniFE8A" unicode="&#x626;" horiz-adv-x="1082" arabic-form="final" 
d="M984 -21l2 2l2 -5q19 -81 7 -142t-46 -104.5t-85.5 -70.5t-112.5 -39t-128.5 -10t-134.5 16q-116 25 -199.5 72.5t-136.5 109t-75 133.5t-14.5 144.5t43 141t96.5 123t147 92.5t194 49q35 4 73 4.5t77 -2.5q22 -3 25 -20t-1 -33t-11 -33t-16 -32t-21 -27.5t-26 -12.5
q-102 -3 -184.5 -36t-136.5 -81t-76 -106t-6 -112.5t75.5 -102.5t173.5 -77q22 -5 56.5 -9.5t73.5 -5.5t78 4.5t68.5 17t46 31t17.5 49.5q1 18 -15 34t-44 30.5t-64.5 25t-71 17.5t-63 11.5t-40.5 6.5q-46 10 -74 26.5t-41.5 37.5t-13 42.5t11.5 39t29.5 27t39.5 5.5
q79 -16 133 -26t96 -15t77 -7t75 -2t92 1t126 1q39 0 62 -25t25.5 -56t-14.5 -60.5t-55 -37.5q-11 -2 -31 -2.5t-40.5 -1.5t-34.5 -2t-10 2zM643 847q-11 4 -34.5 8t-48 4t-41 -5t-20.5 -15q-4 -15 7 -20.5t40.5 -8t64 -4.5t56.5 -20q34 -28 29 -68.5t-34 -74.5
q-24 -28 -61 -48.5t-81 -25.5t-91 10.5t-89 59.5q-12 10 -15.5 26t-1 30.5t13 27.5t37.5 10q17 -15 34 -23.5t36 -13.5t37 -6.5t32 1.5q-10 5 -32 9t-44 14t-40.5 28.5t-25.5 50.5q-6 24 -3 50.5t14 50.5t30.5 45.5t46.5 34.5q30 15 66 22t72 5.5t69.5 -10.5t58.5 -27
q18 -11 15 -34.5t-14.5 -43.5t-33 -34t-49.5 -5z" />
    <glyph glyph-name="uniFE8B" unicode="&#x626;" horiz-adv-x="336" arabic-form="initial" 
d="M0 162q10 0 27 3t34.5 9.5t34 14.5t24.5 16.5t9 15t-7 16.5q-39 48 -49.5 87.5t-1.5 69.5t34.5 47t53.5 17.5t54.5 -15t36.5 -49.5q6 -24 16 -43t18.5 -39.5t14.5 -45t6 -57.5q-1 -60 -31 -103t-75 -70.5t-97 -40.5t-102 -13q-37 0 -62.5 27t-25.5 63q0 37 26 63.5
t62 26.5zM229 816q-10 2 -33.5 7t-48 5t-40.5 -5t-19 -16q-4 -11 -1 -15.5t14.5 -8t31 -4.5t41 -2t43 -5t36.5 -16q34 -29 30 -69.5t-34 -74.5q-24 -28 -61 -48.5t-81 -25.5t-90.5 10t-89.5 59q-11 11 -14.5 27.5t-0.5 31t13.5 27t35.5 9.5q17 -15 34 -24t36 -14t37 -6.5
t31 2.5q-9 5 -31 9t-44 14t-40.5 28.5t-25.5 50.5q-7 23 -4 50t14 51t30.5 45t46.5 34q31 16 67 23t72 5.5t69 -10.5t58 -26q17 -11 15 -35t-14 -44t-33.5 -34t-49.5 -5z" />
    <glyph glyph-name="uniFE8C" unicode="&#x626;" horiz-adv-x="583" arabic-form="medial" 
d="M583 -18q-41 0 -86.5 14.5t-88 38.5t-79 54t-39.5 35q-5 -14 -38.5 -47t-75.5 -54t-88.5 -31t-88.5 -10q-36 0 -61 26.5t-25 63.5t25 63.5t62 26.5q56 -1 85 13t40 36t9 54t-12 69t-23.5 75t-22.5 70q-11 39 -6.5 66t19.5 42.5t38 16.5t44 -8t39 -26.5t27 -41.5
q16 -40 35.5 -83t42 -84t49.5 -77.5t60 -63.5t72.5 -42.5t86.5 -15.5q37 0 62.5 -26.5t25.5 -63.5q0 -36 -25.5 -63t-62.5 -27zM223 963q-11 4 -34.5 8.5t-47.5 5t-40 -4.5t-19 -16q-4 -12 -0.5 -16.5t14.5 -8t30.5 -4.5t41.5 -2.5t43 -5.5t36 -16q34 -28 30 -68.5
t-34 -73.5q-24 -28 -61 -49t-81 -26t-90.5 10.5t-89.5 59.5q-11 11 -14.5 26.5t-0.5 30t13 27t36 12.5q16 -16 33.5 -25t36.5 -14.5t37 -6.5t31 3q-8 3 -30 7.5t-44.5 14.5t-41 29t-25.5 50q-6 24 -3 50.5t14 51t30 45.5t46 34q32 15 67.5 22t71.5 6t69 -10t59 -27
q16 -13 14 -36.5t-14 -43.5t-33.5 -34t-49.5 -5z" />
    <glyph glyph-name="uniFE8E" unicode="&#x627;" horiz-adv-x="409" arabic-form="final" 
d="M61 943q0 65 20.5 99t51.5 33t53.5 -35t24.5 -90q4 -81 10 -168t14 -175t18 -174.5t21 -167.5q3 -25 9.5 -44t20.5 -31.5t39 -20t66 -7.5q37 0 62.5 -26.5t25.5 -63.5q0 -36 -25 -63t-63 -27q-95 0 -161.5 31.5t-99.5 86.5q-13 20 -23 61.5t-18 96t-14.5 119t-11.5 132
t-8.5 134t-6 124.5t-4 104t-1.5 72z" />
    <glyph glyph-name="uniFE90" unicode="&#x628;" horiz-adv-x="1223" arabic-form="final" 
d="M83 168q-18 49 -21 93t5 77.5t27.5 54.5t45.5 12.5t46 -41t35 -92.5q17 -69 60.5 -121.5t102.5 -86.5t127.5 -46.5t133 -1.5t119 47t88.5 99q36 68 65 103.5t57 47t44.5 -9.5t18.5 -49q9 -15 24 -32.5t37 -30.5t52.5 -21t72.5 -8q37 0 62 -26.5t25 -63.5q0 -36 -25 -63
t-62 -27q-30 0 -62.5 8t-64.5 22t-62.5 32t-38.5 25q-21 -46 -72.5 -92.5t-114.5 -74.5t-135 -37t-144 -2t-141.5 31t-129 62.5t-105.5 92t-70 119.5zM544 -205q22 0 41.5 -8.5t33.5 -23.5t22 -34.5t8 -42.5q0 -46 -30.5 -78.5t-74.5 -32.5q-46 0 -76.5 32.5t-30.5 78.5
q0 45 30.5 77t76.5 32z" />
    <glyph glyph-name="uniFE91" unicode="&#x628;" horiz-adv-x="310" arabic-form="initial" 
d="M0 162q9 0 26 3t35 9.5t34 14.5t24.5 16.5t9.5 15t-7 16.5q-39 48 -50 87.5t-1.5 69.5t34.5 47t53.5 17.5t54.5 -15t36 -49.5q7 -24 16.5 -43t18.5 -39.5t15 -45t6 -57.5q-1 -60 -31 -103t-75 -70.5t-97.5 -40.5t-101.5 -13q-38 0 -63 27t-25 63q0 37 25.5 63.5
t62.5 26.5zM169 -115q45 0 76 -32t31 -77q0 -46 -31 -78.5t-76 -32.5q-44 0 -74.5 32.5t-30.5 78.5q0 23 8.5 42.5t22 34.5t33 23.5t41.5 8.5z" />
    <glyph glyph-name="uniFE92" unicode="&#x628;" horiz-adv-x="584" arabic-form="medial" 
d="M584 -18q-42 0 -87 14.5t-87.5 38.5t-79 54t-40.5 35q-4 -14 -37.5 -47t-75.5 -54t-88.5 -31t-88.5 -10q-37 0 -61.5 26.5t-24.5 63.5t24.5 63.5t61.5 26.5q57 -1 86 13t40 36t8.5 54t-12 69t-23 75t-22.5 70q-11 39 -7 66t19.5 42.5t38 16.5t43.5 -8t39 -26.5t28 -41.5
q16 -40 35 -83t41.5 -84t49.5 -77.5t60 -63.5t72.5 -42.5t87.5 -15.5q37 0 62.5 -26.5t25.5 -63.5q0 -36 -25.5 -63t-62.5 -27zM355 -115q45 0 76 -32t31 -77q0 -46 -31 -78.5t-76 -32.5q-44 0 -74.5 32.5t-30.5 78.5q0 23 8.5 42.5t22 34.5t33 23.5t41.5 8.5z" />
    <glyph glyph-name="uniFE94" unicode="&#x629;" horiz-adv-x="878" arabic-form="final" 
d="M878 -18q-48 0 -92.5 8t-81.5 27.5t-85 70.5q-2 -8 -55 -49t-118 -53.5t-134 1.5t-125.5 53t-92.5 102.5t-33 147.5q3 76 33.5 140t79 109t110 70t124.5 25q76 0 129.5 -14t90 -38.5t58 -57.5t32 -69.5t13 -73.5t3.5 -71t3 -63t8 -48q6 -17 19 -25t31.5 -11t41 -2t41.5 1
q43 0 65 -28.5t22 -61.5t-22 -61.5t-65 -28.5zM581 339q-2 44 -29 78.5t-67 47t-87.5 3.5t-89 -34.5t-68 -65t-26.5 -88.5q0 -24 17.5 -48.5t45.5 -44t60.5 -29.5t59.5 -5.5t45.5 24t21.5 60.5q3 31 18.5 51.5t36 32t42.5 15t20 3.5zM310 947q45 0 75 -32t30 -77
q0 -46 -30 -78.5t-75 -32.5q-46 0 -76.5 32.5t-30.5 78.5q0 45 31 77t76 32zM499 893q45 0 76 -32.5t31 -78.5q0 -45 -31 -77t-76 -32q-22 0 -41.5 8.5t-33 23.5t-22 34.5t-8.5 42.5q0 46 30.5 78.5t74.5 32.5z" />
    <glyph glyph-name="uniFE96" unicode="&#x62a;" horiz-adv-x="1223" arabic-form="final" 
d="M83 168q-18 49 -21 93t5 77.5t27.5 54.5t45.5 12.5t46 -41t35 -92.5q17 -69 60.5 -121.5t102.5 -86.5t127.5 -46.5t133 -1.5t119 47t88.5 99q36 68 65 103.5t57 47t44.5 -9.5t18.5 -49q9 -15 24 -32.5t37 -30.5t52.5 -21t72.5 -8q37 0 62 -26.5t25 -63.5q0 -36 -25 -63
t-62 -27q-30 0 -62.5 8t-64.5 22t-62.5 32t-38.5 25q-21 -46 -72.5 -92.5t-114.5 -74.5t-135 -37t-144 -2t-141.5 31t-129 62.5t-105.5 92t-70 119.5zM461 500q44 0 74.5 -32t30.5 -78q0 -23 -8 -42.5t-22 -34.5t-33.5 -23.5t-41.5 -8.5q-44 0 -75.5 32t-31.5 77
q0 46 31.5 78t75.5 32zM650 446q46 0 76.5 -32t30.5 -78q0 -45 -30.5 -77t-76.5 -32q-45 0 -75 32t-30 77q0 46 30 78t75 32z" />
    <glyph glyph-name="uniFE97" unicode="&#x62a;" horiz-adv-x="313" arabic-form="initial" 
d="M0 162q9 0 26 3t35 9.5t34 14.5t24.5 16.5t9.5 15t-7 16.5q-39 48 -50 87.5t-1.5 69.5t34.5 47t53.5 17.5t54.5 -15t36 -49.5q7 -24 16.5 -43t18.5 -39.5t15 -45t6 -57.5q-1 -60 -31 -103t-75 -70.5t-97.5 -40.5t-101.5 -13q-38 0 -63 27t-25 63q0 37 25.5 63.5
t62.5 26.5zM53 758q45 0 76 -32t31 -78q0 -45 -31 -77t-76 -32q-22 0 -41.5 8.5t-33.5 23.5t-22.5 34.5t-8.5 42.5q0 46 31 78t75 32zM244 704q22 0 41.5 -8.5t33 -23.5t22 -34.5t8.5 -42.5t-8.5 -43t-22 -35t-33 -23.5t-41.5 -8.5q-23 0 -42.5 8.5t-33.5 23.5t-22.5 35
t-8.5 43t8.5 42.5t22.5 34.5t33.5 23.5t42.5 8.5z" />
    <glyph glyph-name="uniFE98" unicode="&#x62a;" horiz-adv-x="584" arabic-form="medial" 
d="M584 -18q-42 0 -87 14.5t-87.5 38.5t-79 54t-40.5 35q-4 -14 -37.5 -47t-75.5 -54t-88.5 -31t-88.5 -10q-37 0 -61.5 26.5t-24.5 63.5t24.5 63.5t61.5 26.5q57 -1 86 13t40 36t8.5 54t-12 69t-23 75t-22.5 70q-11 39 -7 66t19.5 42.5t38 16.5t43.5 -8t39 -26.5t28 -41.5
q16 -40 35 -83t41.5 -84t49.5 -77.5t60 -63.5t72.5 -42.5t87.5 -15.5q37 0 62.5 -26.5t25.5 -63.5q0 -36 -25.5 -63t-62.5 -27zM-12 899q22 0 42 -9t34 -24t22.5 -35t8.5 -43q0 -45 -31 -77t-76 -32q-22 0 -41.5 8.5t-33.5 23.5t-22.5 34.5t-8.5 42.5t8.5 43t22.5 35
t33.5 24t41.5 9zM179 845q44 0 74.5 -32.5t30.5 -78.5q0 -23 -8.5 -42.5t-22 -34.5t-33 -23.5t-41.5 -8.5q-45 0 -76 32t-31 77q0 46 31 78.5t76 32.5z" />
    <glyph glyph-name="uniFE9A" unicode="&#x62b;" horiz-adv-x="1223" arabic-form="final" 
d="M83 168q-18 49 -21 93t5 77.5t27.5 54.5t45.5 12.5t46 -41t35 -92.5q17 -69 60.5 -121.5t102.5 -86.5t127.5 -46.5t133 -1.5t119 47t88.5 99q36 68 65 103.5t57 47t44.5 -9.5t18.5 -49q9 -15 24 -32.5t37 -30.5t52.5 -21t72.5 -8q37 0 62 -26.5t25 -63.5q0 -36 -25 -63
t-62 -27q-30 0 -62.5 8t-64.5 22t-62.5 32t-38.5 25q-21 -46 -72.5 -92.5t-114.5 -74.5t-135 -37t-144 -2t-141.5 31t-129 62.5t-105.5 92t-70 119.5zM461 500q44 0 74.5 -32t30.5 -78q0 -23 -8 -42.5t-22 -34.5t-33.5 -23.5t-41.5 -8.5q-44 0 -75.5 32t-31.5 77
q0 46 31.5 78t75.5 32zM650 446q46 0 76.5 -32t30.5 -78q0 -45 -30.5 -77t-76.5 -32q-45 0 -75 32t-30 77q0 46 30 78t75 32zM604 659q45 0 75.5 -32t30.5 -77q0 -23 -8.5 -43t-22.5 -35t-33.5 -24t-41.5 -9t-41.5 9t-33.5 24t-22.5 35t-8.5 43t8.5 42.5t23 34.5t33.5 23.5
t41 8.5z" />
    <glyph glyph-name="uniFE9B" unicode="&#x62b;" horiz-adv-x="313" arabic-form="initial" 
d="M0 162q9 0 26 3t35 9.5t34 14.5t24.5 16.5t9.5 15t-7 16.5q-39 48 -50 87.5t-1.5 69.5t34.5 47t53.5 17.5t54.5 -15t36 -49.5q7 -24 16.5 -43t18.5 -39.5t15 -45t6 -57.5q-1 -60 -31 -103t-75 -70.5t-97.5 -40.5t-101.5 -13q-38 0 -63 27t-25 63q0 37 25.5 63.5
t62.5 26.5zM53 758q45 0 76 -32t31 -78q0 -45 -31 -77t-76 -32q-22 0 -41.5 8.5t-33.5 23.5t-22.5 34.5t-8.5 42.5q0 46 31 78t75 32zM244 704q22 0 41.5 -8.5t33 -23.5t22 -34.5t8.5 -42.5t-8.5 -43t-22 -35t-33 -23.5t-41.5 -8.5q-23 0 -42.5 8.5t-33.5 23.5t-22.5 35
t-8.5 43t8.5 42.5t22.5 34.5t33.5 23.5t42.5 8.5zM197 918q45 0 75 -32.5t30 -77.5q0 -22 -7.5 -42.5t-22 -35.5t-34 -23.5t-41.5 -8.5t-41.5 8.5t-34 23.5t-23 35t-8.5 43t8.5 42.5t22.5 34.5t34 24t42 9z" />
    <glyph glyph-name="uniFE9C" unicode="&#x62b;" horiz-adv-x="584" arabic-form="medial" 
d="M584 -18q-42 0 -87 14.5t-87.5 38.5t-79 54t-40.5 35q-4 -14 -37.5 -47t-75.5 -54t-88.5 -31t-88.5 -10q-37 0 -61.5 26.5t-24.5 63.5t24.5 63.5t61.5 26.5q57 -1 86 13t40 36t8.5 54t-12 69t-23 75t-22.5 70q-11 39 -7 66t19.5 42.5t38 16.5t43.5 -8t39 -26.5t28 -41.5
q16 -40 35 -83t41.5 -84t49.5 -77.5t60 -63.5t72.5 -42.5t87.5 -15.5q37 0 62.5 -26.5t25.5 -63.5q0 -36 -25.5 -63t-62.5 -27zM-12 899q22 0 42 -9t34 -24t22.5 -35t8.5 -43q0 -45 -31 -77t-76 -32q-22 0 -41.5 8.5t-33.5 23.5t-22.5 34.5t-8.5 42.5t8.5 43t22.5 35
t33.5 24t41.5 9zM179 845q44 0 74.5 -32.5t30.5 -78.5q0 -23 -8.5 -42.5t-22 -34.5t-33 -23.5t-41.5 -8.5q-45 0 -76 32t-31 77q0 46 31 78.5t76 32.5zM132 1057q45 0 75.5 -32t30.5 -77t-30.5 -77.5t-75.5 -32.5q-22 0 -42 9t-34 24t-22.5 34.5t-8.5 42.5q0 45 31 77t76 32
z" />
    <glyph glyph-name="uniFE9E" unicode="&#x62c;" horiz-adv-x="991" arabic-form="final" 
d="M60 401q3 63 35 101t78 55.5t97.5 18t97.5 -11.5q60 -15 125.5 -38t132 -49t131.5 -52.5t127 -47.5q15 -6 31 -10.5t31 -13t26.5 -24t12.5 -40.5q2 -35 -5.5 -55.5t-24 -30.5t-35.5 -10.5t-36 -0.5q-16 -1 -18 0q21 -14 51 -22t74 -8q37 0 62.5 -26.5t25.5 -63.5
t-24.5 -63.5t-60.5 -26.5q-108 -1 -194 48.5t-136 121.5q-119 -26 -211 -80t-144 -120t-64.5 -136.5t13.5 -134t92.5 -113.5t176.5 -73q48 -11 96.5 -9t92 15.5t79 37t58.5 56.5q27 37 53 46t42 -10.5t17 -50.5t-11 -66.5t-38 -72.5t-68.5 -68t-102.5 -51t-141 -22
q-123 -2 -218 31t-161 91.5t-100.5 136.5t-36 164t29.5 174.5t97.5 168t167 145t188.5 91.5q-12 4 -71.5 28.5t-112.5 40.5t-93.5 20.5t-54.5 -3.5q-3 -22 -26 -45t-56 -26q-18 -3 -35 4t-30.5 18t-22.5 27t-9 35zM558 -80q45 0 76 -32.5t31 -78.5q0 -45 -31 -77t-76 -32
t-76 32t-31 77q0 46 31 78.5t76 32.5z" />
    <glyph glyph-name="uniFE9F" unicode="&#x62c;" horiz-adv-x="989" arabic-form="initial" 
d="M38 401q3 63 35.5 101t78.5 55.5t97 18t96 -11.5q60 -15 125.5 -38t132.5 -49t132 -52.5t127 -47.5q14 -6 30 -10.5t31.5 -13t26.5 -23.5t14 -41q1 -35 -6.5 -55.5t-24.5 -30.5t-35.5 -10.5t-37.5 -0.5q-59 -2 -126.5 -17.5t-141 -38.5t-149.5 -50t-152 -50t-149.5 -38.5
t-140.5 -15.5q-36 0 -61.5 26.5t-25.5 63.5t25 63.5t61 26.5q92 5 164.5 18.5t139 33.5t136 46t111.5 40q-15 6 -74.5 30.5t-112 40.5t-93.5 20.5t-55 -3.5q-2 -22 -25.5 -45t-56.5 -26q-18 -3 -35 4t-30 18t-22 27t-9 35zM449 18q45 0 76 -32t31 -77q0 -23 -8.5 -42.5
t-23 -34.5t-34 -23.5t-41.5 -8.5t-41.5 8.5t-33.5 23.5t-22.5 34.5t-8.5 42.5t8.5 42.5t22.5 34.5t33.5 23.5t41.5 8.5z" />
    <glyph glyph-name="uniFEA0" unicode="&#x62c;" horiz-adv-x="970" arabic-form="medial" 
d="M37 401q3 63 36 101t79 55.5t97 18t96 -11.5q60 -15 125.5 -38t132.5 -49t132 -52.5t127 -47.5q14 -6 30 -10.5t31.5 -13t26.5 -23.5t14 -41q1 -35 -6.5 -55.5t-24.5 -30.5t-35.5 -10.5t-36.5 -0.5q-17 -1 -17 0q21 -14 51 -22t75 -8q37 0 62 -26.5t25 -63.5t-25 -63.5
t-61 -26.5q-107 -1 -193.5 48.5t-135.5 120.5q-60 -17 -142 -46.5t-167.5 -56.5t-170 -46.5t-161.5 -19.5q-37 0 -61.5 26.5t-24.5 63.5t24.5 63.5t60.5 26.5q92 5 164.5 18.5t139.5 33.5t137 46t111 40q-15 6 -74.5 30.5t-112.5 40.5t-93.5 20.5t-54.5 -3.5q-2 -22 -26 -45
t-56 -26q-18 -2 -35.5 4.5t-31 17.5t-22.5 27t-9 35zM449 18q45 0 76 -32t31 -77q0 -23 -8.5 -42.5t-23 -34.5t-34 -23.5t-41.5 -8.5t-41.5 8.5t-33.5 23.5t-22.5 34.5t-8.5 42.5t8.5 42.5t22.5 34.5t33.5 23.5t41.5 8.5z" />
    <glyph glyph-name="uniFEA2" unicode="&#x62d;" horiz-adv-x="991" arabic-form="final" 
d="M60 401q3 63 35 101t78 55.5t97.5 18t97.5 -11.5q60 -15 125.5 -38t132 -49t131.5 -52.5t127 -47.5q15 -6 31 -10.5t31 -13t26.5 -24t12.5 -40.5q2 -35 -5.5 -55.5t-24 -30.5t-35.5 -10.5t-36 -0.5q-16 -1 -18 0q21 -14 51 -22t74 -8q37 0 62.5 -26.5t25.5 -63.5
t-24.5 -63.5t-60.5 -26.5q-108 -1 -194 48.5t-136 121.5q-119 -26 -211 -80t-144 -120t-64.5 -136.5t13.5 -134t92.5 -113.5t176.5 -73q48 -11 96.5 -9t92 15.5t79 37t58.5 56.5q27 37 53 46t42 -10.5t17 -50.5t-11 -66.5t-38 -72.5t-68.5 -68t-102.5 -51t-141 -22
q-123 -2 -218 31t-161 91.5t-100.5 136.5t-36 164t29.5 174.5t97.5 168t167 145t188.5 91.5q-12 4 -71.5 28.5t-112.5 40.5t-93.5 20.5t-54.5 -3.5q-3 -22 -26 -45t-56 -26q-18 -3 -35 4t-30.5 18t-22.5 27t-9 35z" />
    <glyph glyph-name="uniFEA3" unicode="&#x62d;" horiz-adv-x="989" arabic-form="initial" 
d="M38 401q3 63 35.5 101t78.5 55.5t97 18t96 -11.5q60 -15 125.5 -38t132.5 -49t132 -52.5t127 -47.5q14 -6 30 -10.5t31.5 -13t26.5 -23.5t14 -41q1 -35 -6.5 -55.5t-24.5 -30.5t-35.5 -10.5t-37.5 -0.5q-59 -2 -126.5 -17.5t-141 -38.5t-149.5 -50t-152 -50t-149.5 -38.5
t-140.5 -15.5q-36 0 -61.5 26.5t-25.5 63.5t25 63.5t61 26.5q92 5 164.5 18.5t139 33.5t136 46t111.5 40q-15 6 -74.5 30.5t-112 40.5t-93.5 20.5t-55 -3.5q-2 -22 -25.5 -45t-56.5 -26q-18 -3 -35 4t-30 18t-22 27t-9 35z" />
    <glyph glyph-name="uniFEA4" unicode="&#x62d;" horiz-adv-x="970" arabic-form="medial" 
d="M37 401q3 63 36 101t79 55.5t97 18t96 -11.5q60 -15 125.5 -38t132.5 -49t132 -52.5t127 -47.5q14 -6 30 -10.5t31.5 -13t26.5 -23.5t14 -41q1 -35 -6.5 -55.5t-24.5 -30.5t-35.5 -10.5t-36.5 -0.5q-17 -1 -17 0q21 -14 51 -22t75 -8q37 0 62 -26.5t25 -63.5t-25 -63.5
t-61 -26.5q-107 -1 -193.5 48.5t-135.5 120.5q-60 -17 -142 -46.5t-167.5 -56.5t-170 -46.5t-161.5 -19.5q-37 0 -61.5 26.5t-24.5 63.5t24.5 63.5t60.5 26.5q92 5 164.5 18.5t139.5 33.5t137 46t111 40q-15 6 -74.5 30.5t-112.5 40.5t-93.5 20.5t-54.5 -3.5q-2 -22 -26 -45
t-56 -26q-18 -2 -35.5 4.5t-31 17.5t-22.5 27t-9 35z" />
    <glyph glyph-name="uniFEA6" unicode="&#x62e;" horiz-adv-x="991" arabic-form="final" 
d="M60 401q3 63 35 101t78 55.5t97.5 18t97.5 -11.5q60 -15 125.5 -38t132 -49t131.5 -52.5t127 -47.5q15 -6 31 -10.5t31 -13t26.5 -24t12.5 -40.5q2 -35 -5.5 -55.5t-24 -30.5t-35.5 -10.5t-36 -0.5q-16 -1 -18 0q21 -14 51 -22t74 -8q37 0 62.5 -26.5t25.5 -63.5
t-24.5 -63.5t-60.5 -26.5q-108 -1 -194 48.5t-136 121.5q-119 -26 -211 -80t-144 -120t-64.5 -136.5t13.5 -134t92.5 -113.5t176.5 -73q48 -11 96.5 -9t92 15.5t79 37t58.5 56.5q27 37 53 46t42 -10.5t17 -50.5t-11 -66.5t-38 -72.5t-68.5 -68t-102.5 -51t-141 -22
q-123 -2 -218 31t-161 91.5t-100.5 136.5t-36 164t29.5 174.5t97.5 168t167 145t188.5 91.5q-12 4 -71.5 28.5t-112.5 40.5t-93.5 20.5t-54.5 -3.5q-3 -22 -26 -45t-56 -26q-18 -3 -35 4t-30.5 18t-22.5 27t-9 35zM294 845q45 0 76 -32t31 -77q0 -23 -8.5 -43t-23 -35
t-34 -23.5t-41.5 -8.5t-41.5 8.5t-33.5 23.5t-22.5 35t-8.5 43t8.5 42.5t22.5 34.5t33.5 23.5t41.5 8.5z" />
    <glyph glyph-name="uniFEA7" unicode="&#x62e;" horiz-adv-x="989" arabic-form="initial" 
d="M38 401q3 63 35.5 101t78.5 55.5t97 18t96 -11.5q60 -15 125.5 -38t132.5 -49t132 -52.5t127 -47.5q14 -6 30 -10.5t31.5 -13t26.5 -23.5t14 -41q1 -35 -6.5 -55.5t-24.5 -30.5t-35.5 -10.5t-37.5 -0.5q-59 -2 -126.5 -17.5t-141 -38.5t-149.5 -50t-152 -50t-149.5 -38.5
t-140.5 -15.5q-36 0 -61.5 26.5t-25.5 63.5t25 63.5t61 26.5q92 5 164.5 18.5t139 33.5t136 46t111.5 40q-15 6 -74.5 30.5t-112 40.5t-93.5 20.5t-55 -3.5q-2 -22 -25.5 -45t-56.5 -26q-18 -3 -35 4t-30 18t-22 27t-9 35zM272 845q46 0 76.5 -32t30.5 -77q0 -23 -8.5 -43
t-22.5 -35t-33.5 -23.5t-42.5 -8.5q-22 0 -41.5 8.5t-33.5 23.5t-22.5 35t-8.5 43q0 45 30.5 77t75.5 32z" />
    <glyph glyph-name="uniFEA8" unicode="&#x62e;" horiz-adv-x="970" arabic-form="medial" 
d="M37 401q3 63 36 101t79 55.5t97 18t96 -11.5q60 -15 125.5 -38t132.5 -49t132 -52.5t127 -47.5q14 -6 30 -10.5t31.5 -13t26.5 -23.5t14 -41q1 -35 -6.5 -55.5t-24.5 -30.5t-35.5 -10.5t-36.5 -0.5q-17 -1 -17 0q21 -14 51 -22t75 -8q37 0 62 -26.5t25 -63.5t-25 -63.5
t-61 -26.5q-107 -1 -193.5 48.5t-135.5 120.5q-60 -17 -142 -46.5t-167.5 -56.5t-170 -46.5t-161.5 -19.5q-37 0 -61.5 26.5t-24.5 63.5t24.5 63.5t60.5 26.5q92 5 164.5 18.5t139.5 33.5t137 46t111 40q-15 6 -74.5 30.5t-112.5 40.5t-93.5 20.5t-54.5 -3.5q-2 -22 -26 -45
t-56 -26q-18 -2 -35.5 4.5t-31 17.5t-22.5 27t-9 35zM272 845q46 0 76 -32t30 -77q0 -22 -7.5 -42.5t-22 -35.5t-34 -23.5t-42.5 -8.5q-22 0 -41.5 8.5t-33.5 23.5t-22.5 35t-8.5 43t8.5 42.5t22.5 34.5t33.5 23.5t41.5 8.5z" />
    <glyph glyph-name="uniFEAA" unicode="&#x62f;" horiz-adv-x="1232" arabic-form="final" 
d="M60 130q0 36 24.5 63t61.5 27q47 0 110.5 1.5t130 9t130 23t112 43.5t77.5 70.5t28 105.5q-1 32 -25.5 48.5t-69 22.5t-103.5 3t-119 -8t-115.5 -7t-93.5 6q-16 3 -37 15.5t-38.5 29.5t-26 41.5t5.5 49t51.5 42t104.5 29.5q62 10 138 14t153.5 -3t149.5 -28t126.5 -59.5
t81 -99.5t12.5 -140q21 -47 49.5 -96t65.5 -87t83 -61t105 -23q37 0 62.5 -26.5t25.5 -63.5q0 -36 -25 -63t-63 -27q-84 0 -147 26.5t-111.5 70t-84.5 98.5t-48 78q-7 -18 -52 -62.5t-104.5 -78.5t-127 -57t-135.5 -35.5t-131.5 -13t-113.5 11t-83.5 38.5t-33.5 72z" />
    <glyph glyph-name="uniFEAC" unicode="&#x630;" horiz-adv-x="1232" arabic-form="final" 
d="M60 130q0 36 24.5 63t61.5 27q47 0 110.5 1.5t130 9t130 23t112 43.5t77.5 70.5t28 105.5q-1 32 -25.5 48.5t-69 22.5t-103.5 3t-119 -8t-115.5 -7t-93.5 6q-16 3 -37 15.5t-38.5 29.5t-26 41.5t5.5 49t51.5 42t104.5 29.5q62 10 138 14t153.5 -3t149.5 -28t126.5 -59.5
t81 -99.5t12.5 -140q21 -47 49.5 -96t65.5 -87t83 -61t105 -23q37 0 62.5 -26.5t25.5 -63.5q0 -36 -25 -63t-63 -27q-84 0 -147 26.5t-111.5 70t-84.5 98.5t-48 78q-7 -18 -52 -62.5t-104.5 -78.5t-127 -57t-135.5 -35.5t-131.5 -13t-113.5 11t-83.5 38.5t-33.5 72z
M317 1036q22 0 41.5 -8.5t34 -23.5t23 -35t8.5 -43t-8.5 -42.5t-23 -34.5t-34 -23.5t-41.5 -8.5t-41.5 8.5t-33.5 23.5t-22.5 34.5t-8.5 42.5t8.5 43t22.5 35t33.5 23.5t41.5 8.5z" />
    <glyph glyph-name="uniFEAE" unicode="&#x631;" horiz-adv-x="807" arabic-form="final" 
d="M807 162q37 0 62 -26.5t25 -63.5q0 -36 -25 -63t-62 -27q-35 0 -72.5 10.5t-74 28t-69.5 40.5t-44 33q-24 -40 -64 -98.5t-79.5 -108.5t-75.5 -87t-65 -54q-28 -16 -64 -17.5t-71 6t-65.5 23.5t-62.5 58q94 38 146.5 78t92 87.5t70.5 99.5t60.5 104t63 102.5t77.5 91.5
q32 30 48.5 12.5t25.5 -44t20 -58.5t34.5 -60t63 -47.5t105.5 -19.5z" />
    <glyph glyph-name="uniFEB0" unicode="&#x632;" horiz-adv-x="807" arabic-form="final" 
d="M807 162q37 0 62 -26.5t25 -63.5q0 -36 -25 -63t-62 -27q-35 0 -72.5 10.5t-74 28t-69.5 40.5t-44 33q-24 -40 -64 -98.5t-79.5 -108.5t-75.5 -87t-65 -54q-28 -16 -64 -17.5t-71 6t-65.5 23.5t-62.5 58q94 38 146.5 78t92 87.5t70.5 99.5t60.5 104t63 102.5t77.5 91.5
q32 30 48.5 12.5t25.5 -44t20 -58.5t34.5 -60t63 -47.5t105.5 -19.5zM587 688q22 0 41.5 -8.5t34.5 -23.5t23 -35t8 -43t-8 -42.5t-23 -34.5t-34.5 -23.5t-41.5 -8.5q-44 0 -75.5 32t-31.5 77q0 23 8.5 43t23 35t34.5 23.5t41 8.5z" />
    <glyph glyph-name="uniFEB2" unicode="&#x633;" horiz-adv-x="1690" arabic-form="final" 
d="M1535 84q-98 -57 -155 -54.5t-111 33.5t-69 57q-17 -32 -51.5 -64t-69.5 -43t-67 -2.5t-57.5 25t-44.5 37t-14 12.5q-15 -26 -54.5 -75.5t-93.5 -88.5t-123 -63t-157 -22q-68 1 -131.5 25t-116.5 71t-93 115t-59 158q-14 69 -3 118.5t37 81t61.5 45t70 9.5t61 -25.5
t32 -57.5t-14 -82t-66.5 -94q10 -47 33.5 -87.5t53.5 -66.5t66.5 -37.5t75.5 -10.5q90 2 154 37t111 86.5t78.5 112t56.5 96t64 27t54 -41.5q4 -13 -6.5 -28t-18.5 -29t-11 -26t1 -18q26 -38 55 -40t58 22t53.5 73t36.5 96.5t56 50.5t50 -20q2 -6 0.5 -23.5t-1 -40
t4.5 -47.5t14 -45t27 -34t46 -16q25 -2 34.5 5t13 22t1 40t-7 53.5t-6 58t6.5 56.5q8 21 27 23.5t36.5 -0.5t36 -7.5t34 -36.5t18.5 -77t16.5 -80.5t41.5 -58t80 -26.5q34 -5 55 -30t21 -60q0 -37 -24.5 -63.5t-61.5 -26.5q-35 0 -64.5 15.5t-50.5 40t-30 46.5z" />
    <glyph glyph-name="uniFEB3" unicode="&#x633;" horiz-adv-x="936" arabic-form="initial" 
d="M763 30q-32 -3 -65 3.5t-63 21.5t-56 38.5t-28 25.5q-17 -31 -51.5 -63t-70 -43t-67 -2.5t-57.5 25t-44.5 37t-15.5 16.5q-8 -9 -34 -32.5t-57.5 -40t-68.5 -25.5t-83 -9q-37 0 -62 26.5t-25 63.5t24.5 63t60.5 27q47 -1 91 18q37 15 73.5 52t60.5 87t63.5 39.5
t54.5 -43.5q4 -13 -6.5 -27.5t-18 -29t-10.5 -26.5t1 -18q25 -38 53.5 -40t58.5 22t54.5 73t38.5 96.5t54.5 50.5t48.5 -19q2 -7 1 -24.5t-0.5 -40t4 -47.5t13.5 -45t27.5 -34t46.5 -16q25 -2 34.5 5t13 22t0.5 40t-7 53.5t-5.5 58t6.5 56.5q8 21 26 23.5t36.5 -0.5
t44.5 -7.5t33.5 -28t12 -59t7 -75.5t0.5 -81t-17 -76t-46.5 -60t-84.5 -31z" />
    <glyph glyph-name="uniFEB4" unicode="&#x633;" horiz-adv-x="1041" arabic-form="medial" 
d="M891 107q-53 -56 -87 -68t-73 -10t-75 16t-68 40t-37 34q-17 -31 -51.5 -63t-69.5 -43t-66.5 -2.5t-57.5 25t-44.5 37t-15.5 16.5q-8 -9 -34 -32.5t-57 -40t-68.5 -25.5t-82.5 -9q-37 0 -62.5 26.5t-25.5 63.5t24 63t60 27q47 -1 91 18q37 15 74 52t56.5 84t63.5 39
t58 -41q4 -12 -6.5 -26.5t-17.5 -29t-10 -26.5t1 -18q25 -38 53.5 -40t58.5 22t54.5 73t32 98t55.5 50.5t53 -21.5q2 -6 1 -23.5t-0.5 -40t4 -47.5t13.5 -45t27.5 -34t46.5 -16q25 -2 34.5 5t13 22t0.5 40t-7 53.5t-5 58t7 56.5q8 21 26.5 23.5t36 -0.5t46.5 -9.5t34 -36.5
t8 -75t16.5 -80.5t41.5 -58t80 -26.5q33 -5 55 -30t22 -60q0 -37 -25 -63.5t-62 -26.5q-35 0 -64 15.5t-50.5 39.5t-25.5 70z" />
    <glyph glyph-name="uniFEB6" unicode="&#x634;" horiz-adv-x="1690" arabic-form="final" 
d="M1535 84q-98 -57 -155 -54.5t-111 33.5t-69 57q-17 -32 -51.5 -64t-69.5 -43t-67 -2.5t-57.5 25t-44.5 37t-14 12.5q-15 -26 -54.5 -75.5t-93.5 -88.5t-123 -63t-157 -22q-68 1 -131.5 25t-116.5 71t-93 115t-59 158q-14 69 -3 118.5t37 81t61.5 45t70 9.5t61 -25.5
t32 -57.5t-14 -82t-66.5 -94q10 -47 33.5 -87.5t53.5 -66.5t66.5 -37.5t75.5 -10.5q90 2 154 37t111 86.5t78.5 112t55 98t64 27t55.5 -43.5q4 -13 -6.5 -28t-18.5 -29t-11 -26t1 -18q26 -38 55 -40t58 22t53.5 73t30 97t56 50.5t56.5 -20.5q2 -6 0.5 -23.5t-1 -40
t4.5 -47.5t14 -45t27 -34t46 -16q25 -2 34.5 5t13 22t1 40t-7 53.5t-6 58t6.5 56.5q8 21 27 23.5t36.5 -0.5t45.5 -11t34 -36.5t9 -73.5t16.5 -80.5t41.5 -58t80 -26.5q34 -5 55 -30t21 -60q0 -37 -24.5 -63.5t-61.5 -26.5q-35 0 -64.5 15.5t-50.5 40t-30 46.5zM1087 766
q22 0 41.5 -8.5t34 -23.5t22.5 -35t8 -43t-8 -43t-22.5 -35t-34 -23.5t-41.5 -8.5q-21 0 -41 8.5t-34.5 23.5t-23 35t-8.5 43t8.5 43t23 35t34.5 23.5t41 8.5zM1277 712q22 0 41.5 -8.5t33.5 -23.5t22 -35t8 -43t-8 -42.5t-22 -34.5t-33.5 -24t-41.5 -9t-41.5 9t-34 24
t-23 34.5t-8.5 42.5t8.5 43t23 35t34.5 23.5t41 8.5zM1230 925q22 0 41.5 -8.5t34.5 -23.5t23 -35t8 -43t-8 -42.5t-23 -34.5t-34.5 -23.5t-41.5 -8.5q-21 0 -40.5 8.5t-34 23.5t-23 34.5t-8.5 42.5t8.5 43t23 35t34 23.5t40.5 8.5z" />
    <glyph glyph-name="uniFEB7" unicode="&#x634;" horiz-adv-x="936" arabic-form="initial" 
d="M763 30q-32 -3 -65 3.5t-63 21.5t-56 38.5t-28 25.5q-17 -31 -51.5 -63t-70 -43t-67 -2.5t-57.5 25t-44.5 37t-15.5 16.5q-8 -9 -34 -32.5t-57.5 -40t-68.5 -25.5t-83 -9q-37 0 -62 26.5t-25 63.5t24.5 63t60.5 27q47 -1 91 18q37 15 73.5 52t57.5 83.5t63.5 39.5
t41.5 -44.5t-8.5 -52t-10.5 -26.5t1 -18q25 -38 53.5 -40t58.5 22t54.5 73t35 96.5t54.5 50.5t52 -19q2 -7 1 -24.5t-0.5 -40t4 -47.5t13.5 -45t27.5 -34t46.5 -16q25 -2 34.5 5t13 22t0.5 40t-7 53.5t-5.5 58t6.5 56.5q8 21 26 23.5t36.5 -0.5t43.5 -7t33.5 -28t13 -59.5
t7 -75.5t0.5 -81t-17 -76t-46.5 -60t-84.5 -31zM437 766q22 0 41.5 -8.5t34 -23.5t23 -35t8.5 -43t-8.5 -43t-23 -35t-34 -23.5t-41.5 -8.5t-41.5 8.5t-33.5 23.5t-22.5 35t-8.5 43t8.5 43t22.5 35t33.5 23.5t41.5 8.5zM628 712q22 0 41.5 -8.5t33 -23.5t22 -35t8.5 -43
t-8.5 -42.5t-22 -34.5t-33 -24t-41.5 -9q-46 0 -76.5 32.5t-30.5 77.5q0 23 8.5 43t22.5 35t33.5 23.5t42.5 8.5zM581 925q22 0 41.5 -8.5t33 -23.5t22 -35t8.5 -43t-8.5 -42.5t-22 -34.5t-33 -23.5t-41.5 -8.5t-41.5 8.5t-34 23.5t-23 34.5t-8.5 42.5t8.5 43t23 35t34 23.5
t41.5 8.5z" />
    <glyph glyph-name="uniFEB8" unicode="&#x634;" horiz-adv-x="1041" arabic-form="medial" 
d="M438 766q22 0 41.5 -8.5t34 -23.5t23 -35t8.5 -43t-8.5 -43t-23 -35t-34 -23.5t-41.5 -8.5t-41.5 8.5t-34 23.5t-23 35t-8.5 43t8.5 43t23 35t34 23.5t41.5 8.5zM628 712q22 0 41.5 -8.5t33.5 -23.5t22.5 -35t8.5 -43q0 -45 -30.5 -77.5t-75.5 -32.5q-22 0 -41.5 9
t-33.5 24t-22.5 34.5t-8.5 42.5t8.5 43t22.5 35t33.5 23.5t41.5 8.5zM582 925q22 0 41.5 -8.5t33.5 -23.5t22.5 -35t8.5 -43t-8.5 -42.5t-22.5 -34.5t-33.5 -23.5t-41.5 -8.5t-41.5 8.5t-34 23.5t-23 34.5t-8.5 42.5t8.5 43t23 35t34 23.5t41.5 8.5zM891 107
q-53 -56 -87 -68t-73 -10t-75 16t-68 40t-37 34q-17 -31 -51.5 -63t-69.5 -43t-66.5 -2.5t-57.5 25t-44.5 37t-15.5 16.5q-8 -9 -34 -32.5t-57 -40t-68.5 -25.5t-82.5 -9q-37 0 -62.5 26.5t-25.5 63.5t24 63t60 27q47 -1 91 18q37 15 74 52t54.5 83t63.5 39t44.5 -44
t-8.5 -51.5t-10 -26.5t1 -18q25 -38 53.5 -40t58.5 22t54.5 73t30 95t55.5 50.5t55 -18.5q2 -6 1 -23.5t-0.5 -40t4 -47.5t13.5 -45t27.5 -34t46.5 -16q25 -2 34.5 5t13 22t0.5 40t-7 53.5t-5 58t7 56.5q8 21 26.5 23.5t36 -0.5t48.5 -7.5t34 -36.5t6 -77t16.5 -80.5
t41.5 -58t80 -26.5q33 -5 55 -30t22 -60q0 -37 -25 -63.5t-62 -26.5q-35 0 -64 15.5t-50.5 39.5t-25.5 70z" />
    <glyph glyph-name="uniFEBA" unicode="&#x635;" horiz-adv-x="1633" arabic-form="final" 
d="M69 205q-15 69 -4 118.5t37.5 81t62 45t69.5 9.5t60.5 -25.5t32 -57.5t-14 -82t-66.5 -94q15 -67 48.5 -113t75.5 -67t90 -21.5t96 14.5t92.5 42.5t76.5 60t48.5 67t13.5 58.5q-36 44 -46.5 83.5t-1.5 69.5t34.5 47t53.5 17.5t54 -15t36 -49.5q13 -44 21.5 -88t16 -77.5
t8 -20t11.5 91.5t38 149t70 130t97.5 97t121 47t138.5 -20q44 -18 80 -49.5t61.5 -72.5t38 -89t7.5 -97q-5 -58 -42.5 -113.5t-76.5 -90.5q6 -5 40.5 -17t85.5 -12q37 0 62.5 -26.5t25.5 -63.5q0 -36 -25 -63t-63 -27q-34 0 -70 9.5t-71 26t-68 38.5t-50 37
q-57 -35 -131.5 -63.5t-144 -37.5t-129 4.5t-77.5 37.5q-44 -78 -121.5 -138.5t-162.5 -81.5t-171 -5t-159.5 67t-128.5 134t-80 195zM1121 190q109 22 186.5 59.5t114 77t41.5 77.5t-11 70t-47.5 54.5t-70.5 28t-78 -9.5t-71 -58.5t-50.5 -121.5t-13.5 -177z" />
    <glyph glyph-name="uniFEBB" unicode="&#x635;" horiz-adv-x="983" arabic-form="initial" 
d="M0 162q15 0 44 7t51.5 19t30 23.5t-3.5 25.5q-39 48 -50 87.5t-1.5 69.5t34.5 47t53.5 17.5t54.5 -15t36 -49.5q14 -44 21.5 -88t15.5 -77.5t16 -48t0 -15.5q-7 57 3.5 135t38 149t69.5 130t97 97t121 47t139 -20q45 -18 81 -49.5t61.5 -72.5t37.5 -89t8 -97
q-4 -53 -36 -104.5t-81 -97t-110 -84.5t-126.5 -66.5t-130.5 -42t-121.5 -11.5t-101 28.5t-47.5 34.5q11 26 -4 7.5t-41.5 -35t-65 -28t-92.5 -14.5q-18 -1 -35 6.5t-28.5 20t-18.5 29t-7 34.5q0 37 26.5 63.5t61.5 26.5zM453 190q108 22 185.5 59.5t114.5 77t41.5 77.5
t-11 70t-48 54.5t-70.5 28t-77.5 -9.5t-71 -58.5t-50.5 -121.5t-13 -177z" />
    <glyph glyph-name="uniFEBC" unicode="&#x635;" horiz-adv-x="965" arabic-form="medial" 
d="M0 162q9 0 26 3t35 9.5t34 14.5t24.5 16.5t9.5 15t-7 16.5q-39 47 -50.5 87t-1.5 70t34.5 47t53 17.5t54 -15t35.5 -49.5q14 -44 22 -88t16 -77.5t9 -20t11.5 91.5t38 149t69.5 130t97 97t121 47t139 -20q44 -18 80 -49.5t61.5 -72.5t37.5 -88.5t9 -96.5
q-7 -65 -44.5 -119.5t-76.5 -85.5q6 -5 41 -17t87 -12q36 0 61 -26.5t25 -63.5q0 -36 -24.5 -63t-61.5 -27q-35 0 -72.5 10.5t-74 28t-70 40.5t-51.5 39q-20 -11 -64 -33t-93.5 -42.5t-101.5 -33.5t-101 -9.5t-89 29.5t-45 41q11 26 -4 7.5t-41 -35t-64.5 -28t-92.5 -14.5
q-19 -1 -36 6.5t-28 20t-18 29t-7 34.5q0 37 25.5 63.5t62.5 26.5zM451 190q108 22 185.5 59.5t114.5 77t41.5 77.5t-10.5 70t-47.5 54.5t-70.5 28t-78 -9.5t-71.5 -58.5t-50.5 -121.5t-13 -177z" />
    <glyph glyph-name="uniFEBE" unicode="&#x636;" horiz-adv-x="1633" arabic-form="final" 
d="M1153 997q22 0 42 -9t34.5 -24t22.5 -34.5t8 -42.5t-8 -43t-22.5 -35t-34.5 -24t-42 -9t-41 9t-33 24t-22.5 35t-8.5 43t8.5 42.5t22.5 34.5t33 24t41 9zM69 205q-15 69 -4 118.5t37.5 81t62 45t69.5 9.5t60.5 -25.5t32 -57.5t-14 -82t-66.5 -94q15 -67 48.5 -113
t75.5 -67t90 -21.5t96 14.5t92.5 42.5t76.5 60t48.5 67t13.5 58.5q-36 44 -46.5 83.5t-1.5 69.5t34.5 47t53.5 17.5t54 -15t36 -49.5q13 -44 21.5 -88t16 -77.5t8 -20t11.5 91.5t38 149t70 130t97.5 97t121 47t138.5 -20q44 -18 80 -49.5t61.5 -72.5t38 -89t7.5 -97
q-5 -58 -42.5 -113.5t-76.5 -90.5q6 -5 40.5 -17t85.5 -12q37 0 62.5 -26.5t25.5 -63.5q0 -36 -25 -63t-63 -27q-34 0 -70 9.5t-71 26t-68 38.5t-50 37q-57 -35 -131.5 -63.5t-144 -37.5t-129 4.5t-77.5 37.5q-44 -78 -121.5 -138.5t-162.5 -81.5t-171 -5t-159.5 67
t-128.5 134t-80 195zM1121 190q109 22 186.5 59.5t114 77t41.5 77.5t-11 70t-47.5 54.5t-70.5 28t-78 -9.5t-71 -58.5t-50.5 -121.5t-13.5 -177z" />
    <glyph glyph-name="uniFEBF" unicode="&#x636;" horiz-adv-x="983" arabic-form="initial" 
d="M485 997q22 0 42 -9t34 -24t22.5 -34.5t8.5 -42.5t-8.5 -43t-22.5 -35t-34 -24t-42 -9t-41.5 9t-33.5 24t-22.5 35t-8.5 43t8.5 42.5t22.5 34.5t33.5 24t41.5 9zM0 162q15 0 44 7t51.5 19t30 23.5t-3.5 25.5q-39 48 -50 87.5t-1.5 69.5t34.5 47t53.5 17.5t54.5 -15
t36 -49.5q14 -44 21.5 -88t15.5 -77.5t8.5 -20t11 91.5t38 149t69.5 130t97 97t121 47t139 -20q45 -18 81 -49.5t61.5 -72.5t37.5 -89t8 -97q-4 -53 -36 -104.5t-81 -97t-110 -84.5t-126.5 -66.5t-130.5 -42t-121.5 -11.5t-101 28.5t-47.5 34.5q11 26 -4 7.5t-41.5 -35
t-65 -28t-92.5 -14.5q-18 -1 -35 6.5t-28.5 20t-18.5 29t-7 34.5q0 37 26.5 63.5t61.5 26.5zM453 190q108 22 185.5 59.5t114.5 77t41.5 77.5t-11 70t-48 54.5t-70.5 28t-77.5 -9.5t-71 -58.5t-50.5 -121.5t-13 -177z" />
    <glyph glyph-name="uniFEC0" unicode="&#x636;" horiz-adv-x="965" arabic-form="medial" 
d="M485 997q22 0 41 -9t34 -24t23.5 -34.5t8.5 -42.5t-8.5 -43t-23.5 -35t-34 -24t-41 -9t-42 9t-34 24t-22.5 35t-8.5 43t8.5 42.5t22.5 34.5t34 24t42 9zM0 162q9 0 26 3t35 9.5t34 14.5t24.5 16.5t9.5 15t-7 16.5q-39 47 -50.5 87t-1.5 70t34.5 47t53 17.5t54 -15
t35.5 -49.5q14 -44 22 -88t16 -77.5t9 -20t11.5 91.5t38 149t69.5 130t97 97t121 47t139 -20q44 -18 80 -49.5t61.5 -72.5t37.5 -88.5t9 -96.5q-7 -65 -44.5 -119.5t-76.5 -85.5q6 -5 41 -17t87 -12q36 0 61 -26.5t25 -63.5q0 -36 -24.5 -63t-61.5 -27q-35 0 -72.5 10.5
t-74 28t-70 40.5t-51.5 39q-20 -11 -64 -33t-93.5 -42.5t-101.5 -33.5t-101 -9.5t-89 29.5t-45 41q11 26 -4 7.5t-41 -35t-64.5 -28t-92.5 -14.5q-19 -1 -36 6.5t-28 20t-18 29t-7 34.5q0 37 25.5 63.5t62.5 26.5zM451 190q108 22 185.5 59.5t114.5 77t41.5 77.5t-10.5 70
t-47.5 54.5t-70.5 28t-78 -9.5t-71.5 -58.5t-50.5 -121.5t-13 -177z" />
    <glyph glyph-name="uniFEC2" unicode="&#x637;" horiz-adv-x="866" arabic-form="final" 
d="M148 162q19 0 36 1t19 1q-9 82 1 172.5t44.5 163.5t95 123t90.5 40t9.5 4.5t-23.5 45.5q-12 135 -19 264.5t-10 259.5q0 11 0.5 27t6.5 31t19.5 27t37.5 11q5 0 15 4t24 8t29.5 -2.5t17.5 -33.5q9 -152 26.5 -304.5t23.5 -280.5q45 0 99 -28.5t93.5 -74.5t60 -105
t15.5 -121q-5 -64 -42.5 -119t-78.5 -85q6 -5 41 -17t87 -12q37 0 62.5 -26.5t25.5 -63.5q0 -36 -25.5 -63t-62.5 -27q-34 0 -71.5 10.5t-74 28t-70 40.5t-51.5 39q-36 -18 -92 -40.5t-115.5 -39.5t-119.5 -27.5t-115 -10.5q-38 0 -67.5 22.5t-29.5 67.5q0 37 25 63.5
t63 26.5zM354 190q108 22 185.5 59.5t114.5 77t41.5 77.5t-10.5 70t-47.5 54.5t-70.5 28t-78 -9.5t-71.5 -58.5t-50.5 -121.5t-13 -177z" />
    <glyph glyph-name="uniFEC3" unicode="&#x637;" horiz-adv-x="737" arabic-form="initial" 
d="M0 162q19 0 36 1t20 2q-9 81 1 171.5t44.5 163.5t94.5 123t90 40t10 4.5t-24 45.5q-11 135 -18.5 264.5t-9.5 259.5q0 11 0.5 27t6.5 31t18.5 27t37.5 11q5 0 15 4t24.5 8t30 -2t18.5 -33q9 -153 26 -305.5t22 -280.5q45 0 99.5 -28.5t94 -74.5t60 -105t15.5 -120
q-5 -67 -45.5 -123.5t-100.5 -101.5t-133.5 -80t-149 -59t-146.5 -36.5t-126 -13.5q-40 0 -69.5 22.5t-29.5 67.5q0 37 25 63.5t63 26.5zM207 190q108 22 185.5 59.5t114.5 77t41.5 77.5t-11 70t-48 54.5t-70.5 28t-77.5 -9.5t-71 -58.5t-50.5 -121.5t-13 -177z" />
    <glyph glyph-name="uniFEC4" unicode="&#x637;" horiz-adv-x="737" arabic-form="medial" 
d="M18 162q19 0 36 1t20 2q-9 81 1 171.5t44.5 163.5t94.5 123t90 40t9.5 4.5t-23.5 45.5q-11 135 -18.5 264.5t-9.5 258.5q-1 12 0 28t7 31t19.5 27t36.5 11q5 0 15 4t24 8t30 -2t18 -34q9 -152 26.5 -304.5t22.5 -280.5q45 0 99.5 -28.5t94 -74.5t60 -105t15.5 -121
q-7 -64 -44 -119t-77 -85q6 -5 41 -17t87 -12q37 0 62 -26.5t25 -63.5q0 -36 -25 -63t-62 -27q-35 0 -72.5 10.5t-74 28t-69.5 40.5t-51 39q-36 -18 -92 -40.5t-116 -39.5t-120 -27.5t-114 -10.5q-39 0 -68.5 22.5t-29.5 67.5q0 37 25 63.5t63 26.5zM225 190
q108 22 185.5 59.5t114.5 77t41.5 77.5t-11 70t-48 54.5t-70.5 28t-77.5 -9.5t-71 -58.5t-50.5 -121.5t-13 -177z" />
    <glyph glyph-name="uniFEC6" unicode="&#x638;" horiz-adv-x="866" arabic-form="final" 
d="M148 162q19 0 36 1t19 1q-9 82 1 172.5t44.5 163.5t95 123t90.5 40t9.5 4.5t-23.5 45.5q-12 135 -19 264.5t-10 259.5q0 11 0.5 27t6.5 31t19.5 27t37.5 11q5 0 15 4t24 8t29.5 -2.5t17.5 -33.5q9 -152 26.5 -304.5t23.5 -280.5q45 0 99 -28.5t93.5 -74.5t60 -105
t15.5 -121q-5 -64 -42.5 -119t-78.5 -85q6 -5 41 -17t87 -12q37 0 62.5 -26.5t25.5 -63.5q0 -36 -25.5 -63t-62.5 -27q-34 0 -71.5 10.5t-74 28t-70 40.5t-51.5 39q-36 -18 -92 -40.5t-115.5 -39.5t-119.5 -27.5t-115 -10.5q-38 0 -67.5 22.5t-29.5 67.5q0 37 25 63.5
t63 26.5zM354 190q108 22 185.5 59.5t114.5 77t41.5 77.5t-10.5 70t-47.5 54.5t-70.5 28t-78 -9.5t-71.5 -58.5t-50.5 -121.5t-13 -177zM716 1038q23 0 42.5 -8.5t34 -23.5t22 -35.5t7.5 -42.5t-7.5 -42.5t-22 -35.5t-34 -23.5t-42.5 -8.5q-22 0 -41.5 8.5t-33.5 23.5
t-22.5 35t-8.5 43t8.5 43t22.5 35t33.5 23.5t41.5 8.5z" />
    <glyph glyph-name="uniFEC7" unicode="&#x638;" horiz-adv-x="737" arabic-form="initial" 
d="M0 162q19 0 36 1t20 2q-9 81 1 171.5t44.5 163.5t94.5 123t90 40t10 4.5t-24 45.5q-11 135 -18.5 264.5t-9.5 259.5q0 11 0.5 27t6.5 31t18.5 27t37.5 11q5 0 15 4t24.5 8t30 -2t18.5 -33q9 -153 26 -305.5t22 -280.5q45 0 99.5 -28.5t94 -74.5t60 -105t15.5 -120
q-5 -67 -45.5 -123.5t-100.5 -101.5t-133.5 -80t-149 -59t-146.5 -36.5t-126 -13.5q-40 0 -69.5 22.5t-29.5 67.5q0 37 25 63.5t63 26.5zM207 190q108 22 185.5 59.5t114.5 77t41.5 77.5t-11 70t-48 54.5t-70.5 28t-77.5 -9.5t-71 -58.5t-50.5 -121.5t-13 -177zM569 1038
q22 0 41.5 -8.5t34 -23.5t23 -35t8.5 -43t-8.5 -43t-23 -35t-34 -23.5t-41.5 -8.5t-41 8.5t-34 23.5t-23.5 35t-8.5 43t8.5 43t23.5 35t34 23.5t41 8.5z" />
    <glyph glyph-name="uniFEC8" unicode="&#x638;" horiz-adv-x="737" arabic-form="medial" 
d="M18 162q19 0 36 1t20 2q-9 81 1 171.5t44.5 163.5t94.5 123t90 40t9.5 4.5t-23.5 45.5q-11 135 -18.5 264.5t-9.5 258.5q-1 12 0 28t7 31t19.5 27t36.5 11q5 0 15 4t24 8t30 -2t18 -34q9 -152 26.5 -304.5t22.5 -280.5q45 0 99.5 -28.5t94 -74.5t60 -105t15.5 -121
q-7 -64 -44 -119t-77 -85q6 -5 41 -17t87 -12q37 0 62 -26.5t25 -63.5q0 -36 -25 -63t-62 -27q-35 0 -72.5 10.5t-74 28t-69.5 40.5t-51 39q-36 -18 -92 -40.5t-116 -39.5t-120 -27.5t-114 -10.5q-39 0 -68.5 22.5t-29.5 67.5q0 37 25 63.5t63 26.5zM225 190
q108 22 185.5 59.5t114.5 77t41.5 77.5t-11 70t-48 54.5t-70.5 28t-77.5 -9.5t-71 -58.5t-50.5 -121.5t-13 -177zM587 1038q22 0 41.5 -8.5t34 -23.5t22 -35.5t7.5 -42.5t-7.5 -42.5t-22 -35.5t-34 -23.5t-41.5 -8.5t-41.5 8.5t-34 23.5t-23 35t-8.5 43t8.5 43t23 35
t34 23.5t41.5 8.5z" />
    <glyph glyph-name="uniFECA" unicode="&#x639;" horiz-adv-x="740" arabic-form="final" 
d="M740 -18q-41 0 -86 14.5t-87.5 38.5t-79 54t-47.5 44q-38 -47 -77 -116q-17 -30 -33.5 -62t-29.5 -66t-22 -67t-10 -64q-1 -57 22 -103t63 -79t94 -54t113 -28q46 -6 93 -3t89 15.5t76 35t56 53.5q27 39 54.5 47.5t42.5 -13.5t13.5 -55.5t-17.5 -71t-48.5 -75.5t-84 -68
t-123 -47t-167.5 -12q-110 6 -195 47.5t-141.5 107t-83 148t-21.5 170.5q4 50 15 96.5t28.5 88.5t38 79.5t41.5 70.5q49 75 98 125q-29 23 -73 57t-88 61l-56 7t-36.5 21.5t-10.5 50.5t12 91q6 45 36 75.5t72.5 48t93 24.5t102 7t102 -6t90 -15.5t68.5 -22t35 -26.5
q18 -16 6 -59t-35.5 -92.5t-55 -104t-52.5 -85.5q12 -10 38 -31t53 -37t55.5 -25.5t59.5 -9.5q37 0 62.5 -26.5t25.5 -63.5q0 -36 -25 -63t-63 -27zM265 483q8 -4 36.5 -25.5t51 -41.5t41 -38.5l22.5 -22.5q-7 -7 7 15.5t29 49.5t29 52.5t7 15.5q-18 5 -51.5 11.5t-64 6
t-63.5 -9t-44 -13.5z" />
    <glyph glyph-name="uniFECB" unicode="&#x639;" horiz-adv-x="780" arabic-form="initial" 
d="M0 -18q-37 0 -62.5 26.5t-25.5 63.5t25.5 63.5t62.5 26.5q18 0 66 5t62 7q2 -1 -25.5 30t-45 68.5t-24 81t2.5 93.5q16 85 62.5 135t107.5 70.5t129 17.5t130 -22.5t111 -51t73 -71.5q4 -21 -0.5 -45.5t-15.5 -45t-32 -32.5t-45 16q-27 31 -66.5 48.5t-82.5 23.5t-86 0.5
t-75.5 -20.5t-51.5 -35t-19 -43.5t23.5 -55t81.5 -67.5q55 -32 108 -36t108.5 5t113 21t131.5 8q22 -79 9.5 -118.5t-48 -58t-83 -23.5t-100.5 -9q-64 -6 -127 -18.5t-126.5 -25t-129.5 -22t-136 -10.5z" />
    <glyph glyph-name="uniFECC" unicode="&#x639;" horiz-adv-x="582" arabic-form="medial" 
d="M582 -18q-41 0 -86 14.5t-87.5 38.5t-79 54t-45.5 41q-13 -22 -47 -54.5t-73 -53t-80.5 -30.5t-84.5 -10q-36 0 -62 26.5t-26 63.5t26 63.5t63 26.5q31 -2 57 4.5t48 18t40.5 28t21.5 18.5q-31 25 -75 59t-88 61q-31 4 -55 7t-36.5 21.5t-10.5 50.5t12 91q6 45 36 75.5
t72.5 48t93 24.5t102 7t102 -6t90 -15.5t68.5 -22t35 -26.5q18 -16 6 -59t-35.5 -92.5t-55 -104t-52.5 -85.5q12 -10 38 -31t53 -37t55.5 -25.5t59.5 -9.5q37 0 62.5 -26.5t25.5 -63.5q0 -36 -25 -63t-63 -27zM107 483q7 -4 35.5 -25.5t51.5 -41.5t41 -38.5t22 -22.5
q-7 -7 7 15.5t29.5 49.5t29.5 52.5t7 15.5q-19 5 -52.5 11.5t-64 6t-63.5 -9t-43 -13.5z" />
    <glyph glyph-name="uniFECE" unicode="&#x63a;" horiz-adv-x="740" arabic-form="final" 
d="M368 931q23 0 42.5 -8.5t34 -23.5t22.5 -35t8 -43t-8 -42.5t-22.5 -34.5t-34 -23.5t-42.5 -8.5q-21 0 -40.5 8.5t-33.5 23.5t-22.5 34.5t-8.5 42.5t8.5 43t22.5 35t33.5 23.5t40.5 8.5zM740 -18q-41 0 -86 14.5t-87.5 38.5t-79 54t-47.5 44q-38 -47 -77 -116
q-17 -30 -33.5 -62t-29.5 -66t-22 -67t-10 -64q-1 -57 22 -103t63 -79t94 -54t113 -28q46 -6 93 -3t89 15.5t76 35t56 53.5q27 39 54.5 47.5t42.5 -13.5t13.5 -55.5t-17.5 -71t-48.5 -75.5t-84 -68t-123 -47t-167.5 -12q-110 6 -195 47.5t-141.5 107t-83 148t-21.5 170.5
q4 50 15 96.5t28.5 88.5t38 79.5t41.5 70.5q49 75 98 125q-29 23 -73 57t-88 61l-56 7t-36.5 21.5t-10.5 50.5t12 91q6 45 36 75.5t72.5 48t93 24.5t102 7t102 -6t90 -15.5t68.5 -22t35 -26.5q18 -16 6 -59t-35.5 -92.5t-55 -104t-52.5 -85.5q12 -10 38 -31t53 -37
t55.5 -25.5t59.5 -9.5q37 0 62.5 -26.5t25.5 -63.5q0 -36 -25 -63t-63 -27zM265 483q8 -4 36.5 -25.5t51 -41.5t41 -38.5l22.5 -22.5q-7 -7 7 15.5t29 49.5t29 52.5t7 15.5q-18 5 -51.5 11.5t-64 6t-63.5 -9t-44 -13.5z" />
    <glyph glyph-name="uniFECF" unicode="&#x63a;" horiz-adv-x="780" arabic-form="initial" 
d="M0 -18q-37 0 -62.5 26.5t-25.5 63.5t25.5 63.5t62.5 26.5q18 0 66 5t62 7q2 -1 -25.5 30t-45 68.5t-24 81t2.5 93.5q16 85 62.5 135t107.5 70.5t129 17.5t130 -22.5t111 -51t73 -71.5q4 -21 -0.5 -45.5t-15.5 -45t-32 -32.5t-45 16q-27 31 -66.5 48.5t-82.5 23.5t-86 0.5
t-75.5 -20.5t-51.5 -35t-19 -43.5t23.5 -55t81.5 -67.5q55 -32 108 -36t108.5 5t113 21t131.5 8q22 -79 9.5 -118.5t-48 -58t-83 -23.5t-100.5 -9q-64 -6 -127 -18.5t-126.5 -25t-129.5 -22t-136 -10.5zM289 931q22 0 41.5 -8.5t34 -23.5t23 -35t8.5 -43t-8.5 -42.5
t-23 -34.5t-34 -23.5t-41.5 -8.5t-41.5 8.5t-33.5 23.5t-22 35t-8 42t7.5 42.5t22 35.5t34 23.5t41.5 8.5z" />
    <glyph glyph-name="uniFED0" unicode="&#x63a;" horiz-adv-x="582" arabic-form="medial" 
d="M205 931q22 0 41.5 -8.5t34 -23.5t22.5 -35t8 -43t-8 -42.5t-22.5 -34.5t-34 -23.5t-41.5 -8.5q-21 0 -40.5 8.5t-34 23.5t-23 34.5t-8.5 42.5t8.5 43t23 35t34 23.5t40.5 8.5zM582 -18q-41 0 -86 14.5t-87.5 38.5t-79 54t-45.5 41q-13 -22 -47 -54.5t-73 -53
t-80.5 -30.5t-84.5 -10q-36 0 -62 26.5t-26 63.5t26 63.5t63 26.5q31 -2 57 4.5t48 18t40.5 28t21.5 18.5q-31 25 -75 59t-88 61q-31 4 -55 7t-36.5 21.5t-10.5 50.5t12 91q6 45 36 75.5t72.5 48t93 24.5t102 7t102 -6t90 -15.5t68.5 -22t35 -26.5q18 -16 6 -59t-35.5 -92.5
t-55 -104t-52.5 -85.5q12 -10 38 -31t53 -37t55.5 -25.5t59.5 -9.5q37 0 62.5 -26.5t25.5 -63.5q0 -36 -25 -63t-63 -27zM107 483q7 -4 35.5 -25.5t51.5 -41.5t41 -38.5t22 -22.5q-7 -7 7 15.5t29.5 49.5t29.5 52.5t7 15.5q-19 5 -52.5 11.5t-64 6t-63.5 -9t-43 -13.5z" />
    <glyph glyph-name="uniFED2" unicode="&#x641;" horiz-adv-x="1499" arabic-form="final" 
d="M790 167q20 2 38 4t31 4t-5.5 -2t23.5 -25q-53 44 -77.5 99.5t-25 112t21.5 110t62.5 94t99 61t130.5 12.5q66 -7 119.5 -33.5t90.5 -65.5t57 -87.5t19 -98.5t-25 -99t-44 -66q9 -2 51 -10q36 -7 75.5 -12t67.5 -3q38 0 62.5 -26.5t24.5 -63.5t-24.5 -63.5t-61.5 -26.5
q-51 0 -101 7t-99 19t-95 25.5t-83 23.5q-65 -25 -158.5 -44t-195.5 -26t-206.5 0t-198 33.5t-169 75t-119.5 124.5q-14 26 -14 51.5t13 45.5t37 29.5t54 7.5q45 -3 88.5 -21t89.5 -41t94.5 -47.5t103.5 -44.5t116.5 -30t132.5 -3zM1059 479q-39 2 -64.5 -14.5t-39 -42
t-13 -57t15.5 -60t45 -49t74 -24.5q39 14 68 38t43 51t13.5 54t-14.5 49t-46 37.5t-82 17.5zM1099 920q45 0 76 -32t31 -78q0 -45 -31 -77t-76 -32q-22 0 -41.5 8.5t-33 23.5t-22 34.5t-8.5 42.5q0 46 30.5 78t74.5 32z" />
    <glyph glyph-name="uniFED3" unicode="&#x641;" horiz-adv-x="619" arabic-form="initial" 
d="M-1 -18q-36 1 -60.5 27t-24.5 63t24.5 63.5t61.5 26.5q38 0 69.5 0.5t60.5 3.5t57 9t6 -2q-60 17 -127 72.5t-91.5 123t-9 137t63 126t120.5 93.5t164 39q72 2 129 -31.5t93.5 -88.5t51 -125.5t2.5 -144t-51.5 -144.5t-112 -126t-178 -88.5t-248.5 -33.5zM330 595
q-75 -6 -120.5 -34t-63.5 -63t-10.5 -72t38 -65.5t87.5 -41.5t133 4q14 14 22.5 42t9 60.5t-7.5 64.5t-21.5 56.5t-30.5 37.5t-36 11zM221 1039q22 0 41.5 -9t33 -24t22 -34.5t8.5 -42.5t-8.5 -42.5t-22 -34.5t-33 -23.5t-41.5 -8.5t-41.5 8.5t-34 23.5t-23 34.5t-8.5 42.5
t8.5 42.5t22.5 34.5t34 24t42 9z" />
    <glyph glyph-name="uniFED4" unicode="&#x641;" horiz-adv-x="831" arabic-form="medial" 
d="M0 162q13 -1 34.5 -0.5t46.5 2t50 4t44.5 5t14 1.5t17.5 -24q-51 42 -75.5 97.5t-25 112t21 110t62 94t99 61t130.5 12.5q66 -7 120 -33.5t91 -65.5t57 -87.5t19 -98.5t-25 -99t-44 -66q10 -2 51 -10q36 -7 75 -12t68 -3q37 0 62 -26.5t25 -63.5t-25 -63.5t-61 -26.5
q-51 0 -101 7t-99 19t-95 25.5t-83 23.5q-23 -9 -78 -24t-121.5 -27.5t-138 -20t-131.5 -3.5q-34 4 -57 29.5t-23 60.5q0 38 27.5 66t67.5 24zM389 479q-38 2 -63.5 -14.5t-38.5 -42t-12.5 -57t15.5 -60t45 -49t74 -24.5q39 14 68 38t42.5 51t13.5 54t-14.5 49t-46.5 37.5
t-83 17.5zM431 920q45 0 76 -32t31 -78q0 -45 -31 -77t-76 -32q-22 0 -41.5 8.5t-33.5 23.5t-22.5 34.5t-8.5 42.5q0 46 31 78t75 32z" />
    <glyph glyph-name="uniFED6" unicode="&#x642;" horiz-adv-x="1412" arabic-form="final" 
d="M688 390q6 52 29.5 100t63.5 83.5t96 53t122 10.5q67 -7 120.5 -33.5t91.5 -65.5t57.5 -87.5t18 -98.5t-25 -99t-44.5 -66q9 -2 52 -10q35 -7 74.5 -12t68.5 -3q37 0 62 -26.5t25 -63.5t-25 -63.5t-61 -26.5q-44 -1 -98.5 1.5t-114.5 10t-121.5 21t-110.5 30.5
q-131 -71 -257.5 -95.5t-234.5 -8t-193 69.5t-139.5 131t-73.5 176.5t3 205.5q7 25 32.5 29.5t49 1t46.5 -14t20 -32.5q-6 -92 14 -160.5t59 -114.5t94.5 -72.5t123.5 -35t145 0.5t122 23q-32 24 -65.5 88t-25.5 153zM972 479q-40 2 -65.5 -14.5t-39 -42t-13 -57t15.5 -60
t45.5 -49t72.5 -24.5q39 14 68.5 38.5t43.5 51t14 53.5t-14.5 49t-46 37.5t-81.5 17.5zM822 974q22 0 41.5 -9t34 -24t22.5 -34.5t8 -42.5t-8 -42.5t-22.5 -34.5t-34 -23.5t-41.5 -8.5q-44 0 -75.5 32t-31.5 77q0 23 8.5 42.5t23 34.5t34 24t41.5 9zM1012 920q45 0 75.5 -32
t30.5 -78q0 -45 -30.5 -77t-75.5 -32t-76 32t-31 77q0 46 31 78t76 32z" />
    <glyph glyph-name="uniFED7" unicode="&#x642;" horiz-adv-x="619" arabic-form="initial" 
d="M-1 -18q-36 1 -60.5 27t-24.5 63t24.5 63.5t61.5 26.5q38 0 69.5 0.5t60.5 3.5t57 9t6 -2q-60 17 -127 72.5t-91.5 123t-9 137t63 126t120.5 93.5t164 39q72 2 129 -31.5t93.5 -88.5t51 -125.5t2.5 -144t-51.5 -144.5t-112 -126t-178 -88.5t-248.5 -33.5zM330 595
q-75 -6 -120.5 -34t-63.5 -63t-10.5 -72t38 -65.5t87.5 -41.5t133 4q14 14 22.5 42t9 60.5t-7.5 64.5t-21.5 56.5t-30.5 37.5t-36 11zM30 1092q45 0 76 -32t31 -77q0 -23 -8.5 -43t-22.5 -35t-34 -24t-42 -9t-41.5 9t-33.5 24t-22.5 35t-8.5 43t8.5 42.5t22.5 34.5
t33.5 23.5t41.5 8.5zM221 1039q22 0 41.5 -9t33 -24t22 -34.5t8.5 -42.5t-8.5 -42.5t-22 -34.5t-33 -23.5t-41.5 -8.5t-41.5 8.5t-34 23.5t-23 34.5t-8.5 42.5t8.5 42.5t22.5 34.5t34 24t42 9z" />
    <glyph glyph-name="uniFED8" unicode="&#x642;" horiz-adv-x="831" arabic-form="medial" 
d="M0 162q13 -1 34.5 -0.5t46.5 2t50 4t44.5 5t14 1.5t17.5 -24q-51 42 -75.5 97.5t-25 112t21 110t62 94t99 61t130.5 12.5q66 -7 120 -33.5t91 -65.5t57 -87.5t19 -98.5t-25 -99t-44 -66q10 -2 51 -10q36 -7 75 -12t68 -3q37 0 62 -26.5t25 -63.5t-25 -63.5t-61 -26.5
q-51 0 -101 7t-99 19t-95 25.5t-83 23.5q-23 -9 -78 -24t-121.5 -27.5t-138 -20t-131.5 -3.5q-34 4 -57 29.5t-23 60.5q0 38 27.5 66t67.5 24zM389 479q-38 2 -63.5 -14.5t-38.5 -42t-12.5 -57t15.5 -60t45 -49t74 -24.5q39 14 68 38t42.5 51t13.5 54t-14.5 49t-46.5 37.5
t-83 17.5zM241 974q46 0 76.5 -32.5t30.5 -77.5t-30.5 -77t-76.5 -32q-45 0 -75.5 32t-30.5 77t30.5 77.5t75.5 32.5zM431 920q45 0 76 -32t31 -78q0 -45 -31 -77t-76 -32q-22 0 -41.5 8.5t-33.5 23.5t-22.5 34.5t-8.5 42.5q0 46 31 78t75 32z" />
    <glyph glyph-name="uniFEDA" unicode="&#x643;" horiz-adv-x="1253" arabic-form="final" 
d="M69 205q-15 69 -4 118.5t37.5 81t62 45t69.5 9.5t60.5 -25.5t32 -57.5t-14 -82t-66.5 -94q21 -91 74 -141.5t120 -59.5t141 21.5t138 95t108 160.5t49 218q3 57 -2.5 117t-13.5 122t-16 125t-9 127q-1 41 20 68t50 32.5t55 -15.5t30 -69q27 -125 41.5 -251.5t-0.5 -257.5
q-4 -33 -7 -66.5t-3.5 -63t3 -51t10.5 -30.5q41 -52 94 -85.5t125 -33.5q36 0 61 -26.5t25 -63.5q0 -36 -24.5 -63t-61.5 -27q-41 0 -86 14t-87 37.5t-78 52.5t-42 36q-39 -100 -118.5 -179.5t-170.5 -114.5t-186.5 -26t-179.5 58.5t-146.5 136.5t-89.5 208zM697 561
q-11 4 -34 8.5t-47.5 4.5t-40.5 -5t-19 -16q-4 -11 -1 -15.5t14.5 -8t31 -5t41.5 -2.5t43 -5t36 -16q34 -29 30 -69t-34 -74q-24 -28 -61 -48.5t-80.5 -25.5t-90.5 10t-90 59q-11 11 -14.5 26.5t-0.5 30t13 27t35 12.5q18 -16 35 -25t36 -14t37 -6.5t31 2.5q-9 4 -31 8.5
t-44 14.5t-40.5 28.5t-25.5 49.5q-7 23 -4 50t14 51.5t31 45.5t46 34q32 15 67.5 22t71.5 6t69 -10t59 -26q17 -13 14 -36.5t-14.5 -43.5t-33 -34t-49.5 -5z" />
    <glyph glyph-name="uniFEDE" unicode="&#x644;" horiz-adv-x="1253" arabic-form="final" 
d="M69 205q-15 69 -4 118.5t37.5 81t62 45t69.5 9.5t60.5 -25.5t32 -57.5t-14 -82t-66.5 -94q21 -91 74 -141.5t120 -59.5t141 21.5t138 95t108 160.5t49 218q3 57 -2.5 117t-13.5 122t-16 125t-9 127q-1 41 20 68t50 32.5t55 -15.5t30 -69q27 -125 41.5 -251.5t-0.5 -257.5
q-4 -33 -7 -66.5t-3.5 -63t3 -51t10.5 -30.5q41 -52 94 -85.5t125 -33.5q36 0 61 -26.5t25 -63.5q0 -36 -24.5 -63t-61.5 -27q-41 0 -86 14t-87 37.5t-78 52.5t-42 36q-39 -100 -118.5 -179.5t-170.5 -114.5t-186.5 -26t-179.5 58.5t-146.5 136.5t-89.5 208z" />
    <glyph glyph-name="uniFEDF" unicode="&#x644;" horiz-adv-x="314" arabic-form="initial" 
d="M87 943q0 65 22.5 99t54 33t53 -35.5t20.5 -90.5q-1 -50 4.5 -109t14 -124t16.5 -132t13 -134q7 -91 1.5 -174t-35 -149t-90 -105.5t-160.5 -39.5q-38 0 -63 27t-25 63q0 37 25.5 63.5t62.5 26.5q11 0 32.5 4t42.5 12t35.5 18t17.5 20q5 17 4.5 67.5t-4.5 120.5
t-11 149.5t-14 155t-11.5 137.5t-5.5 97z" />
    <glyph glyph-name="uniFEE0" unicode="&#x644;" horiz-adv-x="426" arabic-form="medial" 
d="M78 943q0 65 20.5 99t51.5 33t53 -35t25 -90q2 -51 5 -113t7 -128.5t9.5 -134.5t13.5 -132q5 -51 9 -103t18 -91.5t44.5 -63t91.5 -22.5q37 0 62.5 -26.5t25.5 -63.5q0 -36 -25 -63t-63 -27q-74 0 -129.5 19t-82.5 43q-36 -27 -96.5 -44.5t-117.5 -17.5q-38 0 -63 27
t-25 63q0 37 25.5 63.5t62.5 26.5q44 -1 69.5 7t37.5 22.5t16 39.5t2 61q-3 44 -7.5 104t-9.5 125.5t-10.5 132t-10 124t-7 101t-2.5 64.5z" />
    <glyph glyph-name="uniFEE2" unicode="&#x645;" horiz-adv-x="1027" arabic-form="final" 
d="M645 495q-48 -12 -73.5 -33.5t-33.5 -47t0 -51t31 -45t63 -29.5t87 -1q5 6 10.5 28.5t4.5 49.5t-7.5 53.5t-18.5 44.5t-27 27t-36 4zM396 285q-7 16 -11 33q-12 45 -3.5 90.5t34 86.5t64 73t85.5 52t100 21q79 2 131.5 -41.5t76.5 -108t22 -136.5t-28 -129
q-3 -9 8.5 -20.5t33.5 -22t47 -16t39 -5.5q37 0 62.5 -26.5t25.5 -63.5q0 -36 -25 -63t-63 -27q-41 0 -84.5 9t-83 27t-72 47t-44.5 59q-20 -2 -132 23q-47 7 -108 2q-58 -6 -100 -32.5t-68 -75t-37 -99.5t-9.5 -106.5t16.5 -110t40.5 -100t61 -78.5t77.5 -47
q46 -15 61.5 -38t-1 -44t-48.5 -29t-72.5 -3.5t-86 23.5t-89 59.5t-81 103.5t-60.5 157q-28 107 -13 199t60.5 164t116 121.5t155.5 71.5h2z" />
    <glyph glyph-name="uniFEE3" unicode="&#x645;" horiz-adv-x="613" arabic-form="initial" 
d="M0 162q15 0 43 6.5t51 18.5t31 23.5t0 23.5q-36 38 -48 83.5t-3.5 91t34.5 86.5t63.5 73t85.5 52t101 21q68 2 116 -30.5t75 -81.5t35 -108t-1 -114.5t-34 -101t-66 -64.5t-97 -17t-94 14q-8 -28 -40 -61.5t-73.5 -54t-88 -30.5t-90.5 -10q-37 0 -61.5 27t-24.5 63
q0 37 25 63.5t61 26.5zM339 495q-48 -12 -74 -33.5t-34 -47t0 -51t31 -45t62.5 -29.5t87.5 -1q5 6 10.5 28.5t5 49.5t-7.5 53.5t-18.5 45t-26.5 27t-36 3.5z" />
    <glyph glyph-name="uniFEE4" unicode="&#x645;" horiz-adv-x="688" arabic-form="medial" 
d="M0 162q9 0 25.5 2.5t34 9t34 14t25.5 16t10.5 15.5t-4.5 14q-37 39 -48.5 84.5t-3 91t34.5 86.5t63.5 73t85.5 52t101 21q79 2 131 -41.5t76.5 -108t22.5 -136.5t-29 -129q-3 -9 8.5 -20.5t34 -22t47.5 -16t39 -5.5q37 0 62 -26.5t25 -63.5q0 -36 -25 -63t-62 -27
q-41 0 -85 9t-83.5 27t-72 47t-44.5 59q-20 -2 -56.5 3t-54.5 11q-8 -28 -40.5 -61.5t-74 -54t-88 -30.5t-89.5 -10q-38 0 -63 27t-25 63q0 37 25.5 63.5t62.5 26.5zM338 495q-48 -12 -73.5 -33.5t-33.5 -47t0 -51t31 -45t62.5 -29.5t86.5 -1q5 6 10.5 28.5t5 49.5
t-7.5 53.5t-18.5 45t-26.5 27t-36 3.5z" />
    <glyph glyph-name="uniFEE6" unicode="&#x646;" horiz-adv-x="1223" arabic-form="final" 
d="M83 168q-18 49 -21 93t5 77.5t27.5 54.5t45.5 12.5t46 -41t35 -92.5q17 -69 60.5 -121.5t102.5 -86.5t127.5 -46.5t133 -1.5t119 47t88.5 99q36 68 65 103.5t57 47t44.5 -9.5t18.5 -49q9 -15 24 -32.5t37 -30.5t52.5 -21t72.5 -8q37 0 62 -26.5t25 -63.5q0 -36 -25 -63
t-62 -27q-30 0 -62.5 8t-64.5 22t-62.5 32t-38.5 25q-21 -46 -72.5 -92.5t-114.5 -74.5t-135 -37t-144 -2t-141.5 31t-129 62.5t-105.5 92t-70 119.5zM563 500q44 0 74.5 -32t30.5 -78q0 -23 -8 -42.5t-22 -34.5t-33.5 -23.5t-41.5 -8.5q-44 0 -75.5 32t-31.5 77
q0 46 31.5 78t75.5 32z" />
    <glyph glyph-name="uniFEE7" unicode="&#x646;" horiz-adv-x="325" arabic-form="initial" 
d="M0 162q9 0 26 3t35 9.5t34 14.5t24.5 16.5t9.5 15t-7 16.5q-39 48 -50 87.5t-1.5 69.5t34.5 47t53.5 17.5t54.5 -15t36 -49.5q7 -24 16.5 -43t18.5 -39.5t15 -45t6 -57.5q-1 -60 -31 -103t-75 -70.5t-97.5 -40.5t-101.5 -13q-38 0 -63 27t-25 63q0 37 25.5 63.5
t62.5 26.5zM85 758q45 0 76 -32t31 -78q0 -45 -31 -77t-76 -32q-22 0 -41.5 8.5t-33 23.5t-22 34.5t-8.5 42.5q0 46 30.5 78t74.5 32z" />
    <glyph glyph-name="uniFEE8" unicode="&#x646;" horiz-adv-x="584" arabic-form="medial" 
d="M584 -18q-42 0 -87 14.5t-87.5 38.5t-79 54t-40.5 35q-4 -14 -37.5 -47t-75.5 -54t-88.5 -31t-88.5 -10q-37 0 -61.5 26.5t-24.5 63.5t24.5 63.5t61.5 26.5q57 -1 86 13t40 36t8.5 54t-12 69t-23 75t-22.5 70q-11 39 -7 66t19.5 42.5t38 16.5t43.5 -8t39 -26.5t28 -41.5
q16 -40 35 -83t41.5 -84t49.5 -77.5t60 -63.5t72.5 -42.5t87.5 -15.5q37 0 62.5 -26.5t25.5 -63.5q0 -36 -25.5 -63t-62.5 -27zM90 899q22 0 42 -9t34 -24t22.5 -35t8.5 -43q0 -45 -31 -77t-76 -32q-22 0 -41.5 8.5t-33.5 23.5t-22.5 34.5t-8.5 42.5t8.5 43t22.5 35t33.5 24
t41.5 9z" />
    <glyph glyph-name="uniFEEA" unicode="&#x647;" horiz-adv-x="878" arabic-form="final" 
d="M878 -18q-48 0 -92.5 8t-81.5 27.5t-85 70.5q-2 -8 -55 -49t-118 -53.5t-134 1.5t-125.5 53t-92.5 102.5t-33 147.5q3 76 33.5 140t79 109t110 70t124.5 25q76 0 129.5 -14t90 -38.5t58 -57.5t32 -69.5t13 -73.5t3.5 -71t3 -63t8 -48q6 -17 19 -25t31.5 -11t41 -2t41.5 1
q43 0 65 -28.5t22 -61.5t-22 -61.5t-65 -28.5zM581 339q-2 44 -29 78.5t-67 47t-87.5 3.5t-89 -34.5t-68 -65t-26.5 -88.5q0 -24 17.5 -48.5t45.5 -44t60.5 -29.5t59.5 -5.5t45.5 24t21.5 60.5q3 31 18.5 51.5t36 32t42.5 15t20 3.5z" />
    <glyph glyph-name="uniFEEB" unicode="&#x647;" horiz-adv-x="893" arabic-form="initial" 
d="M324 28q-22 -13 -65.5 -23t-90 -15t-91 -6.5t-77.5 -1.5q-43 0 -64.5 28.5t-21.5 61.5t21.5 61.5t64.5 28.5q38 0 74.5 -0.5t38.5 -0.5q-11 14 -24 71.5t-8.5 115.5t26 111.5t31.5 62.5q23 -5 6 -5.5t-35 1t-35.5 8.5t-24.5 28q-3 13 -1.5 32.5t8 38.5t19 36.5t35.5 17.5
q121 -4 222 -12.5t182.5 -23.5t142 -37.5t101.5 -56.5q53 -46 79.5 -99.5t30 -109.5t-14 -110t-52 -100t-85.5 -80t-113.5 -49.5t-135 -9.5t-143.5 37zM293 192q31 8 59.5 28t44.5 44t20.5 50t-1 49t-19.5 40t-35 25q-31 11 -61.5 -3t-46 -46.5t-9 -83.5t47.5 -103zM581 448
q9 -25 8 -77.5t-14.5 -98.5t-33.5 -83t-13 -27q33 3 79 27.5t68.5 55t25.5 63t-13 62t-50.5 52.5t-56.5 26z" />
    <glyph glyph-name="uniFEEC" unicode="&#x647;" horiz-adv-x="885" arabic-form="medial" 
d="M885 -18q-33 0 -57 1.5t-41.5 3.5t-31 6t-1.5 -2q-6 -56 -37.5 -117t-81 -99t-116 -51t-144.5 -2q-61 8 -116.5 32t-90.5 64t-38 96t42 126q2 2 3.5 4.5t-23.5 -34.5q33 10 4.5 2.5t-60 -14t-59 -11.5t-41.5 -5q-35 3 -59 28.5t-24 61.5q0 37 25.5 63.5t61.5 26.5
q32 2 71.5 4t82 8t86.5 18t73 27q-21 54 -23.5 110.5t14.5 100t49 73.5t72.5 47.5t87 23t91.5 1.5q87 -8 137 -37t69 -71.5t9.5 -90t-37.5 -91t-70 -80t-40 -35.5q-19 4 13 0t63.5 -5.5t65 -2t71.5 -0.5q37 0 62 -26.5t25 -63.5t-25 -63.5t-62 -26.5zM461 53
q-61 0 -97 -13.5t-50 -30.5t-10.5 -35.5t23.5 -37t60 -32t98 -13.5q43 0 62.5 11.5t24 28t-2.5 37.5t-23.5 40.5t-39 32t-45.5 12.5zM486 267q0 8 5.5 10t34 13.5t65 29t74.5 39.5q5 3 3.5 7t-20 14.5t-48.5 18.5t-61 8t-55.5 -9t-35.5 -28q-9 -15 -9 -32t6 -33t14 -25
t27 -13z" />
    <glyph glyph-name="uniFEEE" unicode="&#x648;" horiz-adv-x="782" arabic-form="final" 
d="M97 -106q68 35 133 70t83 51q-65 -2 -135.5 37t-102 102.5t-25.5 141.5t42 152t98 138.5t146 100.5q85 40 152.5 37.5t115 -38t73.5 -96.5t31 -135t-11 -157t-42 -141q16 0 56.5 2.5t70.5 2.5q36 0 61.5 -26.5t25.5 -63.5q0 -36 -25.5 -63t-61.5 -27h-36.5h-56.5t-68 1
t-63 2q-68 -92 -147.5 -149t-152 -82.5t-132 -23.5t-92.5 26t-18.5 64t81.5 74zM277 423q-39 -50 -52 -99t5 -84.5t75 -55.5t156 -9q39 57 56.5 120.5t14 115t-24 85t-52 41t-77.5 -17t-101 -96.5z" />
    <glyph glyph-name="uniFEF0" unicode="&#x649;" horiz-adv-x="1064" arabic-form="final" 
d="M984 -21l2 2l2 -5q19 -81 7 -142t-46 -104.5t-85.5 -70.5t-112.5 -39t-128.5 -10t-134.5 16q-116 25 -199.5 72.5t-136.5 109t-75 133.5t-14.5 144.5t43 141t96.5 123t147 92.5t194 49q35 4 73 4.5t77 -2.5q22 -3 25 -20t-1 -33t-11 -33t-16 -32t-21 -27.5t-26 -12.5
q-102 -3 -184.5 -36t-136.5 -81t-76 -106t-6 -112.5t75.5 -102.5t173.5 -77q22 -5 56.5 -9.5t73.5 -5.5t78 4.5t68.5 17t46 31t17.5 49.5q1 18 -15 34t-44 30.5t-64.5 25t-71 17.5t-63 11.5t-40.5 6.5q-46 10 -74 26.5t-41.5 37.5t-13 42.5t11.5 39t29.5 27t39.5 5.5
q79 -16 133 -26t96 -15t77 -7t75 -2t92 1t126 1q39 0 62 -25t25.5 -56t-14.5 -60.5t-55 -37.5q-11 -2 -31 -2.5t-40.5 -1.5t-34.5 -2t-10 2z" />
    <glyph glyph-name="uniFEF2" unicode="&#x64a;" horiz-adv-x="1081" arabic-form="final" 
d="M984 -21l2 2l2 -5q19 -81 7 -142t-46 -104.5t-85.5 -70.5t-112.5 -39t-128.5 -10t-134.5 16q-116 25 -199.5 72.5t-136.5 109t-75 133.5t-14.5 144.5t43 141t96.5 123t147 92.5t194 49q35 4 73 4.5t77 -2.5q22 -3 25 -20t-1 -33t-11 -33t-16 -32t-21 -27.5t-26 -12.5
q-102 -3 -184.5 -36t-136.5 -81t-76 -106t-6 -112.5t75.5 -102.5t173.5 -77q22 -5 56.5 -9.5t73.5 -5.5t78 4.5t68.5 17t46 31t17.5 49.5q1 18 -15 34t-44 30.5t-64.5 25t-71 17.5t-63 11.5t-40.5 6.5q-46 10 -74 26.5t-41.5 37.5t-13 42.5t11.5 39t29.5 27t39.5 5.5
q79 -16 133 -26t96 -15t77 -7t75 -2t92 1t126 1q39 0 62 -25t25.5 -56t-14.5 -60.5t-55 -37.5q-11 -2 -31 -2.5t-40.5 -1.5t-34.5 -2t-10 2zM354 -445q45 0 76 -32t31 -77q0 -46 -31 -78.5t-76 -32.5q-43 0 -74.5 32.5t-31.5 78.5q0 23 8.5 42.5t23 34.5t34 23.5t40.5 8.5z
M544 -499q45 0 75.5 -32t30.5 -77q0 -23 -8 -43t-22.5 -35t-34 -24t-41.5 -9t-41 9t-33.5 24t-23 35t-8.5 43t8.5 42.5t23 34.5t34 23.5t40.5 8.5z" />
    <glyph glyph-name=".notdef" horiz-adv-x="902" 
d="M49 -18v1436h840v-1436h-840zM133 66h672v1268h-672v-1268zM269 1130q37 33 65 50q56 30 119 30q97 0 156.5 -51t59.5 -137q0 -52 -23.5 -103.5t-86.5 -131.5q-62 -78 -95 -125.5t-33 -87.5q0 -36 27 -148h-66q-39 109 -39 162q0 79 79 218t79 206q0 49 -26.5 75.5
t-75.5 26.5q-33 0 -59 -14q-25 -13 -81 -61v91zM336 338l56 57q16 15 33 15q15 0 32 -15l58 -60q12 -18 12 -31q0 -19 -15 -34l-54 -60q-20 -20 -33 -20q-21 0 -34 17l-60 70q-10 13 -10 27q0 17 15 34z" />
    <glyph glyph-name="uni0000" 
 />
    <glyph glyph-name="uni0000" 
 />
    <glyph glyph-name="nonmarkingreturn" horiz-adv-x="682" 
 />
    <glyph glyph-name="space" unicode=" " horiz-adv-x="200" 
 />
    <glyph glyph-name="space" unicode="&#xa0;" horiz-adv-x="200" 
 />
    <glyph glyph-name="exclam" unicode="!" horiz-adv-x="444" 
d="M362 -22q-23 -22 -56 -22t-57 19q-26 25 -43 57.5t-19 65t18.5 58.5t68.5 31q33 3 56.5 -8t37.5 -30t20 -43t4.5 -47t-9 -45t-21.5 -36zM266 926q32 -70 47 -144.5t23.5 -151t14.5 -152.5t18 -150q6 -31 -6.5 -58t-34 -45t-49.5 -25.5t-54.5 4t-43.5 42t-19 82.5
q-3 72 -11.5 143.5t-21 141.5t-29.5 135.5t-36 124.5q-14 45 6 80.5t56 47.5t76 -4t64 -71z" />
    <glyph glyph-name="quotedbl" unicode="&#x22;" horiz-adv-x="622" 
d="M113 860q-23 25 -10 76q11 38 44.5 57.5t74.5 9.5q32 -9 60 -29q26 -25 35.5 -53.5t7.5 -61.5q-7 -43 -30 -79q-17 -27 -42.5 -53t-48.5 -43q-26 -19 -57 -19q-48 0 -78 41q-19 26 -19 56q0 24 10.5 44.5t30.5 34.5q8 5 16 13t6 6zM360 848q-5 4 -14 26.5t-5 46.5
q3 20 13.5 36t24.5 27t32.5 16.5t39.5 3.5q37 -6 63 -24q30 -20 43 -47t15 -61q-1 -21 -6.5 -41t-15.5 -40q-12 -28 -33.5 -57t-44.5 -50q-24 -22 -54 -26q-23 -2 -45 6t-36 26q-24 23 -27 54q-2 23 5.5 45t25.5 37q8 6 15 15.5t4 6.5z" />
    <glyph glyph-name="numbersign" unicode="#" horiz-adv-x="975" 
d="M587 1041q5 40 36 65.5t71 20.5q40 -4 65 -34t21 -71l-24 -229l70 2q40 2 69 -25.5t29 -66.5q1 -21 -5.5 -39t-19.5 -31.5t-30.5 -22t-37.5 -9.5l-95 -3l-16 -149l66 2q40 2 69.5 -25.5t30.5 -67.5q1 -41 -26.5 -70t-67.5 -30l-92 -3l-28 -268q-5 -40 -35.5 -66
t-71.5 -22q-40 5 -64.5 36.5t-21.5 70.5l26 243l-108 -3l-28 -265q-5 -40 -35 -65t-69 -21q-41 4 -67 36t-20 71l25 238l-51 -1q-41 -1 -70.5 26.5t-30.5 66.5q-1 41 26.5 70t67.5 31l78 2l15 149l-47 -1q-41 -2 -70 25.5t-30 67.5q-1 41 26.5 70t67.5 30l74 2l26 254
q5 39 36.5 64.5t70.5 20.5q40 -4 65.5 -34t20.5 -71l-24 -228l107 3zM417 440l108 3l15 150l-107 -3z" />
    <glyph glyph-name="dollar" unicode="$" horiz-adv-x="1001" 
d="M353 -84q-34 7 -81 28.5t-87.5 52t-73 66.5t-51.5 76q-10 20 -10 43q0 27 15 50.5t41 35.5q20 9 40 9q28 0 52 -13.5t36 -40.5q20 -41 64.5 -73t79.5 -40l39 326q-44 15 -99 36.5t-98 53t-69.5 76t-26.5 108.5q0 31 8 67q16 79 50 138.5t84 98.5t112 60t120 26l4 28
q6 40 37 64.5t71 19.5q40 -4 65 -36t19 -72l-1 -6q54 -6 116.5 -36t101.5 -89q21 -31 30.5 -66t9.5 -70q0 -53 -19 -100q-15 -38 -52 -54t-74 0q-37 15 -52 52t-2 73q7 16 7 31q0 16 -7.5 27t-23 20t-35.5 15t-23 6l-40 -334q41 -13 90.5 -36t88 -54.5t62 -75t23.5 -104.5
q0 -40 -14 -93q-18 -72 -52 -125t-80 -89.5t-101 -57t-99 -25.5l-3 -32q-4 -41 -36.5 -65.5t-71.5 -19.5q-41 5 -65.5 36.5t-19.5 71.5zM320 737q-3 -16 4.5 -31.5t26.5 -29t48 -26.5t43 -17l32 271q-12 -2 -41 -13.5t-51 -30t-37 -48t-25 -75.5zM695 259q4 22 -1.5 39
t-19.5 32.5t-38 29t-31 15.5l-32 -263q26 6 64.5 41.5t57.5 105.5z" />
    <glyph glyph-name="percent" unicode="%" horiz-adv-x="789" 
d="M74 172q17 47 51.5 108t77.5 128t92.5 136.5t96 134.5t86.5 121t67 96q17 26 43.5 36.5t54 8.5t52 -16.5t34.5 -40.5t2 -58.5t-41 -71.5q-31 -34 -70.5 -87.5t-83 -117.5t-87 -132.5t-82.5 -133t-70 -119t-47 -90.5q-14 -28 -36 -43t-46 -16.5t-47 9t-37.5 31.5t-18 51
t8.5 66zM668 94q-13 -15 -31 -23t-37.5 -8t-38 6.5t-34.5 20.5q-32 33 -53 75.5t-23 85t22.5 77t84.5 41.5q42 3 71.5 -11.5t46.5 -40.5t24 -57t5.5 -62t-11 -58.5t-26.5 -45.5zM269 637q-29 -30 -70.5 -31t-72.5 29q-31 32 -52 75t-22.5 85.5t23 76t83.5 40.5
q42 3 71 -11.5t46.5 -40t24.5 -57t5.5 -62.5t-11 -58.5t-25.5 -45.5z" />
    <glyph glyph-name="percent" unicode="&#x66a;" horiz-adv-x="789" 
d="M74 172q17 47 51.5 108t77.5 128t92.5 136.5t96 134.5t86.5 121t67 96q17 26 43.5 36.5t54 8.5t52 -16.5t34.5 -40.5t2 -58.5t-41 -71.5q-31 -34 -70.5 -87.5t-83 -117.5t-87 -132.5t-82.5 -133t-70 -119t-47 -90.5q-14 -28 -36 -43t-46 -16.5t-47 9t-37.5 31.5t-18 51
t8.5 66zM668 94q-13 -15 -31 -23t-37.5 -8t-38 6.5t-34.5 20.5q-32 33 -53 75.5t-23 85t22.5 77t84.5 41.5q42 3 71.5 -11.5t46.5 -40.5t24 -57t5.5 -62t-11 -58.5t-26.5 -45.5zM269 637q-29 -30 -70.5 -31t-72.5 29q-31 32 -52 75t-22.5 85.5t23 76t83.5 40.5
q42 3 71 -11.5t46.5 -40t24.5 -57t5.5 -62.5t-11 -58.5t-25.5 -45.5z" />
    <glyph glyph-name="ampersand" unicode="&#x26;" horiz-adv-x="986" 
d="M870 70q23 -25 23 -61q0 -20 -8 -38t-23 -31q-29 -28 -67 -28q-42 0 -69 30q-12 11 -24 26q-12 12 -27 29t-22 24q-45 -45 -113.5 -84.5t-143.5 -39.5t-138.5 16t-110.5 52.5t-72 92.5t-25 135q0 31 3 64q7 47 26 88t48 76.5t64.5 67.5t61.5 51q-36 61 -63.5 129
t-23.5 121q3 39 15 81.5t32 76.5q51 89 132 128.5t169 39.5q63 0 118 -23t95 -68q63 -75 63 -189q0 -63 -23.5 -114t-63 -93t-92 -80t-96.5 -65q27 -36 69 -88t69 -82q12 17 32.5 51.5t35.5 61.5q19 31 32 58t36 40.5t51 13.5q23 0 43 -9q26 -13 39.5 -36t13.5 -50
q0 -22 -36 -88t-63.5 -110t-54.5 -79q31 -37 59.5 -66.5t28.5 -30.5zM529 162q-35 43 -84 105t-86 112q-37 -28 -72.5 -67.5t-40.5 -76.5q-3 -24 -3 -45q0 -34 9 -53t26.5 -29t47 -13.5t70.5 -3.5q35 0 71.5 23t61.5 48zM360 775q-2 -24 13 -61.5t34 -68.5q24 16 60.5 40.5
t65 48t45 43.5t17.5 35q4 24 -1.5 49.5t-15.5 38.5q-9 12 -26 17.5t-38 5.5q-40 0 -76 -17t-56 -52q-11 -18 -15.5 -36.5t-6.5 -42.5z" />
    <glyph glyph-name="quotesingle" unicode="'" horiz-adv-x="377" 
d="M113 860q-23 25 -10 76q11 38 44.5 57.5t74.5 9.5q32 -9 60 -29q26 -25 35.5 -53.5t7.5 -61.5q-7 -43 -30 -79q-17 -27 -42.5 -53t-48.5 -43q-26 -19 -57 -19q-48 0 -78 41q-19 26 -19 56q0 24 10.5 44.5t30.5 34.5q8 5 16 13t6 6z" />
    <glyph glyph-name="parenleft" unicode="(" horiz-adv-x="585" 
d="M368 1181q34 30 71 30q42 0 71 -31q25 -26 25 -65q0 -42 -60 -99q0 -2 -0.5 -3t-25.5 -32.5t-56 -77.5t-59 -105t-51 -130t-34 -155q-2 -22 -3.5 -44t-1.5 -42q0 -68 11.5 -128t29 -109.5t38 -88t38 -64.5t14 -22l-3.5 4q57 -65 57 -103q0 -41 -31 -70q-29 -25 -67 -25
q-41 0 -75 36l-13 16t-36.5 51t-51 84.5t-50.5 113t-38.5 141t-15.5 164.5q0 53 7 108q12 101 40 188.5t63 159.5t72.5 128.5t69 95t49 56t17.5 18.5z" />
    <glyph glyph-name="parenright" unicode=")" horiz-adv-x="579" 
d="M170 1058q-17 24 -17 56q0 21 8.5 40.5t27.5 34.5q27 22 61 22q21 0 40 -9t42.5 -38t46 -65t49 -87.5t49 -115t37.5 -138.5t15 -157q0 -24 -1.5 -47t-4.5 -47q-10 -92 -37 -177t-61 -158t-69.5 -134t-66 -103.5t-66 -85.5t-77.5 -39q-34 0 -63 23q-33 29 -33 73
q0 37 23 64q63 75 115 165q23 40 46 84.5t42.5 94.5t34 104t21.5 111q2 18 3 35.5t1 36.5q0 64 -12 122.5t-29.5 109t-38.5 91t-39.5 69.5t-32.5 47z" />
    <glyph glyph-name="asterisk" unicode="*" horiz-adv-x="614" 
d="M196 669q-21 -12 -49 -12q-24 0 -46.5 11.5t-35.5 34.5q-15 23 -15 51q0 25 12.5 47t36.5 36l44 27l-45 34q-20 16 -29 36t-9 42q0 30 20 58q16 19 35.5 28t41.5 9q32 0 58 -20l26 -20l3 21q6 39 37 63.5t71 18.5q41 -5 65 -36.5t18 -71.5l1 10q0 1 26 1t48 -12.5
t35 -35.5q14 -22 14 -50q0 -25 -12 -46.5t-35 -34.5l-23 -15l37 -28q19 -14 28.5 -34.5t9.5 -42.5q0 -31 -20 -59q-29 -37 -76 -37q-34 0 -59 20l-21 15l-2 -20q-6 -41 -37 -65t-71 -19q-41 6 -65 37.5t-19 70.5l-1 -13z" />
    <glyph glyph-name="plus" unicode="+" horiz-adv-x="838" 
d="M310 241h-161q-41 -1 -70 27.5t-28 68.5q-1 40 27.5 68.5t68.5 29.5h186l24 224q5 39 36.5 65t70.5 21q41 -5 66 -36t20 -71l-24 -203h164q40 1 68.5 -27t29.5 -69q0 -40 -27.5 -68.5t-67.5 -29.5h-188l-25 -224q-4 -40 -34.5 -65t-72.5 -21q-39 5 -64.5 36t-20.5 71z
" />
    <glyph glyph-name="comma" unicode="," horiz-adv-x="318" 
d="M111 10q-5 1 -23 20t-22 42t4 46t25.5 39.5t43 23t55.5 -4.5q26 -10 47 -32t24 -55.5t-16 -74t-69 -86.5q-7 -7 -12.5 -18t-13 -23t-22.5 -21t-38 -1q-27 8 -35.5 25.5t-4 35.5t15.5 35t23 31t18 18z" />
    <glyph glyph-name="hyphen" unicode="-" horiz-adv-x="472" 
d="M113 124q-26 0 -44.5 18t-17.5 43q-1 26 17.5 44t43.5 18l248 1q25 1 43 -16.5t19 -43.5q0 -25 -17.5 -43.5t-41.5 -18.5z" />
    <glyph glyph-name="hyphen" unicode="&#xad;" horiz-adv-x="472" 
d="M113 124q-26 0 -44.5 18t-17.5 43q-1 26 17.5 44t43.5 18l248 1q25 1 43 -16.5t19 -43.5q0 -25 -17.5 -43.5t-41.5 -18.5z" />
    <glyph glyph-name="period" unicode="." horiz-adv-x="443" 
d="M302 29q-27 -26 -65.5 -26t-66.5 22q-30 29 -49.5 67t-22 75.5t21.5 68t80 36.5q38 3 65.5 -10t43.5 -35t23 -50t5.5 -54.5t-10.5 -52t-25 -41.5z" />
    <glyph glyph-name="slash" unicode="/" horiz-adv-x="994" 
d="M227 -62q-13 -22 -34.5 -33.5t-45.5 -11.5q-26 0 -52 16q-23 14 -34 36.5t-11 45.5q0 29 16 51q19 20 55.5 72.5t85.5 127t106 164.5t115.5 181t114.5 178t102.5 156t81.5 114t51 54q28 27 69 27q38 0 66 -26q15 -15 23 -32.5t8 -37.5q0 -17 -6.5 -34.5t-19.5 -30.5z" />
    <glyph glyph-name="zero" unicode="0" horiz-adv-x="983" 
d="M197 845q3 14 13 40t23 46q26 46 62 78.5t77.5 52.5t87.5 29t92 9q92 0 168.5 -48t126.5 -129q42 -70 64 -157t22 -178q0 -24 -1.5 -47t-3.5 -46q-14 -129 -65 -241q-31 -74 -77.5 -136t-101.5 -107t-117 -70.5t-129 -25.5q-93 0 -170 48t-128 128q-43 69 -66.5 154
t-23.5 183q0 95 24 187.5t65 177.5q11 23 29 36.5t29 15.5zM377 748q-4 -38 -31.5 -63.5t-54.5 -24.5q-21 -47 -34 -108.5t-13 -123.5q0 -70 15.5 -129t43.5 -103q27 -41 60 -64t75 -23q34 0 69 15.5t67.5 45t61.5 71.5t51 92q19 43 30.5 88.5t18.5 95.5q3 16 4 32.5t1 35.5
q0 65 -15 128t-42 106q-25 41 -58.5 64.5t-73.5 23.5q-47 0 -88 -16.5t-63 -55.5q-12 -21 -16.5 -40.5t-7.5 -46.5z" />
    <glyph glyph-name="one" unicode="1" horiz-adv-x="629" 
d="M147 -68q-41 0 -69 29t-28 68q0 40 28.5 68.5t68.5 28.5h78l88 660l-73 -49q-25 -16 -54 -16q-24 0 -44 11t-36 32q-16 25 -16 54q0 23 11 44.5t31 35.5l252 168q12 9 25.5 12t25.5 3q22 0 40.5 -8t32 -23t22 -35t4.5 -43l-115 -846h64q39 0 67.5 -28.5t28.5 -68.5
q0 -39 -28 -68t-68 -29h-336z" />
    <glyph glyph-name="two" unicode="2" horiz-adv-x="889" 
d="M305 774q1 -39 -26 -70.5t-68 -32.5q-40 -1 -69 26.5t-30 68.5q2 87 32.5 146.5t88.5 99.5q99 69 264 75q102 0 166.5 -28t104.5 -79q35 -41 53 -93.5t18 -110.5q0 -67 -23 -127.5t-65 -122.5q-29 -41 -65.5 -82.5t-76.5 -81.5t-83 -77.5t-82 -70.5q-32 -28 -60.5 -53.5
t-14.5 -12.5h59q62 0 115.5 -3t92.5 -7q47 -4 87 -8q40 -5 64 -37t20 -71q-4 -41 -36 -65t-87 -17l-13.5 1t-49.5 5t-85 6t-104 2q-65 0 -132.5 -4t-134.5 -16q-26 -5 -49.5 5t-39 28.5t-21 43.5t1.5 50q15 42 41 78t59 72t74 72t87 78q32 27 69.5 60.5t76 70.5t72 73
t56.5 69q27 39 40 72t13 70q0 48 -27 81q-14 17 -37.5 26.5t-76.5 9.5q-107 -3 -161 -41q-18 -13 -28 -33.5t-10 -44.5z" />
    <glyph glyph-name="three" unicode="3" horiz-adv-x="855" 
d="M278 843q-13 -23 -35.5 -34.5t-46.5 -11.5q-25 0 -49 11q-24 15 -36 37t-12 47q0 28 14 51q28 42 74 76q39 28 103 52.5t157 26.5q85 3 160.5 -29t121.5 -92q33 -43 50.5 -95t17.5 -106q0 -23 -4 -49q-8 -60 -42.5 -116.5t-64.5 -84.5q43 -32 81 -96t38 -141
q-2 -40 -10.5 -81t-25.5 -77q-42 -93 -129 -148.5t-210 -58.5q-43 -2 -80.5 6.5t-71 23t-61.5 33t-52 37.5q-55 46 -98 105q-17 24 -17 55q0 23 10.5 43t31.5 36q26 16 54 16q23 0 44 -10.5t36 -29.5q24 -36 57 -63q27 -24 63 -42t79 -17q64 2 106 27.5t63 66.5
q8 21 12.5 40t4.5 43q0 20 -9.5 37.5t-25.5 34.5t-37.5 30t-35.5 20q-24 -7 -61 -7q-10 0 -18.5 0.5t-16.5 1.5q-48 4 -98 33q-24 14 -35 36.5t-11 45.5q0 31 18.5 59t52.5 36q20 6 38.5 8t37.5 2q49 0 89 -10q11 6 29 22t34 34t27 38t13 37q5 27 -2.5 56.5t-23.5 51.5
q-18 24 -50 35.5t-69 8.5q-56 -2 -90.5 -12.5t-55.5 -21.5q-22 -13 -33 -27z" />
    <glyph glyph-name="four" unicode="4" horiz-adv-x="869" 
d="M553 735q5 40 35 65t71 23q39 -4 65 -34.5t22 -70.5l-20 -208q-23 -12 -16 -12h2q39 4 70 -22t33 -67q4 -40 -22 -70t-67 -35q-2 0 -18 -2l-27 -288q-2 -41 -33.5 -65.5t-70.5 -22.5q-41 4 -65.5 34.5t-22.5 69.5l25 264h-36q-71 0 -146 4.5t-137 17.5t-103.5 39.5
t-34.5 74.5q2 21 23.5 59t52.5 86.5t70.5 103.5t78.5 111.5t77.5 107.5t68.5 90.5t46 61l16 21.5q19 24 39 33.5t42 9.5q32 0 58 -20q39 -30 39 -77q0 -34 -53 -96q0 -3 0.5 -2t-25 -32t-58.5 -75.5t-67.5 -87.5t-68 -89t-60 -81t-42.5 -62t-17 -31q3 12 8.5 10.5t30.5 -5.5
t58 -6.5t71 -2.5q25 0 49 1.5t34 2.5z" />
    <glyph glyph-name="five" unicode="5" horiz-adv-x="892" 
d="M330 1108q23 -5 40 -19.5t22 -24.5l347 16q39 2 70 -25t32 -66q1 -41 -26 -70.5t-67 -30.5l-370 -18q-8 -42 -19.5 -100.5t-15.5 -79.5q11 4 57 15t92 11q72 0 137 -28.5t111 -86.5q35 -45 52.5 -109t17.5 -132q0 -19 -1.5 -38t-3.5 -37q-14 -86 -56.5 -152t-102 -112
t-132 -70.5t-145.5 -24.5q-77 0 -135.5 29.5t-94.5 65.5q-45 40 -77 93q-12 24 -12 47q0 27 14 49t37 36q24 12 47 12q25 0 48.5 -13.5t38.5 -39t32.5 -42t43 -30.5t58.5 -14q43 0 85.5 12.5t76.5 37.5t56 60.5t26 83.5q1 10 1.5 20.5t0.5 22.5q0 36 -6 71t-21 54
q-17 21 -42 31.5t-54 10.5q-38 0 -78 -13t-73 -28q-38 -19 -76 -42q-12 -9 -25.5 -12t-26.5 -3q-20 0 -40 8.5t-34 24t-21 36.5t-2 43l6.5 32.5t16 83t22 112t20.5 107.5q-12 4 -31 27.5t-21 54.5q-1 21 5.5 39.5t19 32t30.5 21.5t38 9v0q7 22 39.5 40.5t68.5 11.5z" />
    <glyph glyph-name="six" unicode="6" horiz-adv-x="860" 
d="M512 1111q27 22 61 22q20 0 39.5 -8.5t34.5 -27.5q23 -29 23 -61q0 -21 -9.5 -40.5t-27.5 -33.5q-46 -38 -88 -78.5t-81 -82.5q-44 -51 -79.5 -102t-26.5 -31q-22 -18 28.5 4.5t112.5 22.5q81 0 145.5 -39.5t103.5 -104.5q31 -50 46.5 -108t15.5 -115q0 -86 -25 -161.5
t-75 -133t-122.5 -90.5t-167.5 -33q-88 0 -156.5 29t-116.5 81.5t-72.5 123.5t-24.5 156q0 172 72 329t199 301q44 50 90.5 94t100.5 87zM244 300q0 -93 41.5 -144.5t134.5 -51.5q53 0 90 17t60.5 46t35 70.5t11.5 90.5q0 32 -8.5 63.5t-23.5 58.5q-16 24 -37.5 37.5
t-48.5 13.5q-36 0 -68.5 -22.5t-57.5 -51.5q-31 -35 -56 -78q-15 -25 -40.5 -39t-32.5 -13v3z" />
    <glyph glyph-name="seven" unicode="7" horiz-adv-x="896" 
d="M284 376q-40 1 -67.5 30.5t-26.5 68.5q0 20 8.5 37.5t22 30.5t31 20t38.5 7l125 -5q34 55 65 102.5t53.5 86.5t37 68.5t21.5 54.5q-1 -2 -19.5 2t-63.5 4q-33 0 -72 -2t-78.5 -6t-76 -9t-65 -8.5t-56 -7.5t-27.5 -2q-22 0 -51 27t-32 67q-1 41 26 70t50 30q0 -1 45.5 4.5
t105.5 10.5t133 9t144 4q57 0 109 -3t91.5 -14t65 -30.5t16.5 -54.5q-7 -30 -29.5 -80.5t-53 -110t-66 -123.5t-53.5 -94h-11q40 -1 67.5 -30.5t26.5 -69.5t-30 -67.5t-69 -26.5l-101 4q-49 -78 -101 -157t-93 -139t-73.5 -107.5t-53.5 -58t-44 -10.5q-29 0 -54 17
q-21 16 -31.5 36t-10.5 43q0 30 13 51q0 1 21.5 31.5t54 79t75.5 112.5t72 108h-9z" />
    <glyph glyph-name="eight" unicode="8" horiz-adv-x="874" 
d="M219 568q4 -4 -4.5 6t-18.5 20q-76 95 -65 218q6 55 25.5 110t65.5 101q45 44 114.5 71.5t172.5 27.5q52 0 99 -14.5t86 -41.5t69.5 -65t45.5 -88q15 -44 15 -94q0 -48 -15 -101q-18 -61 -57.5 -120t-91.5 -104q13 -11 37.5 -41t41 -63.5t24.5 -70t5 -77.5
q-5 -56 -26 -114t-68 -108q-46 -48 -118.5 -78t-180.5 -30q-53 0 -104 13.5t-92 41.5t-71.5 69t-43.5 93q-14 45 -14 90q0 26 4 53t12 54q18 66 60 132.5t93 109.5zM380 455q0 -2 -19 -21q-45 -38 -71 -78.5t-38 -81.5q-8 -31 -8 -55q0 -19 4 -40q11 -38 46 -55.5t81 -17.5
q65 0 103 13.5t57 35.5q20 19 28 47t11 57q0 27 -14.5 53.5t-38.5 50.5t-58 45.5t-72 41.5q-8 4 -11 5zM478 623q10 -5 22 -12l10 10q50 40 76.5 78.5t38.5 73.5q6 22 6 45q0 21 -5 36q-12 36 -44 55t-73 19q-62 0 -96.5 -12t-53.5 -30q-16 -17 -24.5 -40.5t-10.5 -51.5
q-3 -23 3.5 -42t20.5 -37q37 -47 130 -92z" />
    <glyph glyph-name="nine" unicode="9" horiz-adv-x="865" 
d="M809 834q-3 -15 -8 -22q10 -15 -43 -237t-98 -324t-109 -206t-149 -197q-28 -30 -71 -30q-37 0 -65 25q-31 29 -31 71q0 39 26 66q77 83 133.5 176.5t73.5 135.5q21 14 -11 3.5t-67 -10.5q-76 0 -146.5 29.5t-119.5 91.5q-35 42 -54.5 99t-19.5 128q0 70 17.5 136t50 122
t77.5 99.5t98 69.5q45 22 96 33.5t100 11.5q35 0 70 -7t68.5 -19.5t63 -30.5t51.5 -39q32 -29 52.5 -65t20.5 -73q0 -11 -2 -20t-4 -17zM628 830q0 14 -11.5 30t-32 27.5t-46 18t-49.5 6.5q-27 0 -57 -6.5t-54 -19.5q-31 -15 -55.5 -41t-42 -59t-27 -72t-9.5 -81
q0 -37 8.5 -62.5t22.5 -43.5q19 -25 50 -36.5t65 -11.5q27 0 54.5 22.5t53.5 59t48.5 81t38.5 82.5t25 61.5l9 23.5q8 20 9 21z" />
    <glyph glyph-name="colon" unicode=":" horiz-adv-x="312" 
d="M157 211q22 0 41.5 -8.5t33 -23.5t22 -35t8.5 -43t-8.5 -42.5t-22 -34.5t-33 -23.5t-41.5 -8.5t-41.5 8.5t-34 23.5t-23 34.5t-8.5 42.5t8.5 43t23 35t34 23.5t41.5 8.5zM157 455q22 0 41.5 -9t33 -24t22 -35t8.5 -43t-8.5 -42.5t-22 -34.5t-33 -23.5t-41.5 -8.5
q-45 0 -76 32t-31 77q0 23 8.5 43t22.5 35t34 24t42 9z" />
    <glyph glyph-name="semicolon" unicode=";" horiz-adv-x="336" 
d="M171 381q-21 0 -39.5 8.5t-32.5 23t-22 34.5t-8 42t8 41t22 33t32.5 22.5t39.5 8.5q22 0 41 -8.5t32.5 -22.5t22 -33t8.5 -41q0 -45 -30.5 -76.5t-73.5 -31.5zM134 157q-10 0 -35.5 14.5t-37 38t-10.5 51t15 51t39.5 38.5t60.5 13q32 -2 62 -20t44 -53t6 -85t-48 -117
q-6 -10 -8 -24t-5.5 -30t-16.5 -29t-40 -13q-31 0 -45 15t-15.5 36t4.5 43t14.5 41t15.5 30z" />
    <glyph glyph-name="semicolon" unicode="&#x37e;" horiz-adv-x="336" 
d="M171 381q-21 0 -39.5 8.5t-32.5 23t-22 34.5t-8 42t8 41t22 33t32.5 22.5t39.5 8.5q22 0 41 -8.5t32.5 -22.5t22 -33t8.5 -41q0 -45 -30.5 -76.5t-73.5 -31.5zM134 157q-10 0 -35.5 14.5t-37 38t-10.5 51t15 51t39.5 38.5t60.5 13q32 -2 62 -20t44 -53t6 -85t-48 -117
q-6 -10 -8 -24t-5.5 -30t-16.5 -29t-40 -13q-31 0 -45 15t-15.5 36t4.5 43t14.5 41t15.5 30z" />
    <glyph glyph-name="less" unicode="&#x3c;" horiz-adv-x="1029" 
d="M831 764q49 16 85.5 -1t49.5 -55q13 -37 -4.5 -73t-79.5 -58q0 -1 -16 -7t-61.5 -22.5t-102.5 -37.5t-116.5 -44t-116.5 -45.5t-101.5 -41t-47 -28.5t39 -24t94.5 -30.5t108 -33t108.5 -32.5t95 -28t56.5 -16t15 -3q61 -18 81 -52t10 -74q-11 -39 -45.5 -58.5t-86.5 -6.5
l-25.5 7.5t-78 23t-120 37t-137 47t-137 53.5t-121 57t-90 61t-36.5 66q-1 34 36 67.5t93 68t126.5 69t143.5 66.5t144 59.5t126 48.5t83 30.5z" />
    <glyph glyph-name="equal" unicode="=" horiz-adv-x="747" 
d="M149 377q-41 -1 -70 28t-28 68q-1 40 27.5 68.5t68.5 29.5l452 2q39 2 67.5 -26.5t30.5 -68.5q0 -40 -28 -68.5t-67 -29.5zM149 160q-41 -1 -70 27.5t-28 68.5q-1 39 27.5 67.5t68.5 29.5l452 3q39 1 67.5 -27t30.5 -68q0 -40 -28 -68.5t-67 -30.5z" />
    <glyph glyph-name="greater" unicode="&#x3e;" horiz-adv-x="1028" 
d="M161 -9q-14 -6 -49.5 12t-48.5 56t4.5 74.5t42.5 44.5q0 -1 34.5 11.5t80.5 29t104.5 38t119.5 44.5t119 45t103 40.5t67.5 29t22.5 3.5q0 -9 -20 -1t-62 22t-96 30t-111 33t-110.5 33t-96.5 27.5t-76.5 20.5l-33.5 9q-25 8 -45 43t-9 73t45 58t50 16l43.5 -12.5
t96.5 -27.5t120 -36.5t136.5 -47t137.5 -53.5t121.5 -57t89 -60.5t37.5 -65.5q0 -34 -37 -68.5t-92.5 -68.5t-126 -67.5t-144 -66.5t-144 -60.5t-125.5 -48t-101.5 -36.5z" />
    <glyph glyph-name="question" unicode="?" horiz-adv-x="786" 
d="M245 759q18 -16 27 -35.5t9 -42.5q0 -31 -21 -59q-28 -36 -76 -36q-33 0 -60 20q-36 30 -55 78t-19 105q0 54 18.5 108.5t53.5 99.5q40 51 106 84t159 33q90 0 168 -36.5t124 -105.5q30 -47 43.5 -102t13.5 -114q0 -92 -28.5 -162.5t-75.5 -129t-107 -105.5t-107 -79
q5 -4 10 -32t-6 -56q-15 -37 -52 -52.5t-75 0.5q-56 24 -83.5 55t-27.5 71q0 14 3.5 28t8.5 29q18 41 56 73t87 66q46 32 83.5 63t64 64.5t41 74t14.5 92.5q0 34 -5.5 62t-19.5 48q-19 29 -53.5 41.5t-76.5 12.5q-43 0 -71 -13t-44 -31q-28 -38 -28 -87q0 -29 1 -30z
M257 -93q-39 4 -64.5 35.5t-20.5 70.5q4 40 35.5 65.5t71.5 20.5l45 -6q39 -4 64.5 -35.5t19.5 -70.5q-1 -19 -11 -36t-24 -28.5t-33 -18t-40 -2.5z" />
    <glyph glyph-name="at" unicode="@" horiz-adv-x="1032" 
d="M698 183q-44 0 -73 27.5l-29 27.5q-9 -13 -51.5 -38t-102.5 -18q-57 4 -98 30t-65 65t-35 86t-11 97q0 67 25.5 127t69 104t104.5 70t133 26q62 0 96.5 -24.5t33.5 -21.5q-6 -22 -4 -22q2 5 15.5 13t29.5 8q23 0 46.5 -17t17.5 -46q0 -3 -11 -34.5t-25.5 -75.5t-30 -94
t-24 -91.5t-9 -61t-4.5 -19.5q11 0 20 3.5t21 10.5q27 15 50.5 44.5t40.5 66t25.5 79t8.5 84.5q0 56 -15.5 99.5t-43.5 75.5q-21 22 -50 39.5t-62.5 28t-70 15.5t-70.5 5q-78 0 -147 -28t-120 -78t-81 -120.5t-32 -150.5q-1 -61 21 -128t62 -121.5t95 -88t121 -33.5
q44 0 95.5 9.5t99 24.5t85.5 34t57 38q18 17 42.5 16t41.5 -19q16 -20 15.5 -43.5t-19.5 -41.5q-28 -25 -75.5 -49.5t-105.5 -43.5t-120 -31.5t-117 -12.5q-92 0 -170 45t-133 116.5t-85 157.5t-29 172q1 106 41.5 196t108.5 157t157.5 104.5t191.5 37.5q46 0 92.5 -7.5
t92 -22.5t85 -39.5t69.5 -57.5q45 -47 69 -110.5t24 -144.5q0 -65 -15.5 -128.5t-46.5 -117t-74.5 -94t-95.5 -57.5q-27 -9 -52 -9zM636 543q-1 0 -16 17.5t-11 38.5q1 23 -1 38t-7 21.5t-18.5 9t-44.5 0.5q-43 -5 -77 -23t-58.5 -47t-37.5 -64.5t-13 -73.5q0 -31 4 -58.5
t15 -49t30 -35t50 -17.5t58.5 17.5t52.5 60.5t45.5 89t28.5 76z" />
    <glyph glyph-name="A" unicode="A" horiz-adv-x="894" 
d="M232 -124q-72 -34 -110 -21q-38 12 -55 47.5t-7 71.5l12.5 36t33.5 93.5t49.5 133.5t54.5 142q-14 4 -35.5 32t-19.5 64q4 41 34.5 66.5t69.5 23.5l26 -2q38 91 83 188t89 174t86.5 127.5t82.5 50.5q33 0 55 -28.5t37.5 -71t26 -99t18.5 -121t13.5 -135.5t7.5 -128
q20 -7 40 -35t17 -64q-2 -30 -19.5 -53t-32.5 -27v-59v-68q0 -84 -1 -137t-1 -54q-1 -41 -30 -68.5t-69 -26.5t-68 30t-27 69l0.5 27.5t2.5 73t3.5 104.5t2.5 110l-200 17q-27 -75 -56 -157.5t-52 -145.5t-62 -180zM579 823q-37 -90 -61.5 -153.5t-45.5 -120.5l135 -11
q0 -6 0.5 7.5t0.5 25.5q0 68 -3.5 125t-7.5 97.5t-18 29.5z" />
    <glyph glyph-name="B" unicode="B" horiz-adv-x="930" 
d="M185 846q-14 -3 -47 16.5t-44 58.5q-10 40 10 73.5t60 44.5q36 10 77.5 19.5t86 16.5t90 12t90.5 5q24 0 45 -2t41 -4q59 -7 109 -25.5t87.5 -52t58.5 -82t21 -115.5q0 -17 -1.5 -35t-3.5 -37q-11 -66 -34 -114.5t-42 -68.5q31 -23 61 -75t30 -133q0 -17 -1.5 -33
t-3.5 -34q-19 -115 -84.5 -192.5t-171.5 -120.5q-59 -22 -125 -34t-138 -12q-33 0 -65 2.5t-64 6.5q-53 7 -96 20q-39 8 -60 41.5t-12 73.5q7 27 24.5 45t29.5 21zM303 118q20 -2 55 -2q107 0 188 33q52 21 87.5 55.5t46.5 84.5q6 23 6 41q0 45 -30 71t-73 34
q-34 -9 -69.5 -12.5t-67.5 -3.5q-48 0 -82.5 4.5t-26.5 3.5q-7 -67 -13 -125.5t-10.5 -96.5t-6.5 -59.5t-3 -31t-1 -11.5q0 -1 0 15zM356 628q1 0 41 4.5t91 4.5q20 0 40.5 -1t39.5 -3q36 14 66 45.5t40 90.5q5 32 -1 54t-19.5 36.5t-35 23t-48.5 11.5q-26 4 -55 4
q-36 0 -72.5 -4t-59.5 -8z" />
    <glyph glyph-name="C" unicode="C" horiz-adv-x="1001" 
d="M897 693q-14 -24 -36 -36t-47 -12q-28 0 -51 15q-23 13 -34.5 36t-11.5 48q0 26 14 49q11 18 17.5 34t6.5 28q0 16 -19 28q-42 26 -132 24q-37 0 -69 -6.5t-66 -22.5q-79 -36 -137.5 -118t-77.5 -215q-6 -35 -8.5 -68.5t-2.5 -63.5q0 -64 10.5 -113.5t31.5 -85.5
q49 -90 151 -105q21 -3 45 -3q61 0 133.5 21.5t152.5 63.5q22 12 47 12q26 0 48.5 -13.5t37.5 -36.5q11 -23 11 -46q0 -26 -13.5 -49t-37.5 -37q-102 -54 -197.5 -81.5t-183.5 -27.5q-19 0 -37 1.5t-35 4.5q-96 14 -171.5 65.5t-121.5 139.5q-30 58 -47 130.5t-17 161.5
q0 36 3.5 76t9.5 83q13 92 43 168t72.5 135.5t95 103.5t113.5 72q49 23 104 35.5t109 11.5q73 3 132.5 -10.5t104.5 -40.5q51 -30 80.5 -79t31.5 -107q2 -81 -52 -170z" />
    <glyph glyph-name="D" unicode="D" horiz-adv-x="1060" 
d="M243 835h-23q-27 0 -50.5 14t-35.5 42q-5 10 -7.5 19.5t-2.5 21.5q0 27 14 50.5t41 36.5q83 39 163.5 58t156.5 19q32 0 63 -3q103 -9 186 -53t142 -114t89.5 -159t30.5 -188q0 -31 -3 -62q-12 -118 -39 -207.5t-66 -156.5t-90 -113.5t-113 -74.5q-60 -27 -125 -39
t-138 -12q-70 0 -145 8.5t-154 20.5q-40 9 -63.5 40t-17.5 72q7 40 39.5 63.5t72.5 16.5q7 -2 -7 -2l78 700zM353 111q7 -1 32 -2t50 -1q54 0 100 7t83 25q38 18 69 48t56.5 78t43 115t28.5 158q2 10 2 21v25q0 62 -19 117.5t-54 97.5t-85.5 69t-116.5 32q-9 1 -19 1.5
t-21 0.5q-19 0 -38.5 -1.5l-19.5 -1.5q0 2 -4 -20z" />
    <glyph glyph-name="E" unicode="E" horiz-adv-x="1015" 
d="M189 864q-40 -4 -69 24.5t-33 68.5q-2 40 25.5 69t67.5 31l58 3l1 3q10 41 44 60.5t74 9.5q29 -8 47.5 -29.5t20.5 -33.5l434 23q40 2 70.5 -25.5t31.5 -67.5q4 -41 -23.5 -70t-68.5 -31l-479 -25q-9 -40 -25 -105.5t-26 -114.5l322 20q41 2 71.5 -25t31.5 -67
q2 -21 -5 -39t-19.5 -31.5t-29.5 -22t-36 -9.5l-378 -22q-16 -81 -29 -163t-13 -128q0 -21 3 -29q2 -7 27.5 -13.5t70.5 -8.5q40 -1 85.5 3.5t93 14t95.5 23t90 31.5q37 16 74 0.5t53 -53.5q15 -36 -0.5 -73.5t-52.5 -52.5q-51 -22 -109 -39t-116.5 -28.5t-115 -16.5
t-105.5 -3q-96 5 -168.5 39.5t-100.5 104.5q-2 4 -2.5 6t-4.5 8v5q-2 10 -3.5 26t-1.5 36q0 59 11.5 145.5t27.5 168.5q-13 5 -31.5 27t-21.5 54q-2 41 25.5 70.5t68.5 31.5h-5q11 57 26 122t23 98h-1z" />
    <glyph glyph-name="F" unicode="F" horiz-adv-x="988" 
d="M168 863q-40 -2 -69 26t-30 68q-2 40 26 69t66 30h17v-1q5 40 35.5 65t71.5 20q37 -4 61.5 -31t24.5 -44l466 16q19 1 37 -5.5t32 -19.5t22.5 -30.5t8.5 -36.5q1 -21 -6 -39t-20 -31.5t-30 -21.5t-37 -9l-494 -18l-25 -197l276 9q39 1 68.5 -26.5t31.5 -66.5
q1 -41 -27 -70t-68 -30l-304 -10l-56 -462q-4 -41 -35.5 -65t-72.5 -20q-40 6 -64 37t-20 71l55 445q-15 6 -32 29t-18 53q-3 38 22.5 67t47.5 31l25 198h14z" />
    <glyph glyph-name="G" unicode="G" horiz-adv-x="1235" 
d="M639 346q-40 1 -68 30.5t-26 69.5q2 39 31 66.5t70 26.5q76 -3 143 -3q65 0 117 2t91 5q45 4 79 6q40 2 71 -23t34 -65q4 -40 -21 -70.5t-66 -34.5q-1 0 -41 -3.5t-93 -5.5q-3 -17 -11.5 -61t-18.5 -97t-21.5 -114.5t-23.5 -127.5q-8 -41 -40.5 -62.5t-72.5 -15.5
q-31 6 -53 29.5t-23 28.5q-22 -13 -73 -26.5t-108 -13.5q-145 -2 -244 41.5t-158 140.5q-63 109 -63 280q0 54 6 112t17 126q16 83 39 148.5t54.5 118t71.5 95t88 79.5q42 31 85.5 50.5t84 31.5t78 16.5t68.5 4.5q60 0 123.5 -10.5t118.5 -44.5q56 -32 90 -87.5t34 -140.5
q0 -25 -4 -52q-5 -40 -36.5 -65.5t-70.5 -19.5q-41 5 -65.5 36.5t-19.5 71.5q5 41 -3.5 62.5t-23.5 29.5q-27 16 -65 21t-78 5t-95 -13.5t-109 -51.5q-33 -26 -59.5 -55.5t-49 -67t-39 -85.5t-26.5 -110q-11 -60 -16 -112t-5 -96q0 -117 37 -178q54 -90 232 -87q37 0 65.5 8
t57.5 25q31 19 52.5 45t35.5 54t21 53.5t8 42.5q0 12 3 22.5t8 19.5l-2 -9q-45 0 -122 4z" />
    <glyph glyph-name="H" unicode="H" horiz-adv-x="960" 
d="M714 1037q5 40 36 65.5t70 21.5q41 -4 65.5 -35.5t20.5 -71.5l-44 -427q27 -21 30 -68q0 -29 -15.5 -52.5t-29.5 -32.5l-49 -455q-4 -39 -35 -64.5t-71 -21.5q-41 4 -65.5 35.5t-20.5 70.5l43 416l-358 -11l-44 -429q-4 -40 -35.5 -65.5t-71.5 -20.5q-39 3 -64.5 34
t-21.5 72l44 423q-11 7 -24.5 27.5t-14.5 48.5q-3 33 17 59.5t40 33.5l46 438q5 40 35.5 65t70.5 21q41 -4 66 -35.5t20 -71.5l-42 -404l357 11z" />
    <glyph glyph-name="I" unicode="I" horiz-adv-x="842" 
d="M153 -72q-40 -1 -69.5 26.5t-31.5 67.5t26 69t68 30l126 4l92 756l-115 -1q-41 -1 -70 27t-29 69q0 39 28.5 67.5t68.5 28.5l190 3q22 8 49 7q17 -3 25 -6l184 2q41 0 69 -27.5t28 -68.5q0 -40 -27.5 -69t-66.5 -29l-139 -2l-92 -749l98 3q20 1 38 -6t31 -19.5
t21.5 -30.5t8.5 -36q3 -41 -24.5 -71t-67.5 -31l-159 -5q-26 -23 -69 -18q-27 4 -41 15z" />
    <glyph glyph-name="J" unicode="J" horiz-adv-x="999" 
d="M487 887q-39 0 -67.5 28.5t-28.5 67.5q0 41 28.5 68.5t67.5 27.5h233q9 6 25 11.5t35 4.5q27 -1 47 -16h25q40 0 68.5 -27.5t28.5 -68.5q0 -39 -28.5 -67.5t-68.5 -28.5h10q-2 -28 -7 -92t-11.5 -135t-13 -145t-14.5 -142.5t-16 -126.5t-15 -95q-17 -76 -71.5 -136
t-129.5 -96q-60 -32 -134 -43q-16 -2 -31 -4t-32 -2q-38 0 -81 10q-75 15 -140 61.5t-106 131.5q-10 20 -10 42q0 27 14.5 50.5t39.5 36.5q20 10 43 10q28 0 51.5 -14t35.5 -40q20 -39 49 -61t62 -28q17 -5 40 -5q17 0 36 4q41 5 79 23q37 20 62.5 45.5t31.5 53.5
q8 32 15.5 85.5t14 117.5t13.5 135t13 139.5t11.5 130.5t7.5 89h-182z" />
    <glyph glyph-name="K" unicode="K" horiz-adv-x="978" 
d="M175 995q10 42 44.5 62.5t74.5 9.5q38 -11 58.5 -44.5t9.5 -79.5t-34 -148t-36 -166t-26 -130t-23 -127t-16 -110.5t-6 -82.5q0 -21 1.5 -27t-4.5 -6q10 0 40 35t71 96.5t87 141t92.5 163t89 163t74.5 142t51 98.5t19 37q14 29 37.5 43.5t51.5 14.5q23 0 41 -10
q26 -12 41 -35.5t15 -51.5q0 -22 -8 -38q0 -1 -22 -44.5t-57.5 -111.5t-83 -156t-98.5 -176l176 -385q8 -20 8 -40q0 -27 -14.5 -51t-42.5 -37q-19 -8 -39 -8q-27 0 -51 14t-37 42l-122 271q-29 -45 -77.5 -110.5t-94.5 -116t-90.5 -80.5t-84.5 -30q-41 0 -68.5 23.5t-43 63
t-22 90.5t-6.5 109q0 78 9 166.5t23 176t30 167.5t30.5 140.5t23.5 96.5z" />
    <glyph glyph-name="L" unicode="L" horiz-adv-x="849" 
d="M173 1009q12 40 45.5 60.5t73.5 9.5q39 -9 59 -43t10.5 -79t-27 -147t-28 -167.5t-21 -132.5t-17.5 -130.5t-12 -118t-5 -91.5q0 -30 2 -41.5t-2 -10.5q32 -5 66 -8t67 -3q56 0 108.5 5.5t93 13t58.5 11.5l18 4q53 12 87 -9.5t42 -59.5q8 -41 -13.5 -74t-81.5 -48
q0 1 -23 -4t-77 -12.5t-123.5 -14.5t-142.5 -7q-43 0 -85.5 3t-81.5 11v0q-36 5 -57 31t-33.5 63t-17.5 84t-5 101q0 80 9 170t22.5 179.5t30 171.5t30 145.5t22.5 100t9 37.5z" />
    <glyph glyph-name="M" unicode="M" horiz-adv-x="1148" 
d="M213 997q-4 39 20 70.5t65 36.5q21 2 39 -3.5t33 -17t25 -28.5t11 -35q3 -13 4.5 -25.5t-0.5 -22.5q5 -33 14 -93t21 -130t26.5 -140t31.5 -125t31 -84.5t22 -28.5h2q3 0 23 26t48 73.5t60 108.5t63.5 125t60 125.5t50 109.5t34 76l12.5 28q13 30 36 41.5t47 11.5
q20 0 39 -6t34 -18t24 -31t7 -41l-83 -1001q-4 -39 -34.5 -65.5t-70.5 -22.5q-21 1 -38 10.5t-28.5 24t-17.5 32.5t-5 37l42 499q1 1 -42 -71t-86.5 -129.5t-85.5 -96t-81 -40.5q-48 -2 -88 29.5t-71.5 83.5t-57.5 118.5t-25 61.5l-76 -445q-8 -39 -40.5 -62.5t-71.5 -16.5
q-41 8 -63.5 40.5t-16.5 71.5l159 921q-2 9 -2 13v5z" />
    <glyph glyph-name="N" unicode="N" horiz-adv-x="989" 
d="M276 1069q39 -4 64.5 -35.5t20.5 -71.5l-8 -49q13 -44 37 -118.5t52.5 -159t59.5 -169t60 -152t50.5 -105.5t27.5 -38q-1 0 9 30t20.5 88.5t21 134t18 155t14.5 154.5t11.5 135.5t7.5 97.5t3 36q1 40 30.5 67.5t70.5 25.5q40 -2 66.5 -32t-10.5 -69q36 -1 33.5 -47
t-8.5 -120t-16 -168.5t-24.5 -193t-34 -193.5t-44.5 -170.5t-59.5 -125.5t-80.5 -50q-53 0 -105 53.5t-101.5 138t-97.5 192.5t-63 151l-53 -450q-5 -41 -36.5 -65.5t-71.5 -19.5q-41 5 -65.5 36.5t-19.5 70.5l102 866q0 3 -2.5 10t-4.5 17q-7 27 2.5 53t26.5 40
q12 25 38.5 39.5t58.5 10.5z" />
    <glyph glyph-name="O" unicode="O" horiz-adv-x="1111" 
d="M179 834q24 37 60 43q24 53 60 98t85 74.5t110.5 43.5t139.5 14q11 0 18.5 -0.5t17.5 -0.5q109 -6 191.5 -58t130.5 -141q37 -70 53 -152t12 -172q-4 -69 -16 -140.5t-34.5 -140t-54.5 -130.5t-76 -111q-70 -79 -173 -123.5t-246 -40.5q-63 1 -118 21t-101.5 53.5
t-81.5 80t-59 103.5q-25 59 -36 126t-9 138q2 104 34 210.5t93 204.5zM305 660q-25 -51 -41 -116.5t-18 -129.5q-2 -53 5.5 -99.5t24.5 -85.5q25 -63 71.5 -99.5t114.5 -38.5q97 -3 162 23.5t108 74.5q28 32 52 79.5t41.5 101t27 110.5t10.5 110q3 66 -7 123t-35 102
q-23 45 -64 71.5t-95 26.5q-62 0 -108 -7t-77 -26t-49.5 -51t-25.5 -85q-6 -40 -38 -64t-59 -20z" />
    <glyph glyph-name="P" unicode="P" horiz-adv-x="974" 
d="M162 889q-40 -5 -71 20t-37 66q-4 40 21 71t65 35q71 9 142.5 14t141.5 5q64 0 124 -5.5t113 -19.5q58 -15 106 -39t83 -61.5t54.5 -87t19.5 -112.5q0 -44 -9 -88q-16 -87 -48.5 -151t-74.5 -107.5t-90.5 -70.5t-98.5 -41.5t-96 -19t-84 -4.5q-24 0 -43.5 1t-34.5 2
q-5 2 -9 2q-12 0 2 -7l-33 -288q-4 -39 -35 -64.5t-71 -19.5q-40 4 -65 35.5t-20 71.5l99 868q-34 -3 -51 -5zM361 490h1q9 -1 22.5 -1.5t30.5 -0.5q37 0 85.5 7.5t93.5 31.5t81.5 70t50.5 125q2 11 3 20t1 18q0 53 -32 83.5t-86 45.5q-40 10 -89 14t-102 4h-13q-1 3 -4 -21
z" />
    <glyph glyph-name="Q" unicode="Q" horiz-adv-x="1143" 
d="M150 765q10 21 27 34t26 16q8 48 32.5 98t69.5 91q54 50 139.5 79.5t185.5 29.5h18q11 0 22 -1q52 0 101 -15.5t90.5 -41.5t75 -62.5t56.5 -78.5q34 -64 49.5 -137.5t15.5 -155.5q0 -9 -0.5 -16.5t-0.5 -15.5q-1 -58 -11 -118.5t-27 -119t-39.5 -114t-40.5 -85.5l107 -63
q24 -14 35.5 -36.5t11.5 -47.5q0 -27 -14 -49q-14 -24 -35.5 -35.5t-47.5 -11.5q-27 0 -49 14l-137 82q-58 -48 -147 -77t-207 -25q-117 5 -210 60t-143 160q-27 56 -40 121.5t-11 138.5q2 89 27 185.5t71 196.5zM538 170q-23 13 -35 35.5t-12 46.5q0 28 14 50
q13 24 35.5 35t45.5 11q12 0 26 -3.5t25 -9.5l136 -83q12 18 29.5 61.5t30.5 91t21 96.5t9 96q3 65 -7 122.5t-33 100.5q-24 43 -65.5 71t-95.5 28q-86 0 -142.5 -16t-83.5 -40q-22 -23 -34 -55.5t-14 -72.5v-23q0 -22 -8.5 -41.5t-23.5 -32.5t-34 -19.5t-27 -5.5
q-46 -121 -49 -235q-3 -102 29 -171q28 -55 76 -81t111 -28q59 -2 105 7.5t54 13.5z" />
    <glyph glyph-name="R" unicode="R" horiz-adv-x="1013" 
d="M223 870q2 0 -16.5 -3.5t-38.5 -7.5q-39 -6 -71.5 16t-40.5 63q-6 39 16.5 71.5t63.5 40.5q99 18 192.5 28.5t179.5 10.5q109 0 193 -21q60 -14 108 -39.5t82.5 -62.5t53 -87t18.5 -113q0 -18 -1 -37.5t-5 -40.5q-19 -109 -81 -190.5t-154 -121.5q-19 -9 -37 -15t-12 -5
q41 -57 98 -136.5t130 -153.5q27 -29 27 -68t-28 -68q-29 -28 -68 -28q-40 0 -69 29q-49 50 -91 103t-81 105.5t-75.5 104t-71.5 93.5q-23 1 -53.5 8t-34.5 10l-38 -338q-6 -41 -37.5 -65.5t-70.5 -20.5q-40 6 -65 37t-20 71zM380 568q4 2 41 2q29 0 55.5 -12.5t49.5 -30.5
q26 0 57.5 5.5t59.5 19.5q50 23 81 64t42 101q4 19 4 35q0 55 -30 85t-84 44q-66 16 -152 16q-26 0 -53.5 -2t-30.5 -2q-2 3 -4 -23z" />
    <glyph glyph-name="S" unicode="S" horiz-adv-x="1001" 
d="M932 737q-15 -38 -52 -54t-74 0q-37 15 -52 52t-2 73q7 16 7 31q0 19 -12.5 32.5t-33 23t-47.5 14t-53 4.5q-63 1 -112 -5t-84.5 -24.5t-59.5 -52.5t-37 -94q-5 -22 8.5 -40t44 -34t73.5 -30.5t87 -28.5q66 -21 129.5 -43.5t115 -55t84 -81.5t32.5 -121q0 -40 -14 -92
q-21 -89 -66.5 -149t-106.5 -95.5t-132.5 -49.5t-145.5 -10q-58 2 -114.5 21.5t-106 51t-88.5 72.5t-60 87q-10 20 -10 43q0 27 15 50.5t41 35.5q20 9 40 9q28 0 52 -13.5t36 -41.5q11 -24 32.5 -45t49 -37.5t58.5 -26.5t64 -13q7 -1 15 -1h16q40 0 75.5 7.5t64.5 25.5
t50.5 49t35.5 79q8 30 -6 52.5t-45 42t-75.5 34.5t-91.5 30q-66 20 -127.5 42t-112 54t-82 78.5t-31.5 116.5q0 31 8 67q20 95 63.5 159.5t107.5 102.5t144 53t170 13q87 -1 167 -30.5t127 -101.5q21 -31 30.5 -66t9.5 -70q0 -53 -19 -100z" />
    <glyph glyph-name="T" unicode="T" horiz-adv-x="1044" 
d="M148 847q-40 0 -68.5 28t-29.5 69q0 40 28 68.5t69 29.5l749 4q40 0 68.5 -28.5t28.5 -68.5q1 -39 -27.5 -67.5t-68.5 -28.5l-300 -3l-92 -856q-4 -40 -35.5 -65.5t-71.5 -20.5q-39 4 -64.5 34.5t-21.5 70.5l92 836z" />
    <glyph glyph-name="U" unicode="U" horiz-adv-x="1046" 
d="M180 1019q13 42 48.5 60t74.5 6q38 -12 56 -47.5t-11.5 -141.5t-45 -176.5t-29.5 -145t-23 -148t-9 -137.5q0 -39 4.5 -71.5t13 -54t21.5 -33t31 -11.5q75 -1 135 23.5t108.5 68.5t84.5 103t62 125.5t42 137t24 136.5l36 292q4 36 32 52t60 16q18 0 36 -4t33 -15
t23.5 -27.5t7.5 -38.5l-118 -967q-5 -40 -36.5 -65.5t-71.5 -19.5q-39 5 -64.5 36.5t-20.5 71.5l6 47q2 2 -45 -38t-101.5 -68.5t-118.5 -44t-138 -14.5q-69 1 -115 32.5t-72.5 83t-38 119t-11.5 142.5q0 79 9.5 162.5t23.5 163.5t32 151t32.5 124.5t23.5 84z" />
    <glyph glyph-name="V" unicode="V" horiz-adv-x="937" 
d="M50 973q0 40 27.5 69t68.5 29q40 1 69 -27l29 -28q0 -40 1.5 -77.5t5.5 -98t9.5 -138t12.5 -157.5t15 -158t17.5 -137t23.5 -89t40 5.5t56 99.5t62 147t61 170t55 170t45 148.5t30 105t11 38.5q10 43 44 62.5t73 11.5q40 -10 60.5 -44.5t11.5 -71.5q0 -1 -13 -49.5
t-35.5 -125t-54 -175t-70.5 -201t-85 -201.5t-96 -176.5t-106.5 -127.5t-117.5 -50q-51 0 -85 51t-58.5 127t-42.5 171.5t-29 195t-18.5 194.5t-11 170t-4.5 121z" />
    <glyph glyph-name="W" unicode="W" horiz-adv-x="1319" 
d="M52 976q0 39 28.5 67.5t68.5 28.5t68.5 -28.5t28.5 -67.5v-140t1 -172t3.5 -177.5t6.5 -157.5t30.5 -73t58.5 58t66.5 136t64.5 149q8 20 15 38t12 31q0 6 -0.5 14t-0.5 19q0 12 0.5 22t1.5 20q6 58 33 92t79 34q87 0 103 -87q2 -11 1.5 -29.5t-3 -37t-8 -38.5t-10.5 -34
q2 -27 5.5 -62t9.5 -68q8 -55 20 -115.5t24.5 -109.5t26 -56.5t29.5 28.5q28 60 57.5 135.5t58.5 156t54 160.5t44 147t30.5 119t12.5 77q2 41 33 67.5t70 22.5q40 -2 67 -32t23 -70q-2 -34 -17.5 -105.5t-40.5 -163.5t-58 -196t-71.5 -203.5t-80 -187t-83.5 -145.5
q-29 -39 -62 -62t-72 -23q-43 0 -79 37t-64.5 93.5t-51 128.5t-28.5 98q-16 -33 -61.5 -107t-90.5 -132.5t-88.5 -96.5t-83.5 -36q-45 4 -75.5 40t-49.5 92.5t-30.5 128.5t-17.5 153t-8 166.5t-2 166.5q0 82 1 155.5t1 131.5z" />
    <glyph glyph-name="X" unicode="X" horiz-adv-x="994" 
d="M776 1086q30 30 70 30q39 0 67 -26q15 -15 23 -32.5t8 -37.5q0 -17 -6.5 -34.5t-20.5 -31.5q-24 -25 -59.5 -71.5t-78 -107t-91 -132t-92.5 -136.5q45 -81 91 -166t81.5 -150.5t40.5 -75t5 -6.5q45 -85 45 -109q0 -26 -13.5 -48.5t-36.5 -36.5q-21 -12 -47 -12t-49.5 14
t-37.5 42q0 -1 -17 29t-46 84.5t-68.5 126t-68.5 125.5q-37 -57 -85 -131.5t-84 -130.5t-74 -116t-38 -62q20 32 -1.5 20.5t-45.5 -11.5q-26 0 -53 16q-22 15 -33 37t-11 45q0 29 12 46q0 -1 27 43t70.5 111t99.5 154t112 172q-34 61 -70.5 129.5t-68.5 129t-57 108
t-40 78.5q-12 21 -12 44q0 26 14 48.5t39 37.5q20 9 43 9q28 0 51.5 -13.5t35.5 -38.5q14 -27 35 -67t47 -88.5t56.5 -104.5t48.5 -90q28 43 72 106.5t83 117t71.5 96t56.5 67.5z" />
    <glyph glyph-name="Y" unicode="Y" horiz-adv-x="953" 
d="M163 1089q16 19 35.5 27.5t39.5 8.5q36 0 62 -22q17 -15 26 -34t9 -41q0 -35 -22 -60q-15 -19 -27.5 -45.5t-21.5 -59t-14.5 -69t-5.5 -73.5q0 -40 7.5 -78.5t24 -66.5t44 -44.5t69.5 -16.5q89 6 149.5 44.5t98 99t55 137.5t17.5 158v24q0 11 -1 24q-2 39 23 69.5
t66 33.5q40 2 71 -23t34 -66q1 -12 1 -26v-24q0 -106 -23.5 -210.5t-75.5 -192t-132.5 -150.5t-182.5 -83l-57 -352q-6 -40 -38.5 -63.5t-72.5 -17.5q-40 8 -63.5 39.5t-17.5 71.5l54 325q-52 9 -102.5 49.5t-81.5 94.5t-45.5 117.5t-14.5 126.5q0 52 8 104.5t23 100.5
t36.5 90.5t45.5 72.5z" />
    <glyph glyph-name="Z" unicode="Z" horiz-adv-x="975" 
d="M224 848q-40 0 -69 27.5t-29 68.5q-1 40 27 69t66 30l609 9q21 0 39 -8.5t30.5 -22t20 -31t7.5 -37.5q0 -37 -57 -97q0 -1 -12.5 -14.5t-58 -63.5t-103.5 -115.5t-119 -135.5t-118.5 -140t-102.5 -130t-66.5 -107.5t-3 -50.5t41.5 -4.5t48 -1.5h29q14 0 25 1q47 3 92 8
t84 13t65.5 18t38.5 20q29 27 66 27q39 0 70 -31q27 -29 27 -65q0 -40 -30 -71q-26 -25 -70.5 -44.5t-99 -34t-115 -23t-118.5 -10.5q-13 -2 -30 -2h-31q-49 0 -107 6t-107 25.5t-81 56t-25 99.5q5 43 37 103t79.5 131t107.5 147.5t121.5 151t121.5 143.5t81 92z" />
    <glyph glyph-name="bracketleft" unicode="[" horiz-adv-x="584" 
d="M438 1187q40 0 68 -28.5t28 -68.5q0 -39 -28 -68t-68 -29h-126q-14 -137 -22.5 -290t-16.5 -310q-5 -99 -10.5 -196.5t-10.5 -175.5l130 1q39 1 67.5 -27.5t28.5 -67.5q0 -40 -27.5 -68.5t-66.5 -29.5l-235 -3q-21 0 -39 9t-31 23.5t-21 33t-7 38.5q9 123 16 239.5
t12 233.5q10 171 20 343t29 354q2 18 11 32.5t22 27t29.5 20t34.5 7.5h213z" />
    <glyph glyph-name="backslash" unicode="\" horiz-adv-x="994" 
d="M76 955q-13 13 -19.5 30.5t-6.5 34.5q0 20 8 37.5t22 32.5q28 26 67 26q41 0 69 -28q15 -8 50.5 -53t82.5 -114t102.5 -156t114 -178t115.5 -181t106 -164.5t86 -127t55 -72.5q16 -22 16 -51q0 -23 -11.5 -45t-33.5 -37q-26 -16 -53 -16q-23 0 -44.5 11.5t-34.5 33.5z
" />
    <glyph glyph-name="bracketright" unicode="]" horiz-adv-x="584" 
d="M147 -174q-41 0 -69 29t-28 69q0 39 28.5 67.5t68.5 28.5h126q14 138 22.5 291t15.5 308q6 100 11 197t10 175l-129 -1q-39 -1 -67.5 27.5t-28.5 68.5t27.5 69t67.5 29l235 2q20 0 38.5 -8.5t31.5 -22.5t20 -33.5t6 -39.5q-9 -122 -15.5 -238.5t-12.5 -232.5
q-9 -173 -19 -344.5t-29 -354.5q-1 -17 -10.5 -32.5t-23 -26.5t-29.5 -19t-33 -8h-214z" />
    <glyph glyph-name="asciicircum" unicode="^" horiz-adv-x="628" 
d="M205 705q-28 -19 -59 -19q-47 0 -77 38q-10 14 -14.5 28t-4.5 30q0 22 9 41.5t29 35.5q52 39 86 65t56 42q25 19 39 30q22 19 58 19q19 0 37 -6t39 -26.5t42 -40.5t46.5 -44t52.5 -48q34 -30 34 -72q0 -36 -24 -65q-30 -33 -72 -33q-36 0 -64 24q-30 27 -57.5 52.5
t-39.5 37.5q-10 -8 -41.5 -32t-74.5 -57z" />
    <glyph glyph-name="underscore" unicode="_" horiz-adv-x="919" 
d="M771 18q41 0 69.5 -28.5t27.5 -68.5q1 -40 -27.5 -68.5t-68.5 -28.5l-625 2q-41 0 -69 29t-28 69q0 39 28.5 67.5t68.5 28.5z" />
    <glyph glyph-name="grave" unicode="`" horiz-adv-x="550" 
d="M83 882q-12 8 -22.5 29t-10.5 44q0 32 19 56q14 19 34.5 29.5t43.5 10.5q15 0 29.5 -4.5t27.5 -14.5q49 -34 91 -63q18 -12 36.5 -23.5t33.5 -20t25.5 -13t11.5 -4.5q40 0 69 -28t29 -69t-29 -69t-69 -28q-23 0 -56 13t-67.5 30.5t-68.5 38t-60 38.5t-46.5 33z" />
    <glyph glyph-name="a" unicode="a" horiz-adv-x="868" 
d="M645 729q7 -5 12 -9.5t-1 2.5q12 13 56 13q19 0 37.5 -6.5t34.5 -17.5t25 -28.5t6 -37.5v-3q0 -5 -2 -8l-77 -602q-5 -41 -36.5 -65.5t-71.5 -18.5q-38 5 -63.5 36.5t-20.5 73.5q-123 -129 -191 -131q-64 0 -121.5 21.5t-103.5 78.5q-32 42 -53 99t-24 134q-1 27 0 56.5
t7 78.5h1q5 47 27 104t55 103.5t75.5 83t89.5 60.5q37 20 79 30t84 10q57 -3 99.5 -18.5t76.5 -38.5zM580 480q-13 6 -28 31.5t-13 55.5q0 1 -9 6q-10 9 -28 14t-34 5q-20 0 -38.5 -5.5t-37.5 -13.5q-54 -27 -95 -82.5t-49 -132.5q-4 -49 -3 -89q4 -84 35 -121
q12 -17 29.5 -22.5t35.5 -5.5q41 3 77 36.5t67 88.5t54.5 121.5t36.5 113.5z" />
    <glyph glyph-name="b" unicode="b" horiz-adv-x="826" 
d="M150 990q5 39 35.5 64t70.5 23q41 -5 66 -35.5t21 -71.5l-24 -233q1 1 42.5 15t92.5 14q80 0 141 -29.5t100.5 -79.5t60 -115t20.5 -138q0 -88 -25 -164t-68.5 -135.5t-102.5 -99.5t-126 -56q-50 -13 -96 -13q-37 0 -73 8.5t-69 26.5q-7 4 -12.5 7.5t-0.5 0.5
q-16 -11 -54 -11q-35 0 -67 20t-31 62l0.5 20t3 54t7.5 78.5t14 95.5zM265 233q19 -8 36 -38.5t29 -47t25 -16.5q14 0 28 2t26 4q37 10 68.5 33t55 58.5t36.5 80t13 95.5q0 36 -7 67t-21 53t-38.5 35t-61.5 13t-66 -21.5t-51.5 -59t-38.5 -86.5t-26 -101z" />
    <glyph glyph-name="c" unicode="c" horiz-adv-x="817" 
d="M762 462q-6 -40 -38.5 -63t-72.5 -16q-40 6 -63 39t-16 71q2 22 -0.5 41.5t-12.5 31.5q-12 14 -36.5 21t-52.5 7q-25 0 -47 -5t-44 -17q-45 -23 -79 -74.5t-50 -145.5l-2 -1q-2 -9 -3 -24.5t-1 -31.5q0 -36 7 -70t20 -59q15 -27 37 -42t50 -17h1q22 -2 37.5 -0.5
t34.5 6.5q43 12 73.5 34t43.5 45q14 23 36.5 35.5t47.5 12.5q27 0 49 -12q23 -14 36 -37t13 -48q0 -24 -13 -47q-14 -26 -38 -52.5t-55 -48t-67.5 -40t-77.5 -28.5q-31 -8 -67 -12.5t-67 -1.5h-1q-80 6 -142 49t-100 110q-27 50 -39.5 105t-12.5 113q0 49 9 102
q25 136 86 222.5t145 130.5q85 42 180 42q68 0 132 -25t104 -71q61 -75 61 -173q0 -13 -1.5 -27t-3.5 -29z" />
    <glyph glyph-name="d" unicode="d" horiz-adv-x="885" 
d="M437 786q63 0 112 -18t62 -29l30 271q3 37 32 53.5t61 16.5q19 0 36.5 -5.5t32.5 -16t23.5 -26t-28.5 -34.5q36 -1 34.5 -34t-7 -88t-14 -127.5t-22.5 -152.5l-64 -578q-5 -40 -36 -65t-71 -19q-35 3 -59.5 29.5t-23.5 21.5q-10 -10 -54.5 -32t-97.5 -21h-1
q-74 -1 -140 27.5t-113 82.5q-37 46 -58 110t-21 135q0 17 1 32.5t3 31.5q10 84 42.5 161.5t82.5 138t116 98t142 37.5zM383 126q32 0 60.5 26t53.5 74.5t45.5 113.5t31.5 124q-24 16 -34 55q-3 11 -6 19t-9 16q-11 18 -32 28t-56 10t-66.5 -22.5t-57.5 -60.5t-43 -86.5
t-23 -94.5q-3 -19 -3 -40q0 -37 8.5 -69t25.5 -51q17 -22 44.5 -32t60.5 -10z" />
    <glyph glyph-name="e" unicode="e" horiz-adv-x="842" 
d="M245 258q1 -7 8 -37.5t21 -55.5t34 -39t47 -14q49 0 85 11.5t58 24.5t30.5 22t8.5 8q32 42 80 42q34 0 60 -21q37 -29 37 -76q0 -32 -74 -96t-137 -86.5t-148 -22.5q-78 0 -136 35t-95.5 89.5t-55.5 122t-18 134.5q0 56 11.5 117t37.5 120t68.5 111.5t105.5 88.5
q42 26 91 38t100 12q82 0 154 -30.5t115 -87.5q31 -42 45 -89t14 -98q0 -17 -1.5 -32t-3.5 -32q-12 -53 -54 -85.5t-97 -50t-119.5 -24t-127.5 -6.5h-34q-16 0 -33 2zM275 449q-2 0 18 -1t37 -2q13 -1 29 -1h38q34 0 72 1t69 4t44 5.5t13 -5.5q5 29 1 56.5t-17 45.5
q-16 20 -48.5 30t-66.5 10q-27 0 -50.5 -5t-43.5 -17q-39 -23 -63.5 -62.5t-31.5 -58.5z" />
    <glyph glyph-name="f" unicode="f" horiz-adv-x="771" 
d="M147 522q-40 0 -68.5 28.5t-28.5 67.5q0 40 28.5 68.5t68.5 28.5h29q12 67 32.5 137.5t50.5 123.5t72.5 85.5t99.5 33.5q72 0 138.5 -23.5t108.5 -75.5q24 -32 33.5 -64t9.5 -67q0 -31 -6 -64q-12 -39 -46 -59.5t-74 -9.5q-38 11 -58 44.5t-10 73.5q2 7 1.5 15t-3.5 13
q-12 13 -37 18t-53 5q-17 -1 -36 -55t-32 -131h116q39 0 67.5 -28.5t28.5 -68.5q0 -39 -28.5 -67.5t-67.5 -28.5h-141q-6 -53 -11.5 -116t-10.5 -126t-10 -128.5t-12 -138.5q-4 -40 -34.5 -64.5t-69.5 -22.5q-41 4 -67 34.5t-21 70.5q4 50 9 116t10.5 135.5t12 137
t10.5 102.5h-1z" />
    <glyph glyph-name="g" unicode="g" horiz-adv-x="847" 
d="M629 726q10 -6 19 -13.5t10 -8.5q10 4 33 4q19 0 38 -5.5t34 -16.5t24.5 -27.5t5.5 -39.5q-8 -72 -13 -145.5t-10 -146.5q-7 -99 -15 -192.5t-24 -175.5t-44.5 -151.5t-78 -119.5t-121.5 -78t-173 -28q-76 0 -127 14.5t-82 38t-43 54t-12 60.5q0 24 6 47t12 41
q9 22 18 39q14 24 37.5 36t47.5 12q26 0 48 -14q23 -13 36 -35.5t13 -47.5q0 -27 6.5 -39t39.5 -12q55 0 93.5 18t65 51t45 82t17.5 46q1 2 -49.5 -26.5t-113.5 -28.5q-76 0 -132 32t-93.5 83t-56 116t-18.5 131q0 89 24.5 177t70.5 159.5t111.5 116t148.5 44.5
q49 0 102 -10.5t100 -40.5zM569 455q-12 7 -26 33t-10 57q2 5 -0.5 10t-7.5 8q-18 11 -46 16t-52 5q-34 0 -62.5 -28.5t-51.5 -73t-35.5 -99t-12.5 -103.5q0 -30 6 -61t18.5 -55.5t32.5 -38t50 -13.5q36 0 67 31.5t56.5 84t44.5 117t29 110.5z" />
    <glyph glyph-name="h" unicode="h" horiz-adv-x="741" 
d="M146 1010q4 40 34.5 64.5t71.5 22.5q39 -4 65 -34.5t21 -71.5l-25 -267q6 5 56 26.5t110 21.5q68 0 109 -40.5t64 -102t31 -136.5t8 -150q0 -67 -4.5 -128.5t-9.5 -109t-13 -96.5t-40 -73t-72 -17q-40 8 -63.5 40t-17.5 70q0 1 4 20t8 49t9 70.5t10 84.5t7.5 90t2.5 87
q0 34 -2 63.5t-7.5 49t-11.5 27.5t-12 8q-33 0 -60.5 -17.5t-51.5 -48t-42 -72.5t-31 -87t-22 -92t-13 -88l-14 -144q-2 -36 -31.5 -52t-61.5 -16q-37 0 -69.5 20t-31.5 62q0 2 2.5 39.5t11.5 97.5z" />
    <glyph glyph-name="i" unicode="i" horiz-adv-x="398" 
d="M124 659q3 39 34.5 65t72.5 21q39 -5 64 -35.5t22 -71.5l-70 -621q-4 -40 -35.5 -65t-71.5 -21q-40 5 -65 35.5t-21 71.5zM153 962q6 39 37.5 64t70.5 19q20 -3 36 -12.5t28 -23.5t17.5 -32.5t2.5 -39.5l-6 -39q-3 -41 -35 -65t-73 -20q-39 6 -63.5 37.5t-19.5 70.5z" />
    <glyph glyph-name="j" unicode="j" horiz-adv-x="794" 
d="M50 -101q0 20 9 38.5t23.5 31t33 20.5t40.5 6q39 -3 63.5 -33t24.5 -69q0 -35 6 -57.5t15 -35.5q10 -13 26 -14q33 0 54.5 10t35.5 30q41 57 57 194q3 37 9.5 98t13.5 130t14.5 139.5t13 127.5t9.5 92.5l4 35.5q4 41 35.5 67t70.5 21q39 -4 64 -34.5t-13 -67.5
q-14 -481 -20.5 -540t-9.5 -89v-1q-10 -93 -32 -164t-58 -122q-87 -121 -243 -121q-64 4 -109 27t-76 66q-29 38 -45 92t-16 122zM546 957q6 41 37 65t71 20q40 -6 65 -37t20 -71l-5 -39q-5 -41 -37 -66t-72 -19q-38 4 -63.5 36t-20.5 72z" />
    <glyph glyph-name="k" unicode="k" horiz-adv-x="747" 
d="M157 1019q8 42 41 64t73 15q40 -6 62.5 -40.5t-4.5 -166.5t-42 -222.5t-28.5 -179t-22.5 -164t-9 -118.5q33 25 80.5 92t87 133t68 122t38.5 85q12 36 47 55t74 7t57 -47.5t6 -74.5q-8 -22 -24 -54.5t-39 -70.5t-50.5 -82t-51.5 -79l140 -230q8 -12 11 -26t3 -26
q0 -23 -11 -45.5t-34 -35.5q-23 -15 -50 -15q-26 0 -48 12.5t-35 35.5l-100 162q-12 -13 -43.5 -53.5t-67.5 -76.5t-76 -61t-85 -23q-46 3 -60 66t-14 153q0 79 8 175.5t20 195t26 192.5t25.5 166t19.5 116z" />
    <glyph glyph-name="l" unicode="l" horiz-adv-x="422" 
d="M173 984q6 41 37.5 65.5t70.5 19.5q40 -4 65.5 -36t19.5 -72l-118 -950q-4 -40 -36 -65.5t-73 -19.5q-40 5 -64.5 36.5t-19.5 70.5z" />
    <glyph glyph-name="m" unicode="m" horiz-adv-x="1147" 
d="M122 669q3 40 34.5 65t71.5 20q40 -4 86 -106q2 38 48.5 68t101.5 30q45 0 80 -18.5t59.5 -49t41 -71t15.5 -36.5l27 40t58 69.5t66.5 47.5t76.5 18q64 0 105.5 -38.5t63.5 -96.5t31 -128.5t9 -142.5q0 -64 -5 -124t-11 -107t-13.5 -95t-40.5 -71t-72 -16q-41 6 -63 39
t-15 72q0 -1 3 18t7 48t9.5 67.5t10.5 81.5t7.5 86.5t2.5 81.5q0 31 -2 57t-7.5 43.5t-10.5 24t-9 6.5q-24 0 -51.5 -37t-52.5 -99t-47 -134.5t-37.5 -135t-26.5 -121t-37 -72.5t-54 -14q-21 0 -40 6.5t-34.5 17.5t-25 29.5t-5.5 39.5q1 11 6 46t10.5 84.5t10.5 106t5 109.5
q0 39 -3 72.5t-10 57.5t-14.5 34t-17.5 10q-18 0 -39 -21t-42 -58.5t-39 -88.5t-34 -104t-28 -103.5t-20.5 -90t-16 -81.5t-33 -57.5t-56.5 -15.5q-20 0 -39 5.5t-34 17.5t-24 28.5t-6 39.5z" />
    <glyph glyph-name="n" unicode="n" horiz-adv-x="840" 
d="M126 674q6 40 37 65t70 20q41 -4 65.5 -35.5t19.5 -71.5l-5 -46q-11 -16 21.5 22t68 68t76 46.5t84.5 16.5q70 0 113.5 -35t69 -89t35 -122t9.5 -138q0 -71 -7 -138.5t-15 -121t-20 -106t-45 -74t-74 -13.5q-38 10 -59.5 43t-12.5 72l4 19t10 48.5t12.5 69t12.5 82
t10 86.5t4 84q0 33 -3.5 60t-10 45t-14.5 26.5t-19 8.5q-26 0 -54.5 -23t-58 -63t-56 -91t-50.5 -106t-41.5 -107t-31.5 -93t-25.5 -81.5t-37 -54t-51.5 -13.5q-20 0 -38.5 5.5t-34.5 17.5t-25 30.5t-6 40.5z" />
    <glyph glyph-name="o" unicode="o" horiz-adv-x="826" 
d="M147 564q23 16 36 18q6 20 25.5 53.5t52.5 62t83 47t121 18.5q89 0 157 -44t104 -115q27 -51 38.5 -108.5t11.5 -114.5q0 -71 -15.5 -139t-45 -126.5t-74.5 -104t-104 -71.5q-38 -15 -81 -23t-86 -8q-83 0 -149 35t-108 93q-33 46 -48 101t-15 109q0 64 12 118.5
t27.5 95.5t31.5 68t26 35zM261 392q4 8 1.5 -7t-7 -38t-8 -49t-3.5 -51q0 -28 7 -53t20 -45q15 -22 41 -34t58 -12q26 0 47.5 3.5t44.5 11.5q30 10 52 36t37.5 63.5t23 81t7.5 82.5q0 36 -6.5 71.5t-20.5 63.5q-26 53 -90 53q-43 0 -63 -12.5t-31 -29.5q-10 -17 -12 -40
q0 -40 -29 -68t-69 -27z" />
    <glyph glyph-name="p" unicode="p" horiz-adv-x="885" 
d="M165 630q3 19 13 35.5t24.5 28t32.5 17t39 3.5q50 -8 61 -28q22 25 67.5 51.5t100.5 26.5q94 0 162 -47.5t110 -121.5q31 -58 45.5 -121.5t14.5 -122.5q0 -51 -10 -100.5t-28 -96.5q-19 -47 -47.5 -90.5t-68 -76.5t-90 -52.5t-113.5 -19.5q-81 0 -134 32.5t-58 39.5
l-41 -348v-7q-4 -37 -32 -53t-60 -16q-37 0 -70 20.5t-32 62.5q0 1 2.5 34t7.5 88.5t14.5 129.5t22.5 154zM503 570q-26 0 -50 -22t-46.5 -63.5t-42 -98.5t-31.5 -107q9 -3 26.5 -22t21.5 -47q6 -28 20 -51q11 -20 29.5 -35t47.5 -15q52 0 86 34t53 81q12 31 18 63.5t6 63.5
q0 38 -8.5 77t-26.5 72t-44 51.5t-59 18.5z" />
    <glyph glyph-name="q" unicode="q" horiz-adv-x="811" 
d="M459 -489q-21 -1 -38.5 5.5t-31.5 19t-23 30t-9 37.5q-1 40 26 70t66 32l18 1l25 247q5 5 -31 -13.5t-80 -19.5q-85 0 -152.5 35t-111.5 103q-31 50 -46.5 108.5t-17.5 118.5q-3 68 15 132.5t50.5 121.5t76.5 102.5t95 75.5q34 18 70 31.5t75 10.5q67 -3 107 -21.5
t58 -33.5q1 1 18 6.5t36 5.5q20 0 38 -5.5t33.5 -15.5t25.5 -27.5t6 -39.5l-94 -913h-16q39 1 69 -26t32 -66q1 -41 -25.5 -71t-66.5 -31zM531 447q-10 8 -19 29.5t-7 42.5q-5 16 -23 30.5t-41 16.5q-15 0 -29 -5t-25 -12q-30 -19 -56.5 -46.5t-46 -61t-29.5 -72.5t-8 -79
q1 -37 9 -70t24 -57q16 -25 41 -37t56 -12q23 1 46 30t44 80t38 113t26 110z" />
    <glyph glyph-name="r" unicode="r" horiz-adv-x="758" 
d="M103 654q2 41 33.5 67t70.5 22q40 -2 66 -32t24 -71q103 99 164 99q76 0 124.5 -19.5t76 -50.5t37 -67t9.5 -67q0 -17 -1.5 -31t-4.5 -25q-2 -13 -6 -23q-10 -38 -46 -56.5t-73 -7.5q-40 11 -59 46t-7 72q0 -2 1 5t-1.5 12.5t-12 11.5t-37.5 6q-29 0 -56.5 -32.5
t-52 -86.5t-43.5 -120.5t-32 -128t-21 -109t-11 -66.5q-5 -33 -32.5 -49t-57.5 -16q-39 0 -72 22t-30 65z" />
    <glyph glyph-name="s" unicode="s" horiz-adv-x="772" 
d="M710 474q-15 -39 -51.5 -54t-72.5 -1q-39 14 -54 51t-5 63q1 -2 -9.5 4.5t-23 11.5t-25 8t-21.5 3q-23 0 -51.5 -4t-54 -14.5t-41.5 -24t-19 -30.5q0 -5 7.5 -12t24 -14.5t39 -13t44 -9.5t39 -6.5t26.5 -5.5q45 -10 91 -30.5t82.5 -52t59.5 -74.5t16 -97q-3 -31 -15 -60
t-32 -54q-21 -29 -51 -53t-66.5 -42.5t-78 -28t-84.5 -9.5q-60 0 -114.5 21.5t-96.5 48t-70 51l-28 24.5q-9 8 -17 26t-8 38q0 36 28 66q13 16 31 23.5t38 7.5q18 0 35.5 -6.5t40 -27.5t48 -37.5t55 -29.5t58.5 -13q45 0 81 19.5t52 50.5q1 3 -4.5 9.5t-21.5 15.5t-37.5 16
t-39.5 11q-23 5 -48.5 10.5t-52 12t-53 15t-54.5 22.5q-56 32 -90.5 83.5t-24.5 128.5q8 65 44.5 111t87 75.5t110 42.5t115.5 13q54 0 113 -23t100 -61q29 -26 45 -59.5t16 -73.5q0 -32 -12 -62z" />
    <glyph glyph-name="t" unicode="t" horiz-adv-x="752" 
d="M149 540q-40 0 -69 27.5t-30 67.5q0 40 27.5 68.5t67.5 29.5l50 2q4 19 11 60.5t19 104.5q6 40 38.5 62.5t72.5 16.5q41 -8 63 -40.5t16 -71.5q-3 -24 -10 -64t-12 -65l211 5q20 0 37.5 -6.5t31.5 -19.5t21.5 -31t7.5 -37q0 -20 -6.5 -37.5t-19.5 -31.5t-30.5 -22
t-37.5 -8l-254 -7q-6 -13 -16.5 -64.5t-19.5 -113.5t-15 -123t-6 -102q0 -24 1 -30.5t18.5 -6.5t43 13t40.5 30q17 19 24 43q11 38 44.5 58.5t73.5 9.5t59.5 -45.5t9 -70.5t-47.5 -91.5t-73.5 -81.5t-85.5 -42.5t-114 -16.5q-94 0 -133.5 69t-39.5 186q0 77 13.5 178.5
t30.5 197.5h-12z" />
    <glyph glyph-name="u" unicode="u" horiz-adv-x="769" 
d="M123 673q13 41 47.5 59.5t74.5 7.5q37 -11 56 -46t7 -77t-32.5 -126t-30.5 -133t-16 -95.5t-6 -82.5q0 -35 6 -50.5t13 -15.5q21 0 45.5 21.5t50 61t50 90t45.5 104t39 105.5t30 92t18.5 63.5l6.5 23.5q9 33 33.5 47t52.5 14q20 0 38.5 -6.5t34.5 -18t24.5 -29.5t6.5 -40
l-69 -635q-4 -40 -35.5 -65t-70.5 -21q-40 5 -65.5 35t-20.5 71l2 23q16 23 -13 -12t-61.5 -61.5t-67.5 -41.5t-74 -15q-57 0 -94 25.5t-59 67t-30.5 95t-8.5 110.5q0 54 5.5 107.5t13.5 104t17 95t18 78.5t14 52z" />
    <glyph glyph-name="v" unicode="v" horiz-adv-x="726" 
d="M56 631q3 40 34 66t69 24q41 -2 67 -33t-12 -69q36 -1 34.5 -31t-3 -75t-2.5 -100t-1 -107q0 -33 0.5 -62.5t2 -51.5t11.5 -8t30.5 53t42.5 89.5t43.5 103t41 103.5t35 90t24 62l8.5 23q15 40 51 58t74 3q36 -15 53 -50t-0.5 -85t-38 -100.5t-48 -114.5t-59 -130
t-67 -131t-72.5 -115.5t-75 -83.5t-76 -33q-40 0 -68.5 26.5t-46.5 68.5t-29.5 94t-17.5 109.5t-8.5 115t-2.5 107.5q0 40 1 72.5t1.5 58t2 39.5z" />
    <glyph glyph-name="w" unicode="w" horiz-adv-x="1045" 
d="M50 637q0 40 29 69t70 27q40 0 67.5 -28.5l27.5 -28.5q0 -40 1.5 -76.5t4 -91.5t6 -119.5t2.5 -229.5q1 0 10.5 14t24.5 45t32.5 71t33.5 80q-1 7 -1 21v23q0 15 0.5 29t1.5 28q8 61 36.5 98.5t85.5 37.5q60 0 84 -37.5t24 -83.5q0 -17 -1.5 -34t-7.5 -35t-12 -37
t-13 -37q1 -17 7 -183q12 0 23 20t28 61t37.5 93.5t41 107.5t40 108t34 94.5t23 65.5l8.5 24q14 41 50 59.5t74 4.5q38 -11 55.5 -47.5t0.5 -87.5t-36 -103t-44.5 -118.5t-56 -136.5t-63 -137t-66 -120t-68.5 -87.5t-69 -34.5q-28 0 -53 16t-46 42t-38 60.5t-18 39.5
q-5 -7 -31 -41.5t-52.5 -59.5t-53 -41t-53.5 -16q-41 0 -68.5 34t-46 84.5t-30.5 114t-19 130t-10.5 128.5t-4.5 111.5t-1 79.5v30z" />
    <glyph glyph-name="x" unicode="x" horiz-adv-x="750" 
d="M243 -23q-16 -36 -53.5 -50.5t-74.5 0.5q-37 17 -51 54t1 73q9 22 28.5 53t46.5 68.5t58.5 79t57.5 74.5l-45 76.5t-47.5 82.5t-40 75t-26.5 62q-14 37 3.5 73.5t55.5 49.5q37 15 73.5 -3.5t49.5 -55.5q14 -38 45.5 -95.5t57.5 -101.5q12 15 37.5 47t43.5 57.5t28.5 41.5
t11.5 17q7 41 40.5 63t72.5 14q40 -8 62 -41t15 -74q-5 -21 -24 -54t-47 -73t-63.5 -86t-65.5 -86q27 -41 58 -87.5t55.5 -82t23.5 -34l-1 1.5q50 -68 50 -100q0 -23 -10.5 -44t-29.5 -35q-25 -17 -56 -17q-23 0 -43 10.5t-40 34.5l-10.5 14t-31.5 44t-47 70t-42 64
q-10 -13 -34 -44.5t-43 -57t-31.5 -45.5t-17.5 -33z" />
    <glyph glyph-name="y" unicode="y" horiz-adv-x="823" 
d="M90 676q0 39 28 68t68 29t69 -29t29 -68q0 -42 2 -88.5t7.5 -93.5t14.5 -93t24 -85q12 -37 14 -44.5t1.5 -9t18 30t39 66.5t40.5 71.5t38 70.5q12 32 23.5 58.5t20.5 49.5q14 35 27.5 64t30 50t39 30t52.5 1q97 -20 74 -123q-7 -28 -29.5 -78.5t-55.5 -113.5
q-30 -74 -74.5 -175t-99.5 -215.5t-120.5 -241t-140.5 -254.5q-14 -23 -36 -35.5t-47 -12.5q-26 0 -48 14q-23 13 -36 35t-13 47q0 26 13 49q28 48 56.5 99.5t55.5 104t53 102.5t33 65q6 1 -17 23.5t-41 57t-32.5 78.5t-25.5 89q-11 46 -21.5 97.5t-18.5 104.5t-11.5 105
t-3.5 100z" />
    <glyph glyph-name="z" unicode="z" horiz-adv-x="774" 
d="M185 546q-39 -1 -67.5 27t-29.5 69q0 40 28 68.5t68 29.5l444 5q43 1 69.5 -30t26.5 -69q0 -17 -5.5 -33.5t-50.5 -65.5q0 2 -15 -13.5t-60 -65.5t-98 -109.5t-100 -114t-70.5 -92t8.5 -35t68.5 7t68.5 7.5t45.5 5t13.5 0q54 13 87.5 -8.5t42.5 -60.5q8 -41 -13.5 -74
t-81.5 -47q0 1 -15 -2.5t-56 -10t-92 -11.5t-103 -5q-46 0 -89 5.5t-78 20.5t-58 43t-23 70q0 24 7 48v1q6 21 26.5 53.5t51 71t67.5 83.5t76.5 91t80 91t46.5 52z" />
    <glyph glyph-name="braceleft" unicode="{" horiz-adv-x="524" 
d="M358 1194q41 5 71.5 -18.5t38.5 -63.5q6 -40 -18.5 -71.5t-84.5 -43.5q0 -178 15 -96t11 54.5t-9 -64.5t-12 -76q-7 -46 -15.5 -93.5t-19.5 -92t-26.5 -84.5t-32.5 -64q15 -31 22 -82t7 -106q0 -32 -1.5 -64.5t-3.5 -65.5t-9 -64.5t-13 -54t-7 -25.5t-15 -3
q41 -5 66.5 -35.5t21.5 -71.5q-4 -40 -34.5 -65t-70.5 -21q-43 3 -70 24.5t-42.5 52.5t-20 70t-4.5 82q0 29 1.5 59.5t3.5 61.5q2 40 3.5 78t1.5 71q0 38 -2.5 59t-3.5 21q-28 12 -42 36.5t-14 51.5q0 30 16.5 57.5t49.5 35.5q5 2 13.5 22.5t17 59.5t17 86t16.5 95
q10 62 21 120t29.5 106t49 81t78.5 41z" />
    <glyph glyph-name="bar" unicode="|" horiz-adv-x="351" 
d="M108 1125q0 21 8 38.5t22 30.5t32 19.5t39 5.5q19 0 36.5 -8.5t30 -22t19 -32t6.5 -37.5l-57 -1316q0 -21 -8.5 -38.5t-22 -29.5t-31.5 -19.5t-39 -6.5q-20 1 -37 9.5t-29 21.5t-19.5 31.5t-7.5 38.5z" />
    <glyph glyph-name="braceright" unicode="}" horiz-adv-x="523" 
d="M164 -179q-39 -7 -71 17.5t-38 64.5q-5 40 19 71.5t49 34.5q0 -14 2.5 4t7 46t9 64t10.5 76q8 46 16.5 93t19.5 92t27 85t32 63q-16 32 -22 83t-6 106q0 31 1 64t3 65q2 35 9 66.5t13.5 53.5t7.5 26.5t13 2.5q-40 4 -65.5 34.5t-21.5 71.5q5 39 35 64.5t71 21.5
q42 -5 69 -25t42 -51t20 -70t5 -83q0 -29 -1 -59.5t-3 -61.5q-2 -40 -4 -78.5t-2 -71.5q0 -38 3 -59t3 -20q28 -12 42 -36.5t14 -51.5q0 -30 -16.5 -57t-49.5 -37q-4 -1 -13 -22.5t-18 -59.5t-17 -85.5t-15 -94.5q-11 -62 -22 -120.5t-29.5 -106t-48.5 -81t-80 -39.5z" />
    <glyph glyph-name="asciitilde" unicode="~" horiz-adv-x="678" 
d="M248 789q-9 -40 -42 -61.5t-73 -13.5q-41 8 -62 41t-14 73q14 50 40 88q22 33 61.5 60.5t102.5 27.5q37 0 64 -9t45 -23.5t28.5 -33.5l10.5 -19q-5 -3 7 6.5t23.5 19t15.5 13.5t4 5q34 31 72 31q42 0 71 -31q14 -15 20 -32t6 -34q0 -19 -7.5 -37.5t-22.5 -32.5
q-34 -31 -71 -57q-31 -22 -70 -40t-78 -18q-32 0 -54.5 8.5t-38 23t-23.5 32.5t-16 34q-8 11 -10.5 5.5t24.5 -5.5q-2 0 -4.5 -2t-4.5 -5q-3 -6 -4 -14z" />
    <glyph glyph-name="copyright" unicode="&#xa9;" horiz-adv-x="1031" 
d="M143 760q12 18 31.5 22.5t49.5 -10.5q0 6 -31 6q6 25 25 62.5t57 67.5q44 34 109 54.5t166 20.5q8 0 16.5 -0.5t14.5 -0.5q9 0 17 -0.5t17 -1.5q97 -10 167 -54.5t115 -111.5q45 -68 64.5 -149t17.5 -168q0 -12 -1 -23.5t-2 -24.5q-10 -97 -38.5 -181t-87.5 -148
q-61 -65 -153.5 -100.5t-228.5 -31.5q-61 2 -113 18t-96 43q-53 32 -91 77.5t-65 99.5q-53 111 -50 238q2 76 24 151.5t66 144.5zM205 658q-15 -26 -30 -83t-17 -112q-2 -105 39 -191q40 -87 117 -136q32 -19 71 -30.5t86 -13.5q111 -3 184 23.5t118 74.5q46 50 68.5 119
t30.5 151q2 11 2 18v21q2 73 -13.5 139.5t-49.5 116.5t-84.5 82.5t-124.5 39.5q-4 1 -9 1h-14t-16.5 0.5t-16.5 0.5q-79 0 -128 -14t-77 -38q-28 -22 -40 -54t-15 -66q0 -21 -16 -36.5t-39 -13.5q-28 5 -26 1zM570 684q-24 0 -51 -5q-8 -1 -17.5 -4.5t-18.5 -7.5
q-45 -19 -78.5 -61t-44.5 -109q-3 -19 -5 -35.5t-2 -32.5q0 -52 17 -88q7 -14 15.5 -24.5t20.5 -17.5q23 -18 57 -24q18 -3 36 -3q38 0 81 11.5t92 35.5q20 7 39.5 0.5t28.5 -26.5q10 -19 3 -39.5t-27 -29.5q-58 -28 -113 -42t-104 -14q-15 0 -27.5 1t-25.5 3
q-59 10 -100 40q-44 31 -70 85q-12 27 -19.5 60.5t-7.5 72.5q0 20 2 40.5t6 44.5q16 95 66.5 157t119.5 92q29 11 56 18q32 7 69 7q47 2 85 -7t65 -28q24 -18 35 -38q14 -24 14 -54q2 -44 -30 -91q-11 -17 -32 -21t-41 8q-18 12 -22 34t9 39q12 18 12 30q0 1 1 0q-3 3 -8 9
q-25 15 -86 14z" />
    <glyph glyph-name="onequarter" unicode="&#xbc;" horiz-adv-x="1159" 
d="M116 516q-28 0 -47 20t-19 47t19.5 46.5t46.5 19.5h42l52 385l-33 -21q-17 -11 -37 -11q-17 0 -30.5 7.5t-24.5 20.5q-11 18 -11 38q0 16 7.5 30.5t21.5 24.5l155 104q8 6 17.5 8t17.5 2q16 0 28.5 -5.5t21.5 -15.5t15 -24t3 -30l-69 -513h31q27 0 46.5 -19.5t19.5 -46.5
t-19 -47t-47 -20h-207zM931 255q3 27 24 44t48 16q28 -3 45 -23.5t16 -47.5l-13 -129q-18 0 -16 0v0q27 3 48.5 -15t22.5 -46q3 -27 -15 -48t-46 -24h-5l-16 -173q-3 -27 -24 -44t-48 -16q-28 3 -45.5 24t-14.5 49l14 154h-14q-44 0 -90.5 2.5t-85.5 11t-67 26t-24 51.5
q1 15 15.5 39t33.5 54t43 63.5t48 68.5t48 66.5t42.5 56t27.5 36.5l9 12q15 19 28.5 25t28.5 6q22 0 40 -13q27 -21 27 -53q0 -24 -47 -75q0 -6 6.5 2.5t-9.5 -12t-36.5 -46.5t-41.5 -54t-41.5 -55t-36.5 -49.5t-25.5 -37t-10.5 -19.5q7 15 5.5 15.5t13.5 -2t35 -4t43 -1.5
q15 0 30 1l15 1zM416 129q-8 -15 -23 -23.5t-32 -8.5q-18 0 -35 11q-16 9 -23.5 25t-7.5 31q0 19 11 36q12 13 34 44.5t52.5 77.5t65.5 101.5t71 111.5t70.5 109.5t63 96t50.5 71t33 34.5q17 18 46 18q26 0 45 -18q11 -11 16.5 -23t5.5 -25t-4.5 -24.5t-13.5 -20.5z" />
    <glyph glyph-name="onehalf" unicode="&#xbd;" horiz-adv-x="1248" 
d="M116 516q-28 0 -47 20t-19 47t19.5 46.5t46.5 19.5h42l52 385l-33 -21q-17 -11 -37 -11q-17 0 -30.5 7.5t-24.5 20.5q-11 18 -11 38q0 16 7.5 30.5t21.5 24.5l155 104q8 6 17.5 8t17.5 2q16 0 28.5 -5.5t21.5 -15.5t15 -24t3 -30l-69 -513h31q27 0 46.5 -19.5t19.5 -46.5
t-19 -47t-47 -20h-207zM416 129q-8 -15 -23 -23.5t-32 -8.5q-18 0 -35 11q-16 9 -23.5 25t-7.5 31q0 19 11 36q12 13 34 44.5t52.5 77.5t65.5 101.5t71 111.5t70.5 109.5t63 96t50.5 71t33 34.5q17 18 46 18q26 0 45 -18q11 -11 16.5 -23t5.5 -25t-4.5 -24.5t-13.5 -20.5z
M869 442q1 -26 -17.5 -48t-46.5 -22q-28 -1 -48 18t-20 47q1 55 20.5 93.5t57.5 63.5q62 44 166 48q65 0 105.5 -18t66.5 -51q22 -26 33.5 -59.5t11.5 -70.5q0 -42 -14.5 -80t-40.5 -77q-18 -26 -41 -51.5t-47.5 -50.5t-51 -48.5t-50.5 -43.5q-20 -17 -37.5 -32.5t5.5 5.5
q-16 -1 17 -1q39 0 72 -2t58 -4q29 -3 53 -5q28 -4 44.5 -26t13.5 -48q-3 -29 -25 -45.5t-65 -10.5q0 -1 -5.5 -0.5t-27 3t-51.5 4t-64 1.5q-39 0 -81 -2.5t-82 -10.5q-18 -3 -34.5 4t-27 19.5t-14.5 29.5t2 35q10 26 26 49t36.5 45.5t46 44.5t53.5 48q20 17 43 37.5
t46.5 43t44 44.5t33.5 42q17 24 24.5 43t7.5 40q0 28 -15 46q-7 9 -20 14t-45 5q-63 -1 -95 -24q-10 -6 -15.5 -17.5t-5.5 -24.5z" />
    <glyph glyph-name="threequarters" unicode="&#xbe;" horiz-adv-x="1108" 
d="M365 129q-8 -15 -23 -23.5t-32 -8.5q-18 0 -35 11q-16 9 -23.5 25t-7.5 31q0 19 11 36q12 13 34 44.5t52.5 77.5t65.5 101.5t71 111.5t70.5 109.5t63 96t50.5 71t33 34.5q17 18 46 18q26 0 45 -18q11 -11 16.5 -23t5.5 -25t-4.5 -24.5t-13.5 -20.5zM203 1131
q-9 -15 -24 -23.5t-32 -8.5t-34 8q-16 10 -24.5 25t-8.5 33q0 19 10 35q18 27 48 49q24 17 64 32.5t99 17.5q54 1 102.5 -19t76.5 -59q21 -27 32 -60t11 -68q0 -14 -2 -30q-5 -39 -27 -75t-35 -48q21 -16 45 -56.5t24 -89.5q-1 -26 -6.5 -52t-16.5 -49q-26 -58 -81.5 -93.5
t-132.5 -37.5q-28 -1 -51.5 4.5t-44.5 14.5t-39 20.5t-33 23.5q-34 29 -62 66q-11 18 -11 38q0 16 7 29.5t22 24.5q18 11 37 11q16 0 30 -7t24 -20q15 -22 35 -38q16 -14 37 -24.5t45 -9.5q38 1 62 15.5t36 37.5q5 13 7.5 24t2.5 25q0 11 -5 20t-14.5 19t-22 17.5
t-19.5 11.5q-12 -4 -36 -4h-11t-11 1q-30 2 -63 21q-17 10 -24.5 25.5t-7.5 31.5q0 21 12.5 40t36.5 25q13 4 24.5 5t23.5 1q31 0 54 -6q4 2 14.5 11.5t20 20t16 22t7.5 21.5q3 15 -1.5 31.5t-13.5 29.5q-10 13 -28 19.5t-39 4.5q-34 -1 -54.5 -7.5t-33.5 -12.5
q-12 -7 -17 -14zM880 255q3 27 24 44t48 16q28 -3 45 -23.5t16 -47.5l-13 -129q-18 0 -16 0v0q27 3 48.5 -15t22.5 -46q3 -27 -15 -48t-46 -24h-5l-16 -173q-3 -27 -24 -44t-48 -16q-28 3 -45.5 24t-14.5 49l14 154h-14q-44 0 -90.5 2.5t-85.5 11t-67 26t-24 51.5
q1 15 15.5 39t33.5 54t43 63.5t48 68.5t48 66.5t42.5 56t27.5 36.5l9 12q15 19 28.5 25t28.5 6q22 0 40 -13q27 -21 27 -53q0 -24 -47 -75q0 -6 6.5 2.5t-9.5 -12t-36.5 -46.5t-41.5 -54t-41.5 -55t-36.5 -49.5t-25.5 -37t-10.5 -19.5q7 15 5.5 15.5t13.5 -2t35 -4t43 -1.5
q15 0 30 1l15 1z" />
    <glyph glyph-name="uni060C" unicode="&#x60c;" horiz-adv-x="346" 
d="M206 204q12 0 38.5 -15t39 -39.5t10.5 -52.5t-16 -52.5t-40.5 -39.5t-63.5 -13q-32 1 -63 19.5t-46 55t-7 88.5t51 122q5 10 7.5 25t6.5 31.5t17.5 30t41.5 13.5q32 0 46.5 -16.5t16 -37.5t-5 -43.5t-15.5 -43t-18 -32.5z" />
    <glyph glyph-name="uni061B" unicode="&#x61b;" horiz-adv-x="345" 
d="M169 211q21 0 40.5 -8.5t34 -23.5t23 -35t8.5 -43t-8.5 -42.5t-23 -34.5t-34 -23.5t-40.5 -8.5q-22 0 -42 8.5t-34.5 23.5t-22.5 34.5t-8 42.5t8 43t22.5 35t34.5 23.5t42 8.5zM206 445q12 0 38 -15t38.5 -39.5t10.5 -52.5t-15.5 -52t-40.5 -39.5t-63 -13.5
q-33 1 -64 19.5t-45.5 55t-6.5 88.5t50 122q6 10 8 25t6.5 31.5t17.5 30t41 13.5q31 0 46 -15.5t16.5 -37.5t-5 -44.5t-15 -42.5t-17.5 -33z" />
    <glyph glyph-name="uni061F" unicode="&#x61f;" horiz-adv-x="787" 
d="M433 296q-13 29 -48.5 59t-81.5 61.5t-94 68.5t-85.5 83.5t-55.5 105.5t-2 136q13 60 51.5 97.5t90.5 58.5t112.5 27.5t120 6t114 -6t95.5 -9.5q23 -5 40 -17t28 -29t15 -37.5t0 -40.5q-9 -42 -45 -66t-78 -15q-11 2 -45 6.5t-78 7t-90 1t-80.5 -10.5t-52 -25t-12.5 -43
q3 -17 27 -45.5t61.5 -64t82.5 -74t86 -76.5t74.5 -74.5t48 -71t-4 -62t-75.5 -35.5q-43 -6 -78 18.5t-41 65.5zM640 -11q-25 -22 -59 -22t-57 20q-26 24 -42.5 56.5t-18 65t19.5 58.5t68 31q33 3 56.5 -8t37.5 -30.5t19.5 -43.5t4 -46.5t-8.5 -44t-20 -36.5z" />
    <glyph glyph-name="uni0640" unicode="&#x640;" horiz-adv-x="91" 
d="M91 162q37 0 62.5 -26.5t25.5 -63.5t-25.5 -63.5t-62.5 -26.5h-91q-37 0 -62.5 26.5t-25.5 63.5t25.5 63.5t62.5 26.5h91z" />
    <glyph glyph-name="uni0649" unicode="&#x649;" horiz-adv-x="1176" 
d="M607 124q54 -13 107 -30.5t96.5 -46.5t71.5 -75t29 -113q1 -55 -15 -99t-46 -76t-71 -52t-89 -28q-55 -10 -118 -4.5t-125 27t-123 57.5t-112 87.5t-91 117.5t-60 147q-6 20 -8.5 42.5t1 45t16.5 42t39 29.5q18 6 37.5 4.5t37 -11t30 -25t15.5 -36.5q8 -87 46.5 -151
t92 -107t115 -64.5t116 -22.5t92.5 17t49 52q6 18 -1 28t-28 19t-55.5 16.5t-74.5 18t-83 27t-81 44.5t-68 71t-46 106q-22 90 1 170.5t78 144t132.5 108.5t164.5 67.5t178 21t169 -31.5q36 -11 58 -31.5t32 -45t6 -49t-17 -43.5q-38 -49 -71.5 -63t-66.5 -4
q-129 33 -221 38.5t-152.5 -8t-92 -40.5t-42.5 -60t-4 -70t28.5 -70.5t53.5 -58t70 -32.5z" />
    <glyph glyph-name="uni0649" unicode="&#xffef;" horiz-adv-x="1176" 
d="M607 124q54 -13 107 -30.5t96.5 -46.5t71.5 -75t29 -113q1 -55 -15 -99t-46 -76t-71 -52t-89 -28q-55 -10 -118 -4.5t-125 27t-123 57.5t-112 87.5t-91 117.5t-60 147q-6 20 -8.5 42.5t1 45t16.5 42t39 29.5q18 6 37.5 4.5t37 -11t30 -25t15.5 -36.5q8 -87 46.5 -151
t92 -107t115 -64.5t116 -22.5t92.5 17t49 52q6 18 -1 28t-28 19t-55.5 16.5t-74.5 18t-83 27t-81 44.5t-68 71t-46 106q-22 90 1 170.5t78 144t132.5 108.5t164.5 67.5t178 21t169 -31.5q36 -11 58 -31.5t32 -45t6 -49t-17 -43.5q-38 -49 -71.5 -63t-66.5 -4
q-129 33 -221 38.5t-152.5 -8t-92 -40.5t-42.5 -60t-4 -70t28.5 -70.5t53.5 -58t70 -32.5z" />
    <glyph glyph-name="uni064C" unicode="&#x64c;" 
d="M-107 133q-38 35 -48.5 75t-0.5 78t38.5 71t67.5 55.5t86.5 31.5t96.5 -3q10 -5 13.5 -16.5t-4.5 -21.5q-7 -10 -17 -11.5t-20 5.5q-15 9 -42.5 6t-57.5 -14.5t-57.5 -31t-43.5 -44.5t-15.5 -54.5t26.5 -60.5q17 -19 24 -35t-4 -30q-8 -7 -20 -8t-22 8zM18 118
q-23 14 -38 36.5t-15 56.5q-1 38 17.5 69t46.5 47t59.5 11.5t56.5 -37.5q28 -37 33.5 -69.5t-5.5 -60t-35.5 -50t-56.5 -39t-67.5 -28t-68.5 -16.5q-30 -5 -49.5 -4.5t-31.5 3.5t-18.5 8.5t-9.5 10.5q-14 22 -2 31.5t40 13t66.5 6t77.5 11.5zM95 182q19 18 17.5 36.5
t-14.5 29.5t-31.5 10t-34.5 -22q-7 -16 -3.5 -31.5t14 -25.5t24.5 -10.5t28 13.5z" />
    <glyph glyph-name="uni0660" unicode="&#x660;" horiz-adv-x="320" 
d="M236 18q-25 -25 -60 -26.5t-60 22.5q-26 28 -44.5 64.5t-20 73.5t20.5 65.5t72 34.5q36 3 61 -9t39.5 -34t20 -49t4 -52.5t-9.5 -50t-23 -39.5z" />
    <glyph glyph-name="uni0661" unicode="&#x661;" horiz-adv-x="611" 
d="M223 766q27 -33 56.5 -82.5t60 -109t60 -124t57 -125.5t51.5 -113.5t42 -88.5q11 -23 8 -47.5t-16.5 -44t-34.5 -31.5t-45 -8.5t-45.5 24t-35.5 60.5q-12 36 -34.5 87t-51 109.5t-59.5 119t-61 115.5t-57 99.5t-44 71.5q-24 33 -15.5 66.5t34 51.5t62 13t68.5 -43z" />
    <glyph glyph-name="uni0662" unicode="&#x662;" horiz-adv-x="674" 
d="M360 64q-13 38 -47.5 86.5t-77 102.5t-84.5 111.5t-69.5 115.5t-29.5 115t38 107q42 52 99.5 75t119 28t123 -0.5t115.5 -12.5q37 -8 57 -38t11 -66q-9 -35 -38 -54.5t-62 -13.5q-9 1 -36.5 5t-62.5 6t-71.5 1t-64.5 -8t-41 -19.5t-10 -32.5q2 -13 22 -43.5t50 -70.5
t65.5 -86.5t68 -93.5t57.5 -92t35 -84.5t-4.5 -69.5t-63.5 -38q-36 -6 -66 14.5t-33 55.5z" />
    <glyph glyph-name="uni0663" unicode="&#x663;" horiz-adv-x="811" 
d="M761 716q-3 -89 -23 -149.5t-51 -96.5t-69.5 -46t-74.5 4t-64 48.5t-30 42.5q-7 -13 -20 -35.5t-27 -42t-8 -16.5q36 -67 77.5 -149.5t74.5 -159.5q16 -36 0.5 -70t-51.5 -48q-34 -14 -68.5 1.5t-47.5 50.5q-13 27 -30.5 68t-39.5 90.5t-47.5 103t-53 106.5t-58 101.5
t-63.5 87.5q-9 12 -17 23t-14 24.5t-4.5 30t11.5 36.5q18 37 43.5 48t51.5 2t49 -29t44.5 -44t41 -48t20.5 -25q0 1 16.5 29.5t32 56.5t31 52t31.5 28q38 6 63.5 -14.5t41.5 -50t27 -60.5t17 -42q-3 0 0.5 18.5t4.5 73.5q0 39 27 65t65 26t64.5 -26t26.5 -65z" />
    <glyph glyph-name="uni0664" unicode="&#x664;" horiz-adv-x="649" 
d="M404 713q-14 -13 -39 -38t-52 -54t-52 -58t-24 -28q17 -3 63.5 -6t89 -7t77.5 -15t48.5 -39.5t-4.5 -70t-72 -101.5l-21 -24t-27.5 -34.5t-22.5 -35l-9 -16.5q2 -1 22 -5t48.5 -8.5t58.5 -11t56 -21.5t40.5 -42t8.5 -68q-6 -33 -32.5 -53t-62.5 -14q-68 19 -127.5 33.5
t-103.5 34t-70.5 49t-23.5 73t35.5 101t78.5 111.5q-12 1 -55.5 6t-68.5 10q-54 11 -80.5 36.5t-29.5 59.5t11 69.5t37.5 71t51.5 68.5t54 61t46.5 48.5t29.5 31.5q25 23 58 24t57 -21q27 -24 28.5 -58t-22.5 -59z" />
    <glyph glyph-name="uni0665" unicode="&#x665;" horiz-adv-x="722" 
d="M207 392q-4 -64 13 -105t44.5 -63t62.5 -28t68.5 3t60 29t38 49.5t4 67.5t-44.5 85q-46 57 -90 85t-75.5 25t-53.5 -37.5t-27 -110.5zM118 633q14 64 54.5 90.5t89.5 24t99.5 -27t91.5 -56.5q92 -73 141 -149.5t63.5 -150t0 -139.5t-51.5 -116t-90 -81t-114 -34
q-88 -6 -154 25.5t-108.5 85.5t-64.5 124.5t-23.5 143.5t15.5 142.5t51 117.5z" />
    <glyph glyph-name="uni0666" unicode="&#x666;" horiz-adv-x="867" 
d="M227 726q3 -16 19 -25.5t44 -13t62 0.5t65.5 13t56 21.5t35.5 25.5q24 27 53.5 38.5t56.5 6t43 -29t11 -59.5q-7 -44 -18 -96.5t-11.5 -111.5t15.5 -124.5t64 -136.5q4 -7 20 -28t52 -73q22 -30 15 -66t-37 -57q-39 -25 -73.5 -17t-62 37.5t-48.5 73t-38 94.5t-29.5 106
t-20.5 105.5t-11.5 93.5l-3.5 43q-43 -14 -117 -22.5t-140 5.5t-114.5 57t-61.5 123q-3 37 19.5 65t59.5 32q36 2 64.5 -21.5t30.5 -59.5z" />
    <glyph glyph-name="uni0667" unicode="&#x667;" horiz-adv-x="790" 
d="M411 348q-3 -10 10.5 40t28 101.5t30 102t32 92.5t34.5 73t39 41q24 13 49 12t45.5 -12t35.5 -29t20 -40.5t-2.5 -45.5t-30.5 -43q-16 -13 -32 -42t-32 -70.5t-32 -91t-30.5 -101.5t-29 -102.5t-28.5 -93.5q-22 -71 -43 -109.5t-49.5 -38t-51.5 40t-50 107.5
q-22 55 -46 121.5t-53.5 133t-64 126.5t-76.5 102q-14 12 -22 28.5t-10 34.5t3 35.5t17 32.5q33 38 68 38.5t65 -24t56 -65.5t49 -89t42.5 -98.5t35 -94.5t23.5 -72z" />
    <glyph glyph-name="uni0668" unicode="&#x668;" horiz-adv-x="791" 
d="M378 457q2 8 -11.5 -41.5t-28.5 -101.5t-30.5 -102.5t-32.5 -92.5t-34.5 -73t-37.5 -43q-36 -19 -72 -8t-58 38.5t-22.5 64t36.5 65.5q15 12 31 41.5t32 71t31.5 91t30.5 101t29.5 101.5t28.5 94q23 70 44 109t49 38.5t50.5 -40t49.5 -107.5q22 -54 47 -120.5t54 -133
t63.5 -126t75.5 -101.5q30 -25 34 -63.5t-22 -67.5q-32 -39 -66.5 -39.5t-64.5 24t-56.5 65t-49.5 88.5t-43 99t-35.5 95t-21.5 74z" />
    <glyph glyph-name="uni0669" unicode="&#x669;" horiz-adv-x="843" 
d="M498 314q-5 -9 -46 -37.5t-87 -35.5t-93 4t-87.5 38.5t-72 70t-46.5 96.5q-16 59 -5.5 114t40.5 100.5t74 79.5t94 51.5t102.5 16.5t99 -26.5t81 -77t50.5 -132.5q7 -37 18.5 -95.5t31 -122t50 -126t77.5 -110.5q14 -25 12 -51.5t-22 -46.5q-21 -28 -56.5 -32t-63.5 19
q-31 21 -54.5 53t-40.5 68t-28.5 73t-19 68.5t-8.5 40.5zM451 483q4 -6 1 4t-6 21.5t-6 20.5t-5 12q-21 52 -47 73t-51 23t-49 -11.5t-41.5 -36.5t-23.5 -50.5t4 -53.5q13 -34 39.5 -47t60.5 -10t70 20t54 35z" />
    <glyph glyph-name="uni066B" unicode="&#x66b;" horiz-adv-x="354" 
d="M124 14q-9 2 -30 24t-26 49.5t5 53.5t30 45.5t50 27t64 -5.5q30 -10 55 -36t28.5 -65.5t-19 -87.5t-83.5 -103q-8 -9 -14.5 -22.5t-15.5 -27.5t-25.5 -24t-42.5 -1q-31 9 -40.5 29t-4.5 40.5t17.5 40.5t27 37t27 30t-2.5 -4z" />
    <glyph glyph-name="uni066C" unicode="&#x66c;" horiz-adv-x="354" 
d="M124 14q-9 2 -30 24t-26 49.5t5 53.5t30 45.5t50 27t64 -5.5q30 -10 55 -36t28.5 -65.5t-19 -87.5t-83.5 -103q-8 -9 -14.5 -22.5t-15.5 -27.5t-25.5 -24t-42.5 -1q-31 9 -40.5 29t-4.5 40.5t17.5 40.5t27 37t27 30t-2.5 -4z" />
    <glyph glyph-name="uni06D4" unicode="&#x6d4;" horiz-adv-x="312" 
d="M156 211q22 0 41.5 -8.5t33.5 -23.5t22.5 -35t8.5 -43t-8.5 -42.5t-22.5 -34.5t-33.5 -23.5t-41.5 -8.5t-41.5 8.5t-33.5 23.5t-22.5 34.5t-8.5 42.5t8.5 43t22.5 35t33.5 23.5t41.5 8.5z" />
    <glyph glyph-name="quotedblleft" unicode="&#x201c;" horiz-adv-x="622" 
d="M510 809q22 -25 9 -75q-11 -39 -44.5 -58.5t-73.5 -8.5q-34 7 -61 29q-27 24 -36 52.5t-7 62.5q6 42 30 78q17 28 42 53.5t49 42.5q26 20 57 20q48 0 78 -41q19 -26 19 -57q0 -23 -10.5 -43.5t-29.5 -34.5q-8 -6 -16.5 -14.5t-5.5 -5.5zM262 821q5 -4 14 -26t5 -48
q-6 -38 -38 -62.5t-72 -18.5q-37 5 -63 23q-30 20 -43 47t-15 62q1 21 6 41t15 40q14 28 35.5 57t43.5 49q24 22 54 26q23 4 44.5 -5t36.5 -27q23 -23 27 -54q2 -22 -5.5 -43.5t-25.5 -38.5q-9 -6 -15.5 -15.5t-3.5 -6.5z" />
    <glyph glyph-name="quotedblright" unicode="&#x201d;" horiz-adv-x="622" 
d="M113 860q-23 25 -10 76q11 38 44.5 57.5t74.5 9.5q32 -9 60 -29q26 -25 35.5 -53.5t7.5 -61.5q-7 -43 -30 -79q-17 -27 -42.5 -53t-48.5 -43q-26 -19 -57 -19q-48 0 -78 41q-19 26 -19 56q0 24 10.5 44.5t30.5 34.5q8 5 16 13t6 6zM360 848q-5 4 -14 26.5t-5 46.5
q3 20 13.5 36t24.5 27t32.5 16.5t39.5 3.5q37 -6 63 -24q30 -20 43 -47t15 -61q-1 -21 -6.5 -41t-15.5 -40q-12 -28 -33.5 -57t-44.5 -50q-24 -22 -54 -26q-23 -2 -45 6t-36 26q-24 23 -27 54q-2 23 5.5 45t25.5 37q8 6 15 15.5t4 6.5z" />
    <glyph glyph-name="logo01" horiz-adv-x="3359" 
d="M1334 490q-42 0 -90 2q-61 3 -140 4l-38 1h-88q-165 3 -196 19q-11 5 -16 15q-10 19 -10 61q0 27 3 71q5 126 6 171q-8 24 -11 56q-5 41 -5 61q0 19 6.5 29.5t27.5 10.5h3q27 5 96 5q141 0 389 -14q152 -9 288 -20q91 -8 153 -8q23 0 42.5 2t27.5 19q6 13 6 26
q0 4 -0.5 14t-10.5 13q-16 3 -55 3h-29q-92 0 -219 20q-133 21 -152 35q-7 5 -9 13q-3 16 -3 50q-1 3 -1 17q0 39 15.5 46t65.5 7q83 0 236 -10q113 -7 192 -18q87 -11 101 -32q6 -11 6 -25q0 -55 -21 -89q-12 -18 -25 -61q-7 -22 -11 -28q-2 -2 -2 -4q0 -1 1 -4t4 -8.5
t6 -11.5q11 1 29 1h19q18 -1 70 -1q23 0 60.5 0.5t75.5 2.5q34 2 49 5.5t20 11.5t5 21q0 14 -6 35l-3 10q-8 26 -8 44q0 16 10 28q27 23 88 23q32 0 39.5 -9.5t11.5 -27.5q13 -39 16 -102q-2 -63 -25 -109.5t-53 -61.5q-13 -8 -33 -10q-29 -4 -106 -4q50 -5 75 -32.5
t25 -65.5q0 -21 -8 -42q-13 -30 -38 -50.5t-56 -20.5q-26 0 -51 12q-30 14 -54 43q-6 -42 -41 -72q-25 -20 -54 -20q-25 0 -49 11.5t-42 31t-20 47.5q0 32 14 63q18 46 73 46q68 0 96 -31l11 -14q12 73 60 90l16 4l-101 -1q-79 0 -101 3q-18 4 -32 27q-4 -3 -7 -8
q-11 -13 -28 -17.5t-48 -4.5q-43 0 -112 5q-39 4 -86 7q47 -5 68 -30q25 -25 25 -60q0 -20 -8 -41q-12 -28 -36 -47.5t-52 -19.5q-25 0 -49.5 11.5t-43 31.5t-18.5 51q0 29 14 59q18 46 73 46h7q-112 8 -297 8q-162 0 -318 -4l1 -53l-2 -53q0 -17 4.5 -23t21.5 -6l16 1
q3 2 131 7q29 0 37 2q4 1 7 2t18 2q40 2 61 2q68 2 96 2q55 0 72 -30q6 -9 6 -38q-7 -100 -28 -117q-11 -9 -50 -9zM1257 -543q66 0 215 20t428 133q141 55 272 95h-2q-29 -9 -43 -9q-29 0 -40 31q-9 38 -9 125q-5 144 -10 157q-3 8 -10.5 9t-16.5 1l-20 -1q-15 -1 -31 -1
q-39 1 -69 10t-48 30q-30 38 -30 159v24q4 120 97 171q46 23 100 23h4q56 -4 95 -22q36 -15 52.5 -44.5t24.5 -87.5q6 -47 7 -120l74 3q11 1 17.5 3.5t8 11t1.5 16.5l-1 19l-1 32q2 84 39 116q27 22 92 27l-4 2q-25 11 -43 30.5t-20 48.5q0 31 13 61.5t44 42.5q17 5 38 5
q61 -2 88 -32q24 -26 24 -61q0 -20 -8 -40q-11 -28 -34 -47q-5 -4 -11 -7h4q58 -2 101.5 -25.5t68 -69.5t24.5 -98v-8q-4 -55 -22 -94q-14 -37 -43.5 -53.5t-88.5 -24t-136 -7.5q-119 2 -148 5q-43 2 -77 2q0 -50 -1 -92q-2 -54 -2 -105v-43l1 -19q0 -32 -9 -41l79 24
q143 43 293 96q123 44 245 114.5t216 168.5t132 222q17 57 17 120q0 74 -24 155q-70 186 -197 300.5t-306 194.5l-53 25q25 -49 56 -125q6 -12 11 -25l2 -4q47 -102 47 -177q0 -37 -10 -68q-21 -69 -71 -83q-29 -8 -182 -32q-66 -11 -89 -11q-24 0 -35 16q-13 20 -20 55
q-3 17 -3 32q0 16 9 25q15 13 57 16l19 2q30 4 64 11q79 15 96.5 23t17.5 27q0 16 -12 42q-17 39 -54 95q-34 53 -64 98l-7 10q-24 34 -24 47q0 17 24.5 36t54.5 37q-433 171 -863 171q-539 0 -1072 -269q-331 -179 -428 -392q-48 -105 -48 -215q0 -112 74.5 -285.5
t330.5 -403.5q234 -206 449 -281q153 -53 313 -53zM823 -67h-20q-38 0 -51 9q-10 10 -12 40q-4 15 -8 54q-4 27 -4 44q0 60 84 60l123 -4q-15 3 -29 10q-27 12 -46.5 33.5t-19.5 53.5q0 31 15 62q18 49 84 49q22 0 41 -4q53 -14 72 -59q4 16 11 31q12 30 43 42q17 5 38 5
q61 -2 88 -32q24 -25 24 -60q0 -20 -8 -41q-12 -28 -34.5 -46.5t-49.5 -20.5q-27 0 -52 12q-38 16 -57 51q-9 -41 -42 -67q-20 -16 -43 -20l192 -6q127 -5 132 -7l16 -1q17 0 20.5 6t3.5 17q0 18 -13 76q-18 86 -18 101t5.5 19t19.5 4l13 -1h35l65 1l9 1q10 0 17.5 -4.5
t12 -28.5t7.5 -63q5 -66 5 -91l3 -51q52 1 93 4q25 1 38 5t18 12t5 21q0 14 -6 35l-3 10q-9 29 -9 44q0 16 13 29q-6 -1 -17 -1q-24 0 -48.5 11.5t-42.5 30.5t-20 48q0 31 15 62q18 47 80 47q20 0 38 -5q34 -8 50 -27q25 -25 25 -60q0 -20 -8 -41q-12 -28 -35 -47l-4 -3
q23 6 52 6q34 0 41 -9.5t10 -26.5q13 -40 16 -103q-2 -62 -24.5 -108.5t-52.5 -62.5q-14 -7 -32 -9.5t-47.5 -3t-67 -1t-103.5 -0.5q-3 -1 -6 -5q-11 -11 -26 -14q-37 -5 -214 -5h-63q-132 0 -337 -7zM2510 159h-31q-6 0 -9.5 1t-5.5 7q-3 12 -3 26q0 61 60 61q36 0 57 -21
q16 -16 16 -35q0 -28 -41 -36q-23 -3 -43 -3zM2049 157h-12q-34 0 -48 22q-9 17 -9 37q0 36 21 58q16 15 36 15q27 0 35 -41q3 -23 3 -74v-4q0 -7 -7.5 -10t-18.5 -3z" />
    <glyph glyph-name="uni0009" horiz-adv-x="682" 
 />
    <glyph glyph-name="percent.1" horiz-adv-x="797" 
d="M76 174q17 47 52 109t78.5 129.5t93 137.5t97 136t88 122.5t66.5 97.5q17 26 44 36.5t55 8.5t52 -17t34.5 -41t2.5 -59.5t-42 -71.5q-31 -34 -70.5 -88.5t-83.5 -119.5t-88.5 -134.5t-83.5 -134t-70.5 -119.5t-47.5 -90q-14 -30 -36.5 -45t-46.5 -16t-47.5 9.5t-38 32
t-18 51.5t9.5 66zM126 916q43 22 79.5 13.5t62 -34t38.5 -62t12 -74.5t-19.5 -71.5t-58.5 -50.5q-43 -19 -79.5 -10t-61.5 34t-37 60t-10.5 72t19.5 70t55 53zM219 782q2 16 -8 24t-24.5 9t-26 -7t-12.5 -26q-1 -16 9.5 -26.5t23 -12t24 6.5t14.5 32zM512 341
q43 22 79.5 13.5t62 -34.5t38.5 -63t12 -75t-19.5 -71.5t-57.5 -50.5q-43 -19 -79.5 -10t-61.5 34t-37.5 61t-11 73t19.5 71t55 52zM606 205q2 16 -8 24t-24.5 9.5t-26.5 -6.5t-13 -26q-1 -16 9.5 -26.5t23.5 -12.5t24.5 6t14.5 32z" />
    <glyph glyph-name="shaddaA.fathatanA" 
d="M144 253q30 -25 43 -52t13.5 -52.5t-10 -46.5t-27.5 -32t-39 -10t-44 19q-17 -33 -49.5 -46t-65.5 -3.5t-58.5 42t-27.5 88.5q0 15 9.5 25t21 12.5t21 -6t9.5 -31.5q1 -8 5 -19.5t11 -21t16.5 -15.5t21.5 -3q13 3 16.5 11t1.5 18.5t-7 22t-9 21.5q-7 26 -0.5 42t17.5 18
q17 3 26 -5t14 -22t8.5 -30.5t9.5 -28.5t16 -17.5t29 2.5q9 4 14.5 9.5t5.5 13.5t-8 18.5t-26 24.5q-13 9 -16 21t6 26q9 13 24 14.5t28 -7.5zM137 354q-63 -62 -139.5 -93.5t-165.5 -14.5q-18 4 -24 17t-3 26t14.5 21t29.5 4q34 -6 66.5 -1.5t63 17t58 31.5t51.5 42
q12 13 25.5 12t23 -10t11 -23.5t-10.5 -27.5zM88 467q-63 -61 -140 -92.5t-165 -13.5q-18 4 -24 16.5t-3 25.5t14.5 22t29.5 5q34 -8 66.5 -4t63 16.5t57.5 32t51 43.5q12 12 26.5 10.5t24 -10.5t11 -23.5t-11.5 -27.5z" />
    <glyph glyph-name="shaddaA.dammatanA" 
d="M126 253q30 -25 43.5 -52t14 -52.5t-9.5 -46.5t-27.5 -32t-39.5 -10t-45 19q-17 -33 -50 -46t-66 -3.5t-58 42t-27 88.5q0 15 9.5 25t21 12.5t21 -6t9.5 -31.5q1 -8 4.5 -19.5t10.5 -21t16.5 -15.5t22.5 -3q12 3 15 11t1 18.5t-6.5 22t-7.5 21.5q-7 26 -1.5 42t19.5 18
q16 3 25 -5t14 -22t8.5 -30.5t10 -28.5t17 -17.5t29.5 2.5q8 4 13.5 9.5t5 13.5t-8.5 18.5t-26 24.5q-13 9 -17 21t5 26q9 13 25 14.5t29 -7.5zM-122 329q-31 28 -40 60.5t-1.5 63t30 57t54 45t69.5 25t77 -2.5q9 -5 11 -13t-4 -16q-5 -7 -13 -9.5t-15 2.5q-13 7 -35 5
t-46 -11.5t-46 -25t-35 -35.5t-12.5 -43t21.5 -48q13 -14 18.5 -28t-3.5 -24q-6 -7 -15 -7t-15 5zM-24 322q-18 11 -31 29t-13 50q0 31 15.5 56.5t38 38t49 8.5t47.5 -32q35 -46 29 -83.5t-35 -65.5t-73 -46t-86 -24q-26 -3 -42.5 -2.5t-27 3.5t-15.5 7t-8 9q-12 18 -1.5 26
t34.5 11t56 5t63 10zM41 373q16 15 14.5 31t-12 25t-26 8t-28.5 -19q-7 -12 -4 -24.5t11 -21t20.5 -9.5t24.5 10z" />
    <glyph glyph-name="shaddaA.kasratanB" 
d="M27 539q30 -25 43.5 -52t14 -52.5t-10 -46t-27.5 -32t-38.5 -10.5t-44.5 19q-18 -33 -51 -45.5t-66 -3t-58 41.5t-27 88q0 15 9.5 25t21 12.5t21 -6t9.5 -31.5q1 -8 5 -19.5t10.5 -21t16 -15.5t22.5 -3q12 3 15 11t1.5 18.5t-6 22t-7.5 21.5q-8 26 -2 42t19 18
q17 4 25.5 -4.5t14 -22.5t9 -30t9 -28.5t16 -18t29.5 2.5q9 4 14.5 9.5t5.5 13.5t-8 18.5t-27 24.5q-12 9 -16.5 21t4.5 26q9 13 25.5 14.5t28.5 -7.5zM-165 202q31 31 66.5 55t73.5 38.5t79.5 18t85.5 -5.5q18 -4 24 -16.5t3 -25t-14.5 -21.5t-29.5 -6q-69 15 -129.5 -12.5
t-108.5 -75.5q-12 -12 -26 -10t-23.5 11.5t-11 23.5t10.5 26zM-115 87q31 31 66 55t73.5 39t79.5 19t85 -5q18 -5 24 -17.5t3 -25.5t-14.5 -21.5t-28.5 -3.5q-35 6 -67.5 1.5t-63 -17t-57.5 -31.5t-51 -42q-12 -13 -25.5 -11.5t-23 11t-11.5 23.5t11 26z" />
    <glyph glyph-name="shaddaA.fathaA" 
d="M120 253q30 -25 43 -52t13.5 -52.5t-10 -46.5t-27.5 -32t-39 -10t-44 19q-17 -33 -49.5 -46t-65.5 -3.5t-58.5 42t-27.5 88.5q0 15 9.5 25t21 12.5t21 -6t9.5 -31.5q1 -8 5 -19.5t11 -21t16.5 -15.5t21.5 -3q13 3 16.5 11t1.5 18.5t-7 22t-9 21.5q-7 26 -0.5 42t17.5 18
q17 3 26 -5t14 -22t8.5 -30.5t9.5 -28.5t16 -17.5t29 2.5q9 4 14.5 9.5t5.5 13.5t-8 18.5t-26 24.5q-13 9 -16 21t6 26q9 13 24 14.5t28 -7.5zM113 354q-63 -62 -139.5 -93.5t-165.5 -14.5q-18 4 -24 17t-3 26t14.5 21t29.5 4q34 -6 66.5 -1.5t63 17t58 31.5t51.5 42
q12 13 25.5 12t23 -10t11 -23.5t-10.5 -27.5z" />
    <glyph glyph-name="shaddaA.dammaA" 
d="M107 253q30 -25 43.5 -52t14 -52.5t-10 -46.5t-27.5 -32t-39 -10t-45 19q-12 -22 -31 -35t-41 -16.5t-44.5 2.5t-41 22.5t-30.5 43.5t-13 64q0 15 9.5 25t21 12.5t21 -6t9.5 -31.5q1 -8 4.5 -19.5t10.5 -21t16.5 -15.5t22.5 -3q12 3 15 11t1 18.5t-6.5 22t-7.5 21.5
q-7 26 -1.5 42t19.5 18q16 3 25 -5t14 -22t8.5 -30.5t9.5 -28.5t16.5 -17.5t29.5 2.5q8 4 13.5 9.5t5.5 13.5t-8 18.5t-26 24.5q-13 9 -17 21t5 26q9 13 25 14.5t29 -7.5zM-43 322q-18 11 -31.5 29t-13.5 50q0 31 15.5 56.5t38.5 38t49 8.5t47 -32q35 -46 29.5 -83.5
t-35 -65.5t-73.5 -46t-85 -24q-26 -3 -42.5 -2.5t-27 3.5t-16 7t-8.5 9q-12 18 -1 26t35 11t56 5t63 10zM22 373q16 15 14.5 31t-12 25t-26 8t-28.5 -19q-7 -12 -4 -24.5t11 -21t20.5 -9.5t24.5 10z" />
    <glyph glyph-name="shaddaA.kasraB" 
d="M52 426q30 -25 43.5 -52t14 -52.5t-10 -46t-27.5 -32t-38.5 -10.5t-44.5 19q-18 -33 -51 -45.5t-66 -3t-58 41.5t-27 88q0 15 9.5 25t21 12.5t21 -6t9.5 -31.5q1 -8 5 -19.5t10.5 -21t16 -15.5t22.5 -3q12 3 15 11t1.5 18.5t-6 22t-7.5 21.5q-8 26 -2 42t19 18
q17 4 25.5 -4.5t14 -22.5t9 -30t9 -28.5t16 -18t29.5 2.5q9 4 14.5 9.5t5.5 13.5t-8 18.5t-27 24.5q-12 9 -16.5 21t4.5 26q9 13 25.5 14.5t28.5 -7.5zM-140 89q31 31 66.5 55t73.5 38.5t79.5 18t85.5 -5.5q18 -4 24 -16.5t3 -25t-14.5 -21.5t-29.5 -6q-69 15 -129.5 -12.5
t-108.5 -75.5q-12 -12 -26 -10t-23.5 11.5t-11 23.5t10.5 26z" />
    <glyph glyph-name="shaddaA.sukunA" 
d="M-113 467q26 13 48.5 8t38.5 -21t24.5 -40t7.5 -48t-12.5 -45t-35.5 -31q-27 -12 -49 -6.5t-37.5 21.5t-23.5 38.5t-7 46.5t12 44.5t34 32.5zM-38 380q1 18 -10.5 27.5t-26 10.5t-27 -7.5t-13.5 -27.5q-1 -17 9.5 -28.5t24.5 -13.5t27 7t16 32zM84 253q30 -25 43 -52
t13.5 -52.5t-10 -46.5t-27.5 -32t-39 -10t-44 19q-17 -33 -49.5 -46t-65.5 -3.5t-58.5 42t-27.5 88.5q0 15 9.5 25t21 12.5t21 -6t9.5 -31.5q1 -8 4.5 -19.5t10 -21t16.5 -15.5t23 -3t16.5 11t1.5 18.5t-7 22t-9 21.5q-7 26 -0.5 42t17.5 18q17 3 26 -5t14 -22t8.5 -30.5
t9.5 -28.5t16 -17.5t29 2.5q9 4 14.5 9.5t5.5 13.5t-8 18.5t-26 24.5q-13 9 -16 21t6 26q9 13 24 14.5t28 -7.5z" />
    <glyph glyph-name="_.notdef.001" horiz-adv-x="1736" 
 />
    <glyph glyph-name="logo02" horiz-adv-x="3420" 
d="M1447 758q28 3 31 44q0 9 -4 56q-5 43 -8 57q-12 42 -39 42q-32 0 -32 -50l1 -29q1 -4 1 -10l3 -23l1 -18q8 -69 42 -69h4zM1308 -399q-160 0 -344.5 64t-418.5 271q-248 223 -349 445q-57 126 -57 247q0 93 56.5 242t349.5 327q-6 -10 -6 -25l49 -499q5 -49 64 -49
q21 0 64 5q77 7 90 10q49 10 72 36t23 73q0 10 -37 386q0 3 -3.5 14t-4.5 16q-2 18 -18 40q-19 27 -40 29q-32 4 -69 4q-61 0 -134 -11q1 1 3 1l18 10q530 270 1071 270q518 0 1038 -243q180 -81 307.5 -196t197.5 -302q25 -82 25 -156q0 -63 -28 -153.5t-122 -189
t-216.5 -169.5t-245.5 -115q-151 -53 -295 -96q-189 -55 -392 -133q-280 -113 -512 -144q-69 -9 -136 -9zM1095 642q23 2 36 18.5t13 40.5v7l-50 505q-2 24 -17 39.5t-36 15.5q-32 0 -47 -22q-11 -15 -11 -35l50 -513q3 -27 17.5 -41.5t36.5 -14.5h8zM746 699q13 2 22 13.5
t9 23.5l-39 401q-1 9 -11.5 22t-22.5 13q-17 0 -27 -14q-7 -12 -7 -22l40 -406q1 -13 11.5 -22t22.5 -9h2zM2273 105q2 0 38.5 8.5t51.5 10.5q70 8 70 120q0 26 -3 60q-7 65 -16 93q-12 36 -51 55q-10 4 -77 23q-79 23 -87 77l-5 52l-2 32q0 48 34 48q26 0 33 -32l14 -64
q14 -30 52 -30l12 1q61 6 61 63l-1 12q-8 89 -57 113q-24 11 -71 11q-24 0 -56 -3q-102 -10 -131 -39q-24 -27 -24 -93q0 -47 12 -111q6 -36 46 -58q16 -8 80 -30q52 -17 74 -37q14 -13 19 -47l3 -21q2 -28 5 -44q4 -27 4 -43q0 -49 -31 -52h-2q-11 0 -22.5 11.5t-13.5 23.5
l-9 94q-5 53 -58 53l-11 -1q-51 -5 -61 -36q-4 -9 -4 -29q0 -17 3 -41q14 -145 77 -146l54 -4h50zM1886 83q32 0 49.5 15t17.5 40l-44 464q0 13 12 28.5t26 30.5q2 3 2 9v5q-2 19 -47 19l-65 -6q-54 -5 -61 -7q-48 -9 -48 -26l4 -12q0 -1 26 -20q19 -15 22 -28q1 -1 3 -4.5
t46 -457.5q3 -28 24 -41q14 -9 33 -9zM1369 22q25 0 36 7q5 2 14.5 17.5t9.5 19.5l-18 189q0 6 5 16q7 17 20 17q22 0 42 -37l19 -47q4 -12 9 -22q14 -37 23 -58q21 -55 37 -67t38 -12q32 0 48 19q13 15 13 36v6l-52 528q-3 23 -19 39q-13 13 -34 13q-26 0 -44 -16
q-14 -12 -14 -29l15 -158q0 -7 -5 -19q-8 -20 -23 -20q-20 0 -36 27q-5 8 -64 148q-10 20 -25 32t-38 12q-35 0 -50 -22q-11 -16 -11 -35l52 -532q5 -52 52 -52zM1009 54h-4q-12 0 -22.5 11t-11.5 21l-42 431q0 11 10 25.5t23 14.5q11 0 23 -11.5t13 -22.5l42 -432
q0 -12 -10 -24t-21 -13zM951 -22q7 0 17 1t30 1h16h7.5t21 4t27.5 5q63 7 89 51q15 28 15 66l-1 21l-38 390q-8 84 -62 106q-22 9 -65 9q-25 0 -56 -3q-81 -8 -113 -29q-45 -28 -45 -93q0 -10 40 -418q11 -111 117 -111zM561 -35q31 0 49 15.5t18 39.5l-20 210q0 8 6.5 21.5
t11.5 17.5q20 14 31 21t11 19q0 9 -5 13.5t-28 12.5q-19 8 -28 18q-13 14 -19 75q-3 33 -3 50l1 13q2 17 16 30q42 26 42 38q-2 18 -51 18q-16 0 -38 -2q-50 -5 -63 -9q-37 -13 -37 -49l49 -501q2 -28 23 -41q14 -10 34 -10zM1395 697l28 1q31 3 47 8q61 18 64 18t19.5 0.5
t18.5 1.5q36 3 36 39l-19 202q-5 49 -67 49q-8 0 -15.5 -1t-40 -7.5t-38.5 -6.5q-54 0 -54 100q-1 17 -1.5 19.5t-2.5 16.5q-5 24 -5 48q0 61 38 61q27 0 34 -32t14 -63q13 -30 51 -30q65 0 65 62l-1 13q-7 70 -41 96q-38 19 -91 19q-86 0 -143 -26l-6 -4q-44 -28 -44 -88
q0 -9 38 -404q10 -92 116 -92zM1803 711q23 3 36 19t13 41l-50 512q-1 9 -4 18q-25 11 -49 11q-28 0 -55 -14q-3 -9 -3 -18l50 -513q3 -27 18 -41.5t38 -14.5h6z" />
    </font>
</defs>
</svg>
